<svg xmlns="http://www.w3.org/2000/svg" width="420.592" height="50" viewBox="0 0 3104 369">

<defs>
    <style>
      .cls-1 {
        fill-rule: evenodd;
      }
    </style>
  </defs>
  <path id="GEODATA" class="cls-1" d="M2421.01,252.94V219.135h-29.76v5.023h24.41v26.067a39.785,39.785,0,0,1-21.41,6.109c-19.45,0-32.24-14.527-32.24-38.421,0-25.117,14.23-38.829,31.98-38.829a43.539,43.539,0,0,1,22.98,6.517l1.69-4.888a46.9,46.9,0,0,0-24.41-6.788c-21.93,0-37.85,17.106-37.85,43.988,0,26.745,14.49,43.58,37.72,43.58A44.949,44.949,0,0,0,2421.01,252.94Zm98.69,7.195v-5.159h-41.25V220.221h34.46V215.2h-34.46V180.442h41.25v-5.159h-46.74v84.852h46.74Zm123.23-42.63c0-25.523-17.5-43.58-39.04-43.58-22.58,0-39.29,17.514-39.29,43.852,0,25.524,17.49,43.716,39.03,43.716C2626.22,261.493,2642.93,243.844,2642.93,217.505Zm-5.62.272c0,22.673-14.1,38.693-33.29,38.693s-33.8-16.292-33.8-38.965,14.09-38.557,33.28-38.557S2637.31,195.1,2637.31,217.777Zm118.27-.679c0-24.709-16.84-41.815-43.21-41.815h-19.71v84.852h18.93C2739.13,260.135,2755.58,244.523,2755.58,217.1Zm-5.61.543c0,25.8-15.8,37.335-38.12,37.335h-13.71V180.442h13.71C2735.74,180.442,2749.97,195.24,2749.97,217.641Zm84.98-42.358h-6.79l-31.2,84.852h5.48l9.53-26.474h38.51l9.53,26.474h5.61Zm13.57,53.219h-34.59l17.49-48.2Zm113.31-47.925v-5.294h-63.18v5.294h28.85v79.558h5.48V180.577h28.85Zm71.01-5.294h-6.78l-31.2,84.852h5.48l9.53-26.474h38.51l9.53,26.474h5.61Zm13.58,53.219h-34.59l17.49-48.2Z"/>
  <path class="cls-1" d="M160,126.88l10,3v1l9,3v1l4,1,1,2,6,2,1,2h2l1,2h2l2,3h2l7,7.993,4,3v2l3,2,1,4,2,1v3h1v2h1v3h1v3h1v4h1v5h1q-0.5,12.987-1,25.976h-1v4h-1q-0.5,3-1,6h-1l-2,5.994h-1q-0.5,2-1,4l-2,1v2l-3,2v2l-2,1-5,5.994h-2l-3,4h-2l-1,2-6,2-1,2-27,8.992-20,2v1H106v-1H97v-1H88v-1H78v-1l-45,1c-1.886.163-2,1-2,1-4.537,1.258-12.085-.122-14-2H16v-6l2-1c5.632-5.37,23.451,1.458,29-4,2.224-2.56,1-11.568,1-15.985V28.971c-2.012-2.294-.761-5.907-2-8.992H45l-1-4H43v-2a52.8,52.8,0,0,0-6-4H24l-15-2A19.137,19.137,0,0,1,8,1C22.393-1.652,41.874,0,58,0H76V-1l36-1c22.247,0,39.3-.193,55,5.994l6,1v1l4,1v1l6,2v1l3,1,1,2h2l6,6.994,5,4c5.787,8.17,10,19,10,32.969V69.933l-6,17.983-2,1q-0.5,2-1,4l-3,2v2l-8,6.993-4,5h-2l-2,3h-2l-1,2-3,1v1h-2l-1,2-3,1v1h-2v1h-2l-1,2h-2v1C160.231,125.624,161.219,122.945,160,126.88ZM906,263.752c-11.957,2.17-28.367,1-42,1-13.949,0-30.732,1.215-43-1v-5.994l4-1v-1h8c7.118-.014,13.359-0.1,18-2,2.032-5.58,1-15.716,1-22.979V23.976h-1v-3h-1v-1c-1.1-.588-1.585-1.75-2-2h-2v-1l-21-1a13.281,13.281,0,0,0-3-4q0.5-2,1-4l35-4L880-2l1,2c2.2,2.259,1.94,12.371,1,17.983-2.316,13.831-1,32.42-1,47.955q-0.5,60.936-1,121.886v4h-1v48.955h1v6.993h1q0.5,2.5,1,5c1.165,0.6,1.544,1.725,2,2h2v1c6.241,2.355,14.514-2.472,19,2,1.016,0.77.984,1.228,2,2Q906.5,261.754,906,263.752ZM565-1c0.637,11.552,0,30.238,0,44.958,0,7.7.753,17.923-1,23.978q-1,65.433-2,130.878a12.694,12.694,0,0,0,5,1c1.765-1.983,1.95-.844,4-2v-1h2l1-2h2l1-2h2l2-3h2l2-3h2l1-2,3-1,3-4h2l4-5h2l5-5.994h2l5-6,3-1,8-8.991c8.656-8.648,18.094-13.339,18-30.971-1.111-.591-1.576-1.745-2-2h-2v-1H621s-0.189-.675-2-1a15.652,15.652,0,0,1-1-5.994h1v-1l7-1v1h12v1h6c6.028-1.612,15.438-.364,23-1,2.114-.178,4.044-2.017,7-1v1l3,1-4,7.992-3,2v2l-3,2v2l-7,5.994v2l-5,4-8,8.991h-2l-7,7.993h-2l-2,3-3,2v1h-2l-2,3h-1l-1,2h-2l-3,4-3,1-4,5-4,3c-0.543,1.911.615,1.374,1,2a16.592,16.592,0,0,0,4,6.993l2,1v2q2.5,2,5,4v2l5,4v2l5,4v2l3,2v1l2,1v2l6,5v2l4,3v2l4,3v2l4,3v2l6,4.995v2l2,1,3,4h2l3,4,4,1v1l13,1v1l5,1a12.674,12.674,0,0,1,1,5c-1.135.843-.146-0.127-1,1-5.487.271-11.324,1.292-18,1l-8-1v1c-6.272,1.693-17.89-.524-23-1l-5-6h-1v-2l-3-2v-2l-3-2v-2l-4-3v-2l-5-4v-2l-6-5-1-3-3-2v-2l-4-3v-2l-4-3-1-3-2-1v-2l-3-2v-2l-3-2v-2l-4-3c-2.207-3.038-1.126-4.373-6-5-2.834,3.336-7.239,4.507-11,6.993l-1,2-4,1-1,2h-2v1l-3,2v2h-1c-0.126,13.862-.076,28.881,2,39.963l5,1v1c7.512,2.394,20.071-2.95,25,2h1v3c0.3,1.38.814-.4,1,1h-1l-1,3H508c-1.382-2.61-1.769-1.692-2-6,2.612-1.381,1.693-1.767,6-2v-1h18s0.191-.691,2-1c1.6-4.289,1.049-12.109,1-17.983,2.121-2.428,1-10.751,1-14.986V83.92c0.145-11.891,3.256-31.366,0-42.96V26.973c-0.752-2.49-2.389-5.161-3-7.992-2.876-.665-2.53-1.8-3-2H516l-11-2a12.669,12.669,0,0,1-1-5c1.139-1.138.4,0,1-2,3.809-1.421,10.65-1.047,16-1,2.9-2.471,11.562-.687,16-2v-1l10-1C552.59,1.218,557.494-.857,565-1ZM1566,7.991l24-2v-1h5v-1h5V3h4V2h5V1l15-2a19.115,19.115,0,0,1,1,6.993h-1v5.994c-2.27,7.7-2,17.907-2,27.974q-0.495,30.968-1,61.942c0,9.273-.39,20.264,1,27.974a15.688,15.688,0,0,0,6,1c1.57-1.8,1.95-.875,4-2v-1h2v-1h2l2-2h2c0.33-.666.67-1.332,1-2h2l2-2h2v-1h2v-1h2v-1l6-2v-1h3v-1h2v-1l9-2v-1h6v-1h6v1h8v1h4v1h3v1h3v1l6,2v1l4,1c0.67,1,1.33,2,2,3h2c1.33,1.664,2.67,3.33,4,5q4.5,4,9,7.992v2c0.67,0.333,1.33.666,2,1v2c0.67,0.333,1.33.666,2,1,0.33,1.332.67,2.664,1,4,0.67,0.333,1.33.666,2,1,0.33,1.665.67,3.331,1,5h1c0.33,1.331.67,2.664,1,4h1l3,12.988h1v4h1v5.994h1v9.991c0.41,1.5,1.85,5.975,1,8.992h-1v8.991q-2.505,8.991-5,17.984h-1c-0.67,2-1.33,4-2,5.994h-1c-0.33,1.332-.67,2.664-1,4-0.67.333-1.33,0.666-2,1v2c-0.67.333-1.33,0.667-2,1v2l-3,2v2l-6,5c-1.67,2-3.33,4-5,6h-2c-0.67,1-1.33,2-2,3l-4,1c-0.33.666-.67,1.332-1,2h-2v1h-2v1h-3v1h-2v1h-3v1h-3v1h-3v1h-5v1c-3.43,1.047-25.46,2.3-30,1v-1h-6v-1h-4v-1h-4v-1h-4v-1h-3v-1h-3c-7-2.765-12.49-6.766-22-6.993l-6,7.992c-3.04,6.609,1.23,12.9-9,12.988-2.51-6.773-1.05-19.4-1-27.974,2.12-2.43,1-10.749,1-14.986V84.919c0-20.767,1.27-45.322-2-62.941l-3-2v-1h-2v-1h-9v-1c-3.95-1.121-9.43,1.276-12-1h-1V9.989C1566.14,8.851,1565.4,9.985,1566,7.991Zm-90,226.788c0.33,1.332.67,2.665,1,4h-1c-0.33,1.665-.67,3.33-1,4.995h-1v2c-0.67.333-1.33,0.666-2,1l-3,8.992h-1v2h-1v3h-1c-1.19,2.848.25,3-2,5v1h-45c-1.95-1.694-7.46-1-11-1h-28c-36.91,0-78.32.666-112,0-1.64-3.095-1.9-1.794-2-6.994,2.94-1.707,2.86-2.888,8-3,6.65-5.465,23.22,5.927,24-7.993,2.34-2.654,1-12.412,1-16.984V184.826q0.495-46.951,1-93.913c0-13.032,2.07-33.054-1-43.959V29.97h-1V22.977h-1v-4h-1v-2h-1v-2l-3-2v-1h-21v-1l-5-1a12.616,12.616,0,0,1-1-5c1.14-1.138.4,0,1-2,2.01-.367,2-1,2-1h5V1c3.52-1,6.59.792,9,1h72l18-1V2h10a19.115,19.115,0,0,1,1,6.993l-3,1c-2.87,2.614-10.45,1.995-16,2-9.63.006-17.5,1.529-25,3a19.01,19.01,0,0,1-3,3V171.838c-2.09,2.294-1,17.234-1,21.98q1.005,21.976,2,43.959h1v4c1.5,4.382,3.21,8.8,7,10.99,3.76,3.8,28.75,2,37,2,20.37,0,41.59-.793,57-6l8-1q9.495-4,19-7.992v-1h2v-1A26.436,26.436,0,0,1,1476,234.779ZM87,12.986c-1.915,10.741-1,25.582-1,37.965v68.935l3,1c2.291,2.019,9.948,1,14,1l34,1v1c3.491,0.976,7.509-.032,10,1v-1c11.737-6.225,20.518-17.5,25-30.971q0.5-7.492,1-14.986h1q-0.5-7.992-1-15.985h-1v-4h-1q-0.5-3.5-1-6.994h-1v-2h-1v-3h-1q-0.5-2-1-4h-1q-0.5-2-1-4l-2-1v-2l-2-1v-2l-3-2v-2l-4-3-4-5h-2l-1-2h-2C135.068,12.089,130.207,9,115,8.99H98v1H93v1H90v1ZM1533,40.96a40.146,40.146,0,0,1,9,1c0.94,1.8,1.38,1.573,2,4h1c1.43,2.407-1.45,11.945-2,12.988h-1v2h-1v2h-1c-1.65,2.018-1.9,3.262-5,4-3.26,3.521-12.79,1.151-14-4h-1V55.946h1v-3h1c0.33-1.332.67-2.664,1-4,1.67-1.332,3.33-2.664,5-4,0.33-.666.67-1.332,1-2C1530.69,41.806,1531.24,42.9,1533,40.96ZM298,106.9h19v1l8,1v1l6,1v1l5,1v1l4,1v1l4,1v1l3,1,1,2h2l1,2h2l2,3h2l5,5.994,5,4v2l4,3v2c2.72,4.013,6.37,6.528,7,12.988l-3,1v1l-7,1v1h-5v1h-4v1h-5v1h-5c-10.21,3.183-23.441,3.938-34,6.994h-8v1h-8v1h-9v1H279v1H268v1h-2l-1,3c-1.829,2.045-1.171,9.228-1,12.988l3,17.984h1v3h1v2h1q0.5,2.5,1,5l2,1,1,4,2,1v2l4,3,6,6.994h2l1,2h2l1,2,4,1v1l6,2v1h3v1h3v1h4v1h4v1h6v1c5,1.4,19.424.029,23-1h7l24-7.992c0.945,1.8,1.385,1.573,2,4h-1c-2.725,4.542-8.575,6.074-13,8.992-14.644,9.656-43.439,22.208-69,13.987l-8-1c-21.759-7.79-37.685-21.736-46-42.96v-4h-1v-3h-1V212.8h-1v-6h-1c-1.36-4.8-.012-25.487,1-28.973v-5.994c6.912-23.023,13.409-38.5,31-50.952l2-3h2l1-2,16-6.993C292.663,107.864,296.059,108.615,298,106.9Zm444,0h19v1l8,1v1l6,1v1l5,1v1l4,1v1h2l1,2,4,1v1l3,1,1,2h2l3,4h2l6,6.993,2,1v2l4,3v2l3,2c1.8,2.6,4.635,8.247,5,11.989l-3,1c-2.272,2.021-4.767.9-8,2v1h-4v1h-4v1h-5v1h-5c-12.637,3.94-28.836,4.211-42,7.993h-8v1h-9v1H723v1H712v1h-2l-1,3c-1.806,2.02-1.023,8.312-1,11.989a57.821,57.821,0,0,0,7,26.975q0.5,2,1,4l2,1v2l2,1v2l4,3,6,6.994h2l2,3,4,1v1h2v1l6,2v1l9,2v1l11,1c3.534,1,18.061,2.43,23,1v-1h6v-1h5v-1h4c5.292-1.892,9.522-5.258,16-5.994a12.668,12.668,0,0,1,1,5l-4,2-1,2h-2l-1,2h-2l-1,2-4,1-1,2-4,1v1l-6,2v1h-3v1h-2v1h-3v1h-3v1h-3v1h-3v1l-9,1v1h-9c-13.671.013-22.616-1.252-32-5l-12-4-1-2-4-1-2-3h-2l-4-5c-9.7-7.233-15.793-19.391-20-31.971v-5h-1v-5h-1v-10.99h-1q0.5-10.489,1-20.981h1v-5.994l7-21.98h1v-2l2-1,2-5.994,2-1v-2l15-15.985h2l2-3h2l1-2,16-6.993C736.661,107.864,740.061,108.616,742,106.9Zm187,67.936c-0.75,3.778-3.5,8.672-2,13.987h1v9.991h1v5h1v4h1v3h1v3h1v2h1q1,3,2,6l2,1v2l3,2v2l2,1,4,5h2l3,4,4,1,1,2h2v1l4,1v1h3v1h2v1l7,1v1h4c4.239,1.334,22.48,3.865,29,2v-1l12-1v-1h3v-1h3v-1h3v-1h3c2.78-1.218,2.49-2.455,7-3,0.94,1.8,1.38,1.573,2,4h-1c-2.58,4.415-6.83,5.242-11,7.993-0.33.666-.67,1.332-1,2l-4,1v1h-2v1l-4,1c-10.81,5.747-22.342,10.974-39,10.99H965v-1l-11-1v-1h-3v-1h-3v-1h-3v-1h-3v-1h-2v-1l-6-2-1-2h-2c-4.021-2.677-7.618-6.6-11-9.991l-4-3v-2l-3-2v-2l-2-1-1-4h-1l-2-5.994h-1q-1-4.5-2-8.992h-1v-4h-1v-4h-1q-0.5-15.484-1-30.971l6-25.976h1q0.5-2,1-4h1v-2h1v-2h1v-2l2-2v-2l2-1v-2l2-1v-2l4-3v-2l6-5,1-2h2l3-4h2l1-2h2l1-2,9-3v-1h2v-1l7-1c23.677-7.848,48.71,6.437,62,15.985q4,4.5,8,8.991c3.38,3.386,7.33,6.969,10,10.99v2c0.67,0.333,1.33.666,2,1,1.47,2.346,1.84,4.514,2,7.993l-3,1c-2.24,2.12-12.42,3.822-16,5h-4v1h-5c-12.71,3.966-28.8,4.2-42,7.993h-8v1H953v1H942v1H931v1h-2Zm646,88.917c-2.12.384-6.27,1.537-8,2-3.14.835-4.74-.808-7-1h-55l-12,1v-1h-5c-1.64-3.1-1.9-1.794-2-6.994,6.09-3.163,18.79-2.073,28-2,4.09-7.981,2-25.577,2-36.966V133.873q-1.995-5.993-4-11.988c-3.19-4.53-17.72-2.944-24-4a15.691,15.691,0,0,1-1-5.994h1v-1h5v-1h37v-1h6v-1c3.03-.872,5.57.056,8-1v1c2.16,1.418,2.01,2.363,2,5.994h1v6.994c-2.13,7.814-1,20.447-1,29.972q-0.495,43.455-1,86.919h1v7.992h1c0.33,2,.67,4,1,6a20.9,20.9,0,0,1,3,3h16v1h6C1574.34,258.281,1574.99,259.261,1575,263.752ZM443,130.876a22.859,22.859,0,0,0,10-4l2-3h2l1-2h2l1-2,3-1v-1h2v-1l6-2v-1l6-1v-1h4v-1h6v1h4v1h2v1h3v1h2l1,2h2l8,8.992c0.33,8.247-1.741,10.953-4,15.985v3h-1c-0.628,1.234-.96,4.438-2,5h-4c-2.2-3.91-11.679-12.28-16-13.987h-4c-13.33-4.229-29.227,2.2-34,9.99-2.879,4.7-2,13.6-2,20.981V211.8c0,11.129-2.625,37.979,4,41.961,4.078,3.895,20.644,1.16,27,3h7v1h1v5.994c-6.528,2.414-18.694,1.051-27,1-3.3-2.906-14.639-.536-20-1-1.875-.162-2-1-2-1-3.961-1.092-8.282.767-11,1l-33,1a19.14,19.14,0,0,1-1-6.994c1.135-.843.145,0.127,1-1l23-1c4.194-8.186,2-26.338,2-37.965V129.877h-1v-5a21.939,21.939,0,0,1-5-4l-21-1c-0.769-4.2-.436-4.555,0-8.991l12-1c3.706,1.019,25.014,2.41,30,1a49.551,49.551,0,0,1,12-2C443.74,114.142,443.079,122.773,443,130.876ZM2011,250.765v3q-4.995,4.5-10,8.991c-0.33.666-.67,1.333-1,2h-2c-0.67,1-1.33,2-2,3h-2v1c-1.24.96-1.94,0.71-3,2-5.1-.107-10.95-1.873-14-4l-3-4h-2c-1.67-2-3.33-4-5-5.994-0.67-.333-1.33-0.666-2-1v-2l-3-2v-2l-3-2c-2.35-3.3-.61-4.218-6-5-1.77,2.706-4.35,3.125-7,5-0.67,1-1.33,2-2,3h-2c-0.67,1-1.33,2-2,3h-2c-0.33.666-.67,1.332-1,2h-2c-0.33.666-.67,1.332-1,2l-4,1c-0.33.666-.67,1.332-1,2h-2v1l-4,1v1h-3v1h-2v1l-6,1v1h-4c-2.87.924-10.37,3.31-15,2v-1l-9-1v-1q-3-1-6-2l-6-7.993v-3h-1q-0.495-7.493-1-14.986h1v-6.994h1v-4h1v-3h1v-2h1v-3c0.67-.333,1.33-0.666,2-1,0.33-1.332.67-2.664,1-4l3-2v-2c1.33-1,2.67-2,4-3l6-6.994h2c0.33-.666.67-1.332,1-2l3-1v-1l6-2v-1h2v-1l6-2v-1h3v-1h2v-1l6-1v-1h3v-1h3v-1h3v-1h3v-1h3v-1l7-1v-1l7-1c0.33-.665.67-1.332,1-2,0.67-.333,1.33-0.666,2-1V139.868l-3-8.992h-1c-1.33-1.665-2.67-3.33-4-5-1.67-1.154-2.27-.013-4-2-7.08-.429-17.03-2.04-24,0h-6c-3.86,1.277-7.76,4.032-12,4.995,0.35,11.938-4.25,28.789-13,30.971v1h-7c-2.37-4.069-3.07-3.751-3-10.989h1c0.33-2,.67-4,1-6h1c0.33-1.332.67-2.664,1-4h1v-2c0.67-.333,1.33-0.666,2-1v-2l3-2v-2q3.495-3,7-5.994c0.33-.666.67-1.332,1-2h2c0.67-1,1.33-2,2-3h2c0.33-.666.67-1.332,1-2h2v-1l6-2v-1l9-2v-1l13-1v-1c3.24-.9,8.28.515,10,1h9v1h4v1l9,2,12,8.992v2c0.67,0.333,1.33.666,2,1,0.33,1.332.67,2.664,1,4h1v2h1c2.38,6.006,1,16.368,1,23.978V208.8c0,7.351-1.29,17.2,1,22.978h1c0.67,2,1.33,4,2,5.995,0.67,0.333,1.33.666,2,1C1993.15,244.171,2002.31,249.055,2011,250.765Zm-915-128.88c-0.33,1.332-.67,2.664-1,4h-1c-0.99,2.868.55,7.612,1,8.992,0.67,3.329,1.33,6.66,2,9.99h1c0.33,1.332.67,2.664,1,4h1v3h1v2h1c0.33,1.332.67,2.664,1,4h1v3h1v2h1c0.33,1.332.67,2.665,1,4h1v3h1c0.33,1.332.67,2.664,1,4h1v3h1c0.33,1.332.67,2.665,1,4h1v3h1c0.33,1.332.67,2.664,1,4h1v3h1v2h1c0.33,1.664.67,3.33,1,5h1v3h1v2h1v3h1v2h1v3h1v2h1v3h1c0.67,2,1.33,4,2,6h1v2h1a8.5,8.5,0,0,1,2,4h3v-1h1v-1h1v-2h1v-2h1v-2h1v-3h1v-3h1v-2h1v-3h1c0.33-2,.67-4,1-6h1v-3h1v-3h1v-3h1v-3h1v-3h1c0.33-2,.67-4,1-5.994h1c0.33-2,.67-4,1-6h1c0.67-3,1.33-5.994,2-8.991h1v-3h1v-3h1v-3h1v-3h1v-3h1c0.67-3.33,1.33-6.661,2-9.991h1v-4h1V122.884c-1.16-.6-1.55-1.727-2-2h-2v-1c-6.11-2.306-16.26,2.461-21-2h-1v-5c1.14-1.138.4,0,1-2h4v-1l27,1h14v-1h18a19.109,19.109,0,0,1,1,6.993,58.093,58.093,0,0,1-13,4q-1.5,2.5-3,5h-1v2l-2,2v2h-1v2c-0.67.333-1.33,0.667-2,1-0.33,1.664-.67,3.33-1,5h-1v2h-1v2h-1c-0.67,2-1.33,4-2,6h-1v3h-1c-0.33,1.332-.67,2.664-1,4h-1v3h-1c-0.33,1.332-.67,2.665-1,4h-1v3h-1v2h-1v3h-1c-0.33,1.332-.67,2.664-1,4h-1v3h-1v2h-1c-0.33,1.665-.67,3.33-1,4.995h-1v3h-1v2h-1v3h-1v2h-1v3c-16.13,35.7-29.88,74.182-48,107.9v2h-1v2h-1v2h-1v2h-1v2h-1c-0.67,2-1.33,4-2,6h-1c-0.67,2-1.33,4-2,5.994h-1c-0.33,1.332-.67,2.664-1,4h-1c-0.33,1.332-.67,2.665-1,4h-1v2h-1v2h-1v2h-1v2h-1v2h-1v2h-1v2h-1v2h-1v2h-1v2h-1c-0.33.666-.67,1.332-1,2h-2c-0.33.666-.67,1.332-1,2h-4c-2.65,2.439-6.86.788-11,2-5.27,1.54-21.34,7.628-27,2h-1v-3q5.505-2,11-4v-1h2v-1h2c0.33-.666.67-1.332,1-2l4-1,3-4h2l3-4h1v-2c1.33-1,2.67-2,4-3v-2l3-2v-2c1.33-1,2.67-2,4-3v-2c0.67-.333,1.33-0.666,2-1v-2l3-2c0.33-1,.67-2,1-3,0.67-.333,1.33-0.666,2-1v-2c0.67-.333,1.33-0.666,2-1v-2l3-2v-2c0.67-.333,1.33-0.666,2-1,0.33-1,.67-2,1-3h1v-2c0.67-.333,1.33-0.666,2-1v-2c0.67-.333,1.33-0.666,2-1v-2c0.67-.333,1.33-0.666,2-1v-2c0.67-.333,1.33-0.666,2-1,0.33-1.332.67-2.665,1-4,0.67-.333,1.33-0.666,2-1,0.33-1.332.67-2.664,1-4,0.67-.333,1.33-0.666,2-1v-2l2-2v-2h1v-2c1.02-1.952,4.26-5.874,3-9.99h-1v-3h-1v-2h-1c-0.33-2-.67-4-1-5.994h-1c-0.33-1.665-.67-3.331-1-5h-1c-0.33-1.332-.67-2.665-1-4h-1v-3h-1v-2h-1c-0.33-1.665-.67-3.331-1-5h-1v-3h-1c-0.33-1.332-.67-2.664-1-4h-1v-3h-1c-0.33-1.332-.67-2.664-1-4h-1c-0.33-1.665-.67-3.331-1-5h-1v-3h-1c-0.33-1.332-.67-2.664-1-4h-1v-3h-1c-0.33-1.332-.67-2.665-1-4h-1v-3h-1c-0.33-1.332-.67-2.664-1-4h-1v-3h-1c-0.33-1.332-.67-2.665-1-4h-1v-3h-1c-0.33-1.332-.67-2.664-1-4h-1v-3h-1v-2h-1v-3h-1c-0.33-1.332-.67-2.664-1-4h-1v-3h-1c-0.33-1.332-.67-2.665-1-4h-1v-3h-1c-0.33-1.332-.67-2.664-1-4h-1v-3h-1c-0.33-1.332-.67-2.665-1-4h-1v-3h-1c-0.33-1.332-.67-2.664-1-4h-1v-3h-1c-0.33-1.332-.67-2.664-1-4h-1v-2h-1v-2h-1v-2l-2-2v-2c-0.67-.333-1.33-0.666-2-1-0.33-1-.67-2-1-3h-2c-2.43-2.485-8.01-2.108-13-2-0.68-3.8-.66-3.194,0-6.993l3-1c1.67-1.463,17.17-1.638,21-1,7.33,1.223,14.15,0,23,0h14v-1l13,1c1.34,2.52,1.99,3.5,2,7.992h-1v1A78.777,78.777,0,0,0,1096,121.885Zm704,8.991a15.221,15.221,0,0,0,9-3c0.67-1,1.33-2,2-3h2c0.33-.666.67-1.332,1-2h2c0.33-.666.67-1.332,1-2h2c0.33-.666.67-1.333,1-2l4-1c0.33-.666.67-1.332,1-2h3v-1h2v-1h3v-1c3.66-1.425,13.34-1.43,17,0v1h3q5.505,4,11,7.993v2h1c0.96,1.233.72,1.934,2,3,0.2,7.652-2.76,12.023-5,16.984-0.33,1.665-.67,3.331-1,5h-1c-1.33,1.507-.5,1.365-3,2-1.54-2.468-2.81-1.514-4-3v-2c-0.67-.333-1.33-0.666-2-1-0.67-1-1.33-2-2-3h-2c-0.67-1-1.33-2-2-3l-4-1v-1h-2v-1h-5c-6.52-1.929-20.31.032-25,3-0.33.666-.67,1.332-1,2h-2l-2,2v2c-0.67.333-1.33,0.666-2,1-2.24,3.643-.68,7.255-2,11.989h-1V208.8c0,12.524-2.34,40.545,5,44.958v1h3v1h11l20,1a34.717,34.717,0,0,1,1,6.993c-5.78,2.14-16.51,1.051-24,1-3.85-3.389-14.31.567-20-1v-1h-18v1l-31,1a19.118,19.118,0,0,1-1-6.994h1v-1c6.74-.3,14.93-0.976,23-1,4.19-8.186,2-26.338,2-37.965V129.877c-2.27-2.521-.44-4.646-4-6.993-4.47-4.287-17.89.581-22-3h-1v-7.992c6.78-2.506,19.42-1.051,28-1,1.17,1.065,6.34,1.762,9,1,5.21-1.5,11.07-1.832,18-2,1.33,3.567,1.05,9.9,1,14.986h-1C1799.33,126.88,1799.67,128.878,1800,130.876Zm272,0h4c2.06-3.24,5.78-3.854,9-5.994,0.33-.666.67-1.332,1-2h2c0.33-.666.67-1.332,1-2h2c0.33-.666.67-1.333,1-2l4-1c0.33-.666.67-1.332,1-2l5-1v-1h2v-1h4v-1c3.11-.921,12.08.164,14,1v1h2v1l6,2c0.67,1,1.33,2,2,3h2l2,2v2c0.67,0.333,1.33.666,2,1,0.33,2.331.67,4.662,1,6.993h-1c-0.33,2.331-.67,4.663-1,6.994h-1v3h-1v2h-1c-1.18,2.242-2,4.819-3,6.994-2.01-.573-0.87.119-2-1-3.54-1-8.32-6.491-11-8.992-0.33-.666-0.67-1.332-1-2q-5.505-2-11-4c-3.4-1-9.12.451-11,1h-6v1h-4l-9,5.994c-5.61,7.684-5,20.568-5,33.968,0,24.814-2.03,54.364,2,75.93l3,1v1h3v1h10l20,1c1.38,2.61,1.77,1.691,2,5.994-1.14,1.139-.4,0-1,2l-61-2v1l-31,1a19.118,19.118,0,0,1-1-6.994h1v-1c6.5-.581,15.08-0.989,23-1,4.19-8.186,2-26.338,2-37.965V130.876h-1v-5c-0.03-.092-0.62.186-1-2l-3-1v-1h-2v-1c-6.5-2.375-17.91,3.759-20-3h-1c-0.91-1.719,1.73-6.843,2-6.993h27c1.17,1.065,6.34,1.762,9,1,5.21-1.5,11.07-1.832,18-2,1.16,3.1,1.05,8.426,1,12.988C2069.97,125.007,2071.48,128.417,2072,130.876Zm120,226.789-3,1v1h-3v1l-11,1c-4.11,1.25-17.24,6.665-23,5v-1l-6-1c-0.33-1-.67-2-1-3,8.84-3.808,17.6-7.656,25-12.988v-1c1.33-1,2.67-2,4-3v-2c1.33-1,2.67-2,4-3v-2c1.33-1,2.67-2,4-3v-2l3-2v-2l3-2v-2l3-2v-2c0.67-.333,1.33-0.666,2-1v-2l3-2v-2c0.67-.333,1.33-0.666,2-1,0.33-1,.67-2,1-3h1v-2l3-2v-2c0.67-.333,1.33-0.666,2-1v-2c0.67-.333,1.33-0.666,2-1,0.33-1.332.67-2.664,1-4,0.67-.333,1.33-0.666,2-1,0.33-1,.67-2,1-3h1c0.33-1.332.67-2.664,1-4,0.67-.333,1.33-0.666,2-1v-2l2-2v-2h1v-2h1v-2c1.21-2.32,4.52-6.179,3-10.989h-1v-3h-1v-2h-1v-3h-1v-2h-1c-0.33-1.665-.67-3.331-1-5h-1v-3h-1v-2h-1v-3h-1v-2h-1v-3h-1c-0.33-1.332-.67-2.665-1-4h-1v-3h-1c-0.33-1.332-.67-2.664-1-4h-1c-0.33-1.665-.67-3.331-1-5h-1v-3h-1c-0.33-1.332-.67-2.664-1-4h-1v-3h-1c-0.33-1.332-.67-2.664-1-4h-1v-3h-1c-0.33-1.332-.67-2.664-1-4h-1v-3h-1v-2h-1v-3h-1c-0.33-1.332-.67-2.665-1-4h-1v-3h-1c-0.33-1.332-.67-2.664-1-4h-1v-3h-1c-0.33-1.332-.67-2.665-1-4h-1v-3h-1c-0.33-1.332-.67-2.664-1-4h-1v-3h-1c-0.33-1.332-.67-2.665-1-4h-1v-3h-1c-0.33-1.332-.67-2.664-1-4h-1v-3h-1v-2h-1v-3h-1c-0.33-1.332-.67-2.664-1-4h-1v-3h-1v-2h-1v-2h-1v-2h-1v-2h-1c-2.14-3.947-2.1-7.69-7-8.991-5.78-4.678-12.83,4.664-13-7.993,0.67-.333,1.33-0.666,2-1,1.76-1.746,11.56-3.253,16-2,16.21,4.587,39.69-2.21,57,1a19.116,19.116,0,0,1,1,6.993l-3,1v1h-13s-0.19.693-2,1c-0.33,1-.67,2-1,3-2.78,2.907-.75,15.009,1,18.982h1v2h1v3h1c0.33,1.332.67,2.665,1,4h1v3h1c0.33,1.332.67,2.664,1,4h1v2h1v3h1c0.33,1.332.67,2.664,1,4h1v3h1v2h1c0.33,1.332.67,2.665,1,4h1v3h1v2h1v3h1c0.33,1.332.67,2.664,1,4h1v3h1v2h1c0.33,1.665.67,3.33,1,5h1v3h1v2h1v3h1v2h1v3h1v2h1v3h1v2c0.67,0.333,1.33.666,2,1,2.47,3.869.65,6.263,7,6.994,0.33-1,.67-2,1-3h1v-3h1c0.33-1.332.67-2.665,1-4h1v-3h1c0.33-2,.67-4,1-5.994h1c0.33-2,.67-4,1-6h1v-3h1v-3h1v-3h1v-3h1v-3h1v-3h1c0.33-2,.67-4,1-5.994h1v-2h1q1.5-6.492,3-12.987h1v-3h1v-3h1v-3h1v-3h1c0.33-2,.67-4,1-6h1v-4h1v-3h1V122.884c-0.67-.333-1.33-0.666-2-1-3.07-3.018-17.78-2.1-23-3a12.611,12.611,0,0,1-1-5c1.14-1.138.4,0,1-2,6.53-2.414,18.69-1.051,27-1,1.36,1.207,8.08,1.826,11,1,7.08-2.005,17.7-2.227,25-1a15.691,15.691,0,0,1,1,5.994c-1.02.576-1.63,1.777-2,2h-2v1h-7c-0.33.666-.67,1.333-1,2-1.33,1-2.67,2-4,3v2c-0.67.333-1.33,0.666-2,1-0.33,1.332-.67,2.664-1,4h-1v2h-1v2h-1v2h-1v2h-1c-0.67,2-1.33,4-2,5.994h-1v3h-1v2h-1v2h-1v2h-1v3h-1c-0.33,1.332-.67,2.664-1,4h-1v3h-1v2h-1v3h-1c-0.33,1.332-.67,2.664-1,4h-1v3h-1v2h-1c-0.33,1.664-.67,3.33-1,5h-1v3h-1c-0.33,1.332-.67,2.664-1,4h-1v3h-1v2h-1c-0.33,1.665-.67,3.33-1,5h-1v3h-1v2h-1v3h-1c-0.33,1.665-.67,3.33-1,5h-1v2h-1v3h-1c-0.33,1.332-.67,2.665-1,4h-1v3h-1v2h-1v3h-1c-0.33,1.665-.67,3.331-1,5h-1v2h-1v3h-1c-0.33,1.332-.67,2.664-1,4h-1v3h-1c-0.33,1.332-.67,2.665-1,4h-1v3h-1c-0.33,1.332-.67,2.664-1,4h-1v3h-1c-0.33,1.332-.67,2.665-1,4h-1v3h-1v2h-1v2h-1v2h-1v3h-1v2h-1c-0.67,2-1.33,4-2,5.994h-1v3h-1c-0.67,2-1.33,4-2,6h-1v2h-1v2h-1v2h-1v2h-1v2h-1v2h-1v3h-1c-0.67,2-1.33,4-2,5.994h-1v2h-1v2h-1v2h-1v2h-1q-3.495,7.99-7,15.985h-1v2h-1v2h-1v2h-1v2h-1v2h-1c-0.33,1.332-.67,2.665-1,4h-1A8.4,8.4,0,0,0,2192,357.665ZM299,114.891v1h-4v1l-6,2v1h-2l-2,3-5,4v2l-3,2-1,4c-4.847,7.676-9.832,17.73-10,29.972,2.232,0.841,5.438,1.028,9,1,2.827-2.346,8.785.215,13-1,11.524-3.32,25.788-3.663,37-6.994h6v-1c4.141-1.231,8.337.44,11-2h1V147.86c-1.99-1.757-.845-1.949-2-4h-1v-2h-1l-1-3-2-1v-2l-8-6.994C320.184,121.07,314.918,114.844,299,114.891Zm444,0v1l-7,1v1h-2l-1,2h-2l-2,3-6,5v2l-2,1-1,3h-1l-1,4c-3.9,7.259-7.919,15.9-8,26.975,2.232,0.841,5.438,1.028,9,1,2.827-2.346,8.785.215,13-1,11.559-3.33,25.7-3.639,37-6.994h6v-1c4.142-1.231,8.337.44,11-2h1v-6h-1q-0.5-2.5-1-5l-2-1v-2h-1v-2l-3-2v-2l-6-5C765.028,121.909,759.2,114.855,743,114.891Zm186,49.954c9.615,1.873,27.126-.359,36-3l12-1c8.977-2.693,20.491-4.127,30-5.994a27.889,27.889,0,0,0-5-14.986c-0.67-.333-1.33-0.666-2-1v-2l-4-3v-2l-6-5-1-2h-2q-1.5-2-3-4l-4-1-1-2h-2v-1h-3v-1l-12-1v1h-4v1h-2v1l-4,1-2,3h-2l-3,4h-1v2l-3,2q-0.5,2-1,4l-2,1q-1.5,4.494-3,8.991h-1v2h-1v3C931.242,153.308,929.231,158.7,929,164.845ZM92,130.876v1H89l-1,2H87v2H86v96.909h1v7.993h1v5.994h1l1,5,3,2v1l6,2v1h3v1l12,1v1c6.625,1.853,19.781-.629,24-2h4v-1h3v-1h2v-1h3v-1h2v-1h2l1-2h2l1-2h2l2-3,7-5.994v-2l2-1v-2l2-1,2-5.994h1v-2h1v-3h1v-3h1v-5h1V209.8h1c1.629-5.763-.678-24.069-2-27.974h-1v-4h-1v-2h-1v-3h-1v-2h-1v-2l-2-1q-0.5-2-1-4l-2-1v-2l-3-2v-2l-2-1-5-5.994h-2l-3-4h-2l-1-2h-2l-1-2-4-1v-1l-6-2v-1h-3v-1h-3v-1h-3v-1h-4v-1h-4v-1Zm1574,0c-2.47,2.078-7.24-.1-11,1v1l-10,1v1h-4v1h-3v1h-3v1h-3v1l-4,1v1c-3.65,1.971-3.43.436-6,4h-1v95.911h1v2h1q3,3.5,6,6.993l4,1c0.33,0.666.67,1.332,1,2h2v1h3v1h2v1l7,1c8.89,2.875,19.58,3.884,29,1h5v-1l6-1v-1l6-2v-1h2v-1l4-1v-1l3-1c0.33-.666.67-1.332,1-2h2c0.33-.666.67-1.332,1-2,1.33-1,2.67-2,4-3v-2c0.67-.333,1.33-0.666,2-1,0.33-1.332.67-2.665,1-4h1c0.33-1.332.67-2.664,1-4h1c3.72-8.518,7.62-33.978,4-45.957v-5C1713.5,156.686,1695.13,130.956,1666,130.876Zm287,55.948c-6.22-1.16-12.32.814-18,3h-3v1h-2v1h-3v1h-2v1h-3v1h-2v1h-2c-0.33.666-.67,1.332-1,2l-4,1c-0.33.666-.67,1.332-1,2h-2c-0.67,1-1.33,2-2,3h-2v1l-3,2v2l-3,2c-0.33,1.665-.67,3.33-1,5h-1v3h-1c-1.02,2.926-2.08,17.685,0,19.982,0.33,1,.67,2,1,3h1c1.78,2.564-1.08,1.91,3,3,5.09,6.012,25.55,5.151,32,2l4-1c0.33-.666.67-1.332,1-2h2c0.33-.666.67-1.332,1-2h2c1.33-1.665,2.67-3.331,4-5,0.67-.333,1.33-0.667,2-1v-2c0.67-.333,1.33-0.666,2-1,0.33-1.332.67-2.664,1-4h1V216.8C1954,206.932,1954.59,195.1,1953,186.824ZM213,308.711h30V316.7H222V330.69h19v7.993H222V352.67h23a39.611,39.611,0,0,0-1,7.992H213V308.711Zm86,47.955c0.315-3.831,1.713-5.239,3-7.993,7.029,3.293,11.367,6.523,20,3,1.091-2.447,1.813-3.223,2-6.994-1.139-1.138-.4,0-1-2-2.474-1.061-4.854-2.848-7-4h-2v-1h-2v-1l-4-1-6-6.993c-0.182-4.112-1.3-8.514,1-10.99a10.092,10.092,0,0,1,7-6.993c5.187-5.469,18.775.028,23,2-0.574,2.008.12,0.864-1,2-0.464,2.389-1.158,3.142-2,5-5.28-2.156-7.959-3.008-16-3-1.817,3.119-2.982,3.384-3,8.992l6,5,10,3,6,6.994c0.314,4.237,1.728,8.163-1,10.99a10.092,10.092,0,0,1-7,6.993c-1.9,1.981-.579,0-3,1v1h-4v1C311.747,363.378,303.518,357.739,299,356.666Zm192-47.955h13c2.219,0.724,4.217,2.367,7,3l4,4.995h1v2h1v2h1v3h1c4.558,12.942-1.707,32.562-11,34.967v1h-3c-7.579,3.14-9.974.909-18,0v-1l-3-1-3-4h-1l-1-4h-1v-2h-1v-3h-1v-5.994h-1V330.69h1V324.7h1v-3h1q0.5-2,1-4h1v-2l8-5.994h3v-1Zm40,0h30V316.7H540V330.69h19v7.993H540v21.979h-9V308.711Zm104,45.957a8.495,8.495,0,0,0-4,2v1l-4,1v1c-5.33,2.306-17.3,2.69-21-1-10.9-2.571-15.824-25.2-10-37.965l6-7.992h2v-1c1.228-.951,1.93-0.752,3-2l16-1c3.812,1.25,7.663,4.151,11,5.994-1.139,2.5-2.729,3.8-4,5.994l-4-1-1-2c-3.9-1.994-11.159-.7-15,0l-3,4h-1c-1.159,1.677.02,2.29-2,4q-0.5,5.994-1,11.989c0.864,3.177,2.33,7.714,3,10.989,2.128,1.211,2.177,2.251,5,3,1.137,1.157,5.883,2.989,9,2v-1h3v-1h2v-1h2c0.407-.247,2.5-3.235,4-3v1A9.231,9.231,0,0,1,635,354.668Zm51,5.994h-9v-1h-1c-0.41-4.826-2.432-6.343-3-10.99H652l-4,11.989h-8c0.47-6.237,3.969-12.323,6-16.984v-3h1v-3h1v-3h1v-3h1v-2h1q0.5-3,1-5.994c1.777-4.445,4.312-8.358,5-13.987,4.042,0.084,8.37,0,11-1v2h1q0.5,3,1,5.994h1v3h1v2h1v3h1v3h1q1,4.5,2,8.991h1v2h1v3h1q1,4.5,2,8.991h1v2h1A44.365,44.365,0,0,1,686,360.662Zm67-51.951h29c0.875,2.313,1.017,4.4,1,7.992H762V330.69h19v6.994c-4.537,1.687-12.853,1.048-19,1v21.979h-9V308.711Zm51,0c10.917-.364,21.964.9,24,8.991,7.584,6.394,4.937,28.688,0,35.967h-1l-3,4h-2v1c-2.044,1.157-2.227.021-4,2l-11,1-9-3-5-5.994h-1l-1-4h-1c-3.569-8.18-2.142-25.815,2-31.97l7-5.994,5-1v-1Zm-763,1h9v27.974q0.5,5.992,1,11.988l3,2c1.892,1.954,5.046,2.045,9,2,2.247-2.5,3.836-.96,5-5,1.709-1.923,1-7.466,1-10.989V309.71H79c0.339,16.207,3.327,45.764-9,48.954-2.6,2.787-14.752,4.1-18,1-4.229-.791-8.012-3.981-9-7.992-2.522-2.535-2-7.916-2-12.988V309.71Zm50,0h9l1,3,2,1v2l2,1q0.5,2,1,4l2,1v2l2,1v2h1v2l2,1q0.5,2,1,4l2,1a20.033,20.033,0,0,1,3,6.994h1V309.71h10v49.953c-2.232.841-5.438,1.028-9,1l-20-32.969h-1v32.969H91V309.71Zm51,0h9v50.952h-9V309.71Zm18,0h9c0.844,1.133-.127.145,1,1,0.41,5.7,3.228,10.545,5,14.986,3,7.531,4.02,15.6,7,22.978h1c0.128-4.624,1.768-6.894,3-9.99v-3h1v-3h1v-3h1v-3h1v-3h1v-3c1.391-3.485,3.42-6.513,4-10.989h9l-17,50.952H177c-0.844-1.133.127-.145-1-1-0.362-4.8-2.566-8.388-4-11.989q-1-4.5-2-8.991h-1v-2h-1q-1-4.494-2-8.991C163.864,322.341,160.8,316.3,160,309.71Zm96,0h23v1l5,1c1.864,3.073,7.334,8.337,6,13.987h-1v5h-1a10.093,10.093,0,0,1-7,6.994q6,11.487,12,22.978H283c-1.275-3.118-8.987-19.019-11-19.981h-7v19.981h-9V309.71Zm88,0h9v50.952h-9V309.71Zm19,0h36q-0.5,4-1,7.992H385v42.96h-9V317.7H363V309.71Zm42,0h10c1.543,7.862,7.244,12.771,9,20.98,1.135-.843.145,0.127,1-1,2.349-2.079,2.419-5.032,4-7.993h1v-2c1.7-3.194,4.067-5.777,5-9.99h10c-0.753,3.543-2.623,4.489-4,6.993q-0.5,2-1,4h-1l-1,4-2,1v2l-2,2v2h-1v2l-2,1v2h-1v22.979c-2.437.917-6.193,1.036-10,1V337.684h-1v-2h-1v-2h-1v-2l-2-2v-2l-2-1v-2h-1v-2l-2-2v-2l-2-1v-2h-1Zm288,0h9v42.96h22a34.151,34.151,0,0,1-1,7.992H693V309.71Zm39,0h10v49.953c-2.437.917-6.193,1.036-10,1V309.71Zm108,0h23v1l5,1,5,6.993c0.334,9.752-.563,17.139-8,18.983,0.735,3.081,2.728,4.627,4,6.993q0.5,2,1,4h1l1,4,2,1v2h1q0.5,2.5,1,5h-9c-1.6-3.323-8.706-18.883-11-19.981h-7v19.981h-9V309.71Zm53,0,1,3h1v2h1v2l2,1v2l2,1v2h1v2l2,1q0.5,2,1,4l2,1v2l2,1,1,4,2,1,1,3h1V309.71h9v50.952h-8c-0.664-1.268-1.583-1.37-2-2v-2l-2-1q-0.5-2-1-4l-2-1v-2l-2-1-1-3h-1q-0.5-2-1-4l-2-1v-2l-2-1q-0.5-2-1-4l-2-1-1-3h-1v30.971c-2.437.917-6.193,1.036-10,1V310.709C885.437,309.792,889.193,309.673,893,309.71Zm40,0h9v50.952h-9V309.71Zm45,0,17,50.952h-9l-4-11.989H961l-4,11.989h-8c0.275-3.757,1.937-5.357,3-7.992q1-4.5,2-8.992h1v-2h1q0.5-3,1-6h1q0.5-3,1-5.994h1v-2h1v-3h1v-3q2.5-5.993,5-11.988h11ZM493,316.7v1h-2l-2,3h-1c-2.605,3.884-5.24,20.547-1,24.977,0.671,2.917,1.365,2.356,3,4l2,3h3c4.293,1.568,5.715-.036,10-1,1.5-2.691,4.016-5.9,5-8.992,2.045-6.43-1.158-16.849-2-20.981l-6-5h-9Zm313,0c-2.212,2.618-4.947,3.006-6,6.994-1.587,1.484-3.6,15.754-2,19.981h1v2h1c1.765,3.31.871,4.953,5,6,1.741,1.8,4.394,1.992,8,2v-1h3l4-5c2.037-1.963,4.811-14.483,3-19.981-0.73-2.217-2.357-4.218-3-6.994a21.864,21.864,0,0,1-5-4h-9Zm-541,1v14.986c5.707,0.132,9.395-.5,13-2,1.335-2.983,2.008-5.045,2-9.991a6.713,6.713,0,0,1-3-3H265Zm584,0v14.986c5.707,0.132,9.395-.5,13-2,1.335-2.983,2.008-5.045,2-9.991a6.713,6.713,0,0,1-3-3H849ZM655,341.68h15a38.964,38.964,0,0,0-2-7.993h-1v-2h-1v-3h-1v-3h-1q-0.5-3-1-6h-1v1h-1Zm309,0h15l-7-21.98c-1.139,1.139-.4,0-1,2h-1Z"/>
</svg>
