<?xml version="1.0" encoding="UTF-8"?>
<svg xmlns="http://www.w3.org/2000/svg" version="1.1" width="542" height="50" viewBox="0 0 542 50">
  <!-- Generator: Adobe Illustrator 29.7.1, SVG Export Plug-In . SVG Version: 2.1.1 Build 8)  -->
  <defs>
    <style>
      .st0 {
        isolation: isolate;
      }

      .st1 {
        fill-rule: evenodd;
      }

      .st2 {
        fill: #1313eb;
      }
    </style>
  </defs>
  <g id="New_UCB_Library_Logo_1" class="st0">
    <g id="New_UCB_Library_Logo_11" data-name="New_UCB_Library_Logo_1">
      <path class="st1" d="M320.3,14.72c-1.34-.32-3.13-.17-4.24.26-1.36.53-2.72,1.46-3.57,2.52-.27.32-.54.65-.8.97V7.56c.19-1.25.24-3.56-.04-4.59-.22-.15-.34-.23-.76-.22-1.6.95-4.68.8-6.65,1.37-.16.23-.35.67-.13,1.02.53,1.06,2.97.43,3.52,1.5.41.79.13,5.03.13,6.31v15.32c-.06,2.44-.12,4.89-.18,7.33-.1.67-.25,1.91.18,2.21.98.92,2.7-1.82,2.99-2.38h.09c1.02.77,2.01,1.56,3.39,1.99,6.83,2.12,11.76-3.3,13.03-8.17.36-1.38.69-3.42.4-5.12-.84-4.92-2.69-8.3-7.36-9.4ZM314.67,35.2c-1.39-.49-2.05-1.37-3.03-2.21v-12.19c.34-1.04,2.49-2.49,3.57-2.91.52-.12,1.04-.24,1.56-.35,10.74-.09,8.45,21.36-2.1,17.66ZM119.16,15.07c-3.49,2.03-5.13,5.24-5.89,10.02-.23,1.42.06,3.08.31,4.15,1.18,5,4.05,7.72,9.46,8.57,3.75.58,6.71-1.47,8.52-2.91.53-.42,1.93-1.46,1.52-2.43-.23-.59-.97-.62-1.52-.31-1.61.94-3.78,2.36-6.6,1.85-4.18-.74-6.77-4.02-6.69-8.92,1.47-.24,2.94-.47,4.42-.71,2.39-.51,4.74-.81,7.01-1.37,1.03-.25,3-.29,3.52-1.06.51-.76-.5-2.84-.8-3.36-2.23-3.78-8.08-6.54-13.25-3.53ZM127.9,20.63c-.63.43-1.55.49-2.41.71-2.22.56-4.66,1.12-7.05,1.41.08-2.52,1.44-4.93,3.12-5.92.5-.3,1.08-.28,1.7-.53,2.36-.03,5.33,2.04,4.64,4.33ZM381.73,14.67c-2.08.52-3.54,2.41-4.64,3.93-.28.41-.57.82-.85,1.24v.09c-.52-1.33.51-4.12-.09-5.25-.13-.28-.36-.33-.8-.31-1.77.95-4.88.51-6.69,1.41-.84,2.24,2.91,1.14,3.48,2.52.42,1.01-.02,2.95.13,4.19v9.09c-.16,1.04.28,2.58-.22,3.31-.42.62-2.21.7-2.94.97-.15.21-.4.58-.22.97.31.79,1.81.52,2.81.49,2.07-.07,4.52-.26,6.56.04.95.14,1.78-.02,2.19-.44v-.71c-.58-1.31-3.76-.17-4.19-1.68-.03-3-.06-6-.09-9.01v-3.4c.29-.77,2.73-3.13,3.48-3.58,1.15-.68,2.58-.36,3.48.31.27.2.87,1.07,1.52.79.29-.13,1.6-2.78,1.7-3.27.25-1.3-3.16-2.08-4.6-1.72ZM69.72,28.09c-.33.81-.65,1.62-.98,2.43-1.3,2.18-3.31,3.63-6.11,4.33-7.22,1.79-12.28-3-14.14-7.64-3.33-8.27.27-17.62,6.51-20.22,1.45-.6,3.72-1.3,6.02-.93,3.51.56,5.73,1.48,7.27,3.93.45.71,1.06,3.2,2.45,2.65.83-.33,1-5.29.4-6.18-.5-.74-1.59-1.08-2.45-1.46-2.69-1.15-5.75-1.79-9.73-1.72-.54.04-1.07.09-1.61.13-1.27.22-2.51.4-3.66.75-4.15,1.29-7.62,3.75-9.73,7.06-.99,1.56-1.77,3.3-2.32,5.3-.43,1.54-.8,3.8-.49,5.74.22,1.38.18,2.54.54,3.71,1.67,5.52,5.3,9.41,10.8,11.13,1.84.58,3.77.58,6.02.93.76-.04,1.52-.09,2.28-.13,3.3-.53,5.73-1.16,8.08-2.52.98-.57,2.32-1.05,2.72-2.16.25-.68.3-4.12.04-4.81-.26-.7-1.41-.99-1.92-.31ZM299.46,10.39c3.04-.83,2.75-5.62-1.29-5.52-1.11.5-1.88.84-2.23,2.08-.63,2.26,1.4,4.03,3.52,3.44ZM39.65,3.86c-.92.03-1.84.06-2.77.09-1.76.26-4.58.16-6.25-.09-1.07-.16-2.35-.05-2.54.71-.59,2.28,4.08,1,4.51,2.78.03,3.13.06,6.27.09,9.4.01,1.47.03,2.94.04,4.41,0,6.59-1.07,10.72-5.98,12.41-1.02.35-2.63.75-4.1.53-.83-.13-1.67-.26-2.5-.4-6.88-2.06-5.98-9.41-5.98-18.1.03-2.21.06-4.42.09-6.62.09-.61-.12-1.37.09-1.85.64-1.46,4.11-.27,4.33-2.12.15-1.27-1.58-1.34-2.86-1.15-3.51.53-7.42-.02-11.02,0-.47.26-.8.33-.8,1.06,0,1.99,3.77.74,4.33,2.3.03,1.31.06,2.62.09,3.93.01,2.74.03,5.47.04,8.21,0,2.61-.27,5.57.18,7.9.9,4.76,3,7.96,7.01,9.62,1.33.55,2.82.8,4.46,1.06.58.01,1.16.03,1.74.04,1.49.22,3.45-.13,4.68-.49,1.99-.58,3.62-1.44,5.04-2.56,5.03-3.97,4.42-11.36,4.42-20.22.01-2.38.03-4.77.04-7.15.37-1.91,2.99-.75,4.1-1.85.59-.59.24-1.68-.49-1.85ZM411.85,15.42c-.28-.58-1.26-.52-2.14-.44-1.01.04-2.02.09-3.03.13-.69-.11-3.06-.33-3.57-.09-.33.16-.56.79-.31,1.24.51,1.03,2.84.35,3.17,1.59.25.94-1.03,3.24-1.34,3.97-1.08,2.6-2.08,5.19-3.17,7.73-.46,1.07-.92,2.15-1.38,3.22-.01.03-.03.06-.04.09-.39-.94-.77-1.88-1.16-2.83-.94-2.53-1.87-5.06-2.81-7.59-.48-1.35-.95-2.71-1.43-4.06-.41-2.13,3.98-.83,3.21-2.87-.1-.15-.21-.29-.31-.44-1.1-.27-3.03-.14-4.28.04-1.78-.06-3.57-.12-5.35-.18-.36.16-.54.21-.8.4-.4,1.71,1.28,1.29,2.23,1.9.67.43,1.06,1.44,1.38,2.21,2.42,5.97,4.85,11.95,7.27,17.92-.21,1.82-3.18,5.82-4.55,6.62-.88.52-2.38.42-3.3.97-.72.43-1.34,1.68-.71,2.65.47.73,1.83,1.13,3.08.79,1.82-.5,3.09-2.08,4.06-3.44,2.01-2.83,3.34-6.22,4.82-9.58,1.9-4.33,3.73-8.72,5.62-13.11.57-1.33,1.45-4.17,2.5-4.94.59-.44,3.15-.5,2.36-1.9ZM153.56,15.47c-.25-.82-3.2-2.13-4.73-1.85-2.42.44-3.85,2.56-5.04,4.24-.27.41-.54.82-.8,1.24v-5.34l-.27-.31c-.15-.01-.3-.03-.45-.04-1.48.71-3.61.79-5.35,1.1-1.06.19-2.22-.02-2.77.66-.49,1.98,2.03,1.35,3.08,2.08.7.48.38,2.02.54,3.05v9.18c-.04,1.66-.09,3.33-.13,4.99-.48,1.54-4.09,0-3.26,2.65.71.48,1.91.28,3.03.26,2.14-.03,4.48-.27,6.56.04,1.07.16,2.71.17,2.99-.53.83-2.05-3.41-1.21-3.88-2.38-.37-.92-.18-4.17-.18-5.43v-7.24c.34-.92,3.06-3.53,4.1-3.84,2.18-.65,3.33,2.13,4.46,1.72.34-.13,2.29-3.6,2.1-4.24ZM105.64,19.84c-.51-.21-1.01-.41-1.52-.62-.03-.01-.06-.03-.09-.04,3.47-1.38,6.02-7.46,3.21-11.43-2.33-3.31-6.78-4.09-12.58-4.02-.49.03-.98.06-1.47.09-2.32.36-5.19.13-7.58.04-1.01-.03-2.91-.4-3.39.31-1.36,2,3.46,1.93,4.15,2.96.67.99.09,4.31.31,5.78v13.16c-.01,1.66-.03,3.33-.04,4.99-.03.93-.06,1.85-.09,2.78-.44,1.68-2.72.78-3.97,1.63-.52.35-.53,1.46,0,1.81.56.37,1.83.13,2.68.13,2.19,0,4.52-.32,6.65,0,7.92,1.21,14.44-.27,17.53-4.9,1.71-2.56,1.97-6.61.22-9.36-.92-1.45-2.43-2.52-4.02-3.31ZM92.48,9.37c.21-1.34-.22-2.33.85-2.78.71-.3,1.75-.31,2.72-.31,4.8,0,7.72,3.32,6.42,8.43-.36,1.44-1.12,2.35-1.65,3.49-.37.24-1.46.03-2.14-.09-1.88-.32-4.2-.18-6.29-.18.03-2.85.06-5.71.09-8.57ZM102.16,33.61c-1.65,1.19-4.69,1.85-7.41,1.19-.77-.19-1.48-.3-1.87-.84-.54-.73-.22-1.85-.4-3-.03-2.3-.06-4.59-.09-6.89.01-1.18.03-2.35.04-3.53,4.58-.01,8.96.35,10.98,2.87,2.48,3.11,1.52,8.2-1.25,10.2ZM290.49,28.49c-.7.49-1.1,4.63-1.83,5.61-.67.9-1.94.57-3.35.79-1.12.03-2.23.06-3.35.09-1.19.19-4.66.21-5.76-.04-.52-.12-1.11-.38-1.38-.75-.85-1.13-.54-4.01-.54-5.87v-14.66c.18-1.46-.35-5.39.18-6.31.68-1.19,3.93-.33,4.24-1.77.24-1.12-1.13-1.27-2.19-1.1-3.17.51-6.75-.02-9.99,0-.31.17-.49.25-.71.49-.08.31-.11.63.04.88.57,1.15,3.73.18,4.24,1.68.03,2.69.06,5.39.09,8.08-.01,6.17-.03,12.33-.04,18.5-.38,1.85-5.09.64-4.37,2.69.35,1,4.6.44,5.98.44h13.97c1.13.01,2.26.03,3.39.04.74.12,1.61.31,2.36.09.36-.5.19-1.02.31-1.85.1-2.09.21-4.18.31-6.27-.07-.37-.26-.55-.45-.79-.34-.08-.87-.16-1.16.04ZM300.8,34.41v-14.88c0-1.22.36-4.63-.27-5.12-.18-.01-.36-.03-.54-.04-1.26.64-3.17.75-4.68,1.02-.81.14-1.88-.05-2.19.57-.75,1.53,2.61,1.46,3.3,1.94.63.44.3,1.95.45,2.87v9.85c-.03,1.31-.06,2.62-.09,3.93-.4,1.55-4.04.32-3.21,2.56.59.35,1.96.36,2.9.22,2.31-.34,5.53.49,7.5-.13.17-.23.4-.65.18-1.02-.58-1.17-3.05-.22-3.35-1.77ZM254.04,14.41c-1.16.03-2.32.06-3.48.09-.99-.15-2.41-.23-3.26.04-1.59,2.2,3.33,1.34,2.72,4.28-.3,1.44-.84,2.79-1.34,4.06-.91,2.31-1.63,4.57-2.59,6.8-.46,1.06-.92,2.12-1.38,3.18-.03.01-.06.03-.09.04-.59-1.49-1.19-2.97-1.78-4.46-.76-2.09-1.52-4.18-2.28-6.27-.34-.86-1.59-3.48-1.16-4.55.49-1.21,2.42-.96,3.17-1.9.32-1.28-.83-1.59-2.23-1.37-2.93.45-6.18-.03-9.19,0-.29.17-.48.22-.67.49-.41,1.64,1.25,1.35,2.1,1.99.67.51,1.04,1.79,1.38,2.6,2.6,6.47,5.21,12.95,7.81,19.43.06.5-.79,1.37-1.03,1.72-.82,1.21-1.73,2.37-3.17,2.96-1.38.57-2.96.5-3.79,1.59-1.2,1.58-.08,3.48,1.56,3.8,3.2.61,5.3-3.11,6.38-4.81,4.01-6.33,6.88-14.02,9.82-21.32.71-1.78,1.21-4.06,2.32-5.52.55-.73,1.58-.65,2.32-1.19.32-.23.54-.99.18-1.37-.33-.55-1.54-.34-2.32-.31ZM342.2,14.67c-2.08.52-3.55,2.4-4.64,3.93-.28.41-.57.82-.85,1.24v.09c-.52-1.33.52-4.12-.09-5.25-.13-.28-.36-.33-.8-.31-1.23.65-3.16.75-4.64,1.02-.77.14-1.69-.04-2.05.49-1.33,1.46,2.95,1.61,3.39,2.25.5.73.1,3.24.27,4.33-.01,3.08-.03,6.15-.04,9.23-.15,1,.21,2.21-.13,3.05-.42,1-4.1.55-3.21,2.21.34.68,1.87.44,2.81.4,2.05-.09,4.5-.26,6.51.04.95.14,1.78-.02,2.19-.44.06-.24.07-.61-.04-.79-.62-1.22-3.72-.1-4.15-1.59-.03-3-.06-6-.09-9.01v-3.4c.29-.77,2.73-3.13,3.48-3.58,1.16-.68,2.57-.36,3.48.31.28.2.87,1.08,1.52.79.29-.12,1.59-2.75,1.7-3.22.3-1.34-3.16-2.12-4.6-1.77ZM216.16,15.25c-3.61,2.23-4.84,5.28-5.62,10.33-.19,1.2.1,2.6.31,3.53,1.17,5.07,4.01,7.85,9.46,8.7,3.55.55,7.05-1.43,8.61-2.96.68-.67,1.83-1.36,1.34-2.65-.2-.12-.5-.35-.89-.26-.49.28-.98.56-1.47.84-.96.55-2.1.95-3.35,1.19-5.59,1.07-9.05-3.87-8.97-8.87,1.38-.22,2.77-.44,4.15-.66,2.41-.51,4.77-.81,7.05-1.37.94-.23,3.26-.44,3.7-1.06.57-.81-.5-2.95-.85-3.53-2.33-3.91-8.42-6.35-13.47-3.22ZM225.17,20.59c-.3.51-1.53.54-2.19.71-2.27.57-4.79.83-7.14,1.46h-.13c.37-2.66,1.36-4.89,3.3-6,.46-.26,1.02-.23,1.56-.44,2.18-.04,3.49,1,4.24,2.38.2.37.81,1.36.36,1.9ZM184.3,14.58c-3.62,1.55-5.79,4.84-6.69,9.09-1.35,6.36,2.18,11.62,6.2,13.33,4.98,2.12,11.35-.28,13.34-3.58.38-.63.07-1.71-.89-1.5-.55.31-1.1.62-1.65.93-1.55.89-4.31,1.62-6.6.93-3.41-1.02-5.63-4.28-5.58-8.7,1.31-.21,2.62-.41,3.93-.62,2.56-.53,5.08-.86,7.5-1.46,1.04-.26,2.99-.28,3.52-1.06.43-.63-.07-1.8-.31-2.38-1.68-4-7.12-7.4-12.76-4.99ZM192.11,20.5c-.29.61-1.52.6-2.23.79-2.24.6-4.84,1.26-7.27,1.46.17-2.54,1.39-4.88,3.12-5.92.5-.3,1.09-.29,1.7-.53,2.23-.04,3.41.98,4.24,2.34.23.37.78,1.26.45,1.85ZM176.4,35.16c-.36-.25-.71-.5-1.07-.75-1.63-1.6-2.81-3.68-4.15-5.56-1.04-1.53-2.08-3.06-3.12-4.59.73-.65,1.46-1.3,2.19-1.94,1.7-1.36,3.32-2.99,4.68-4.68.39-.49,2.03-1.88,1.52-2.83-.27-.58-1.26-.57-2.1-.44-1.85.29-6.21-.48-7.14.49-.45,2.19,2.6,1.1,3.03,2.56.32,1.08-1.19,2.54-1.65,3-2.29,2.28-4.8,4.39-7.67,6.09.01-5.78.03-11.57.04-17.35,0-1.62.41-5.99-.09-7.06-.2-.06-.45-.1-.76-.09-1.74.9-6.91.64-8.03,1.77v.75c.52,1.19,3.06.48,3.52,1.72.03.78.06,1.56.09,2.34.03,2.05.06,4.09.09,6.14-.03,6.47-.06,12.95-.09,19.43-.31,1.69-4.16.66-3.57,2.65.26.86,1.56.64,2.63.62,2.21-.03,4.69-.34,6.87,0,.87.14,2.41.15,2.77-.31,1.45-1.88-2.86-1.7-3.3-2.47-.33-.59-.13-4.22-.13-5.25,1-.65,1.99-1.3,2.99-1.94.03-.03.06-.06.09-.09,1.68,2.44,3.36,4.89,5.04,7.33.63.89,1.21,2.46,2.45,2.69,1.11.21,6.6.07,6.92-.35,1.13-1.54-1.29-1.54-2.05-1.85ZM364.38,31.93c-.34-1.45-.44-5.3-.18-6.98v-2.12c.21-1.29.21-3.18-.13-4.28-.9-2.93-3.42-4.02-7.36-3.97-.93.36-2.07.26-2.94.53-2.26.69-4.22,2.01-5.4,3.8-.61.92-1.36,3.05-.13,3.97,1.33.99,3.29.07,3.57-1.24.17-.82-.27-1.58,0-2.3.24-.64.83-1.21,1.38-1.55.55-.33,1.24-.57,1.92-.75,2.97-.79,4.84.59,5.31,2.91-.01,1.5-.03,3-.04,4.5-.89.24-1.78.47-2.68.71-3.52,1.06-7.34,2.16-9.1,4.94-.66,1.04-1,2.9-.54,4.41.89,2.87,4.69,4.22,8.08,2.78,1.22-.52,2.24-1.34,3.21-2.12.51-.53,1.01-1.06,1.52-1.59.44,1.78,1.51,3.96,3.17,4.5.92.3,3.35-1.42,3.35-2.3-1.32-1.37-2.44-1.58-2.99-3.89ZM351.8,32.77c-.8-3.45,4.16-5.18,6.51-5.92.67-.18,1.34-.35,2.01-.53.01.66.03,1.32.04,1.99.06,1.24.12,2.47.18,3.71-1.35,1.81-7.73,5.14-8.74.75ZM206.52,34.14c-.01-2.15-.03-4.3-.04-6.45V9.95c.01-2.55.03-5.09.04-7.64-.09-.09-.18-.18-.27-.26-.19-.01-.39-.03-.58-.04-1.38.69-3.98.8-5.67,1.1-.95.17-2.23-.05-2.45.84-.4,1.63,2.88,1.19,3.48,2.08.49.71.27,4.35.27,5.56v15.1c-.03,2.53-.06,5.06-.09,7.59-.33,1.45-2.77.54-3.48,1.55-.42.59-.08,1.43.49,1.59.77-.01,1.55-.03,2.32-.04,1.76-.26,5.04-.22,6.74.04.84.13,2.4.15,2.77-.26.16-.19.24-.52.18-.79-.37-1.73-3.38-.42-3.7-2.21Z"/>
    </g>
  </g>
  <g id="GEODATA">
    <g>
      <path class="st2" d="M428.12,35.66c-1.26,0-2.36-.3-3.3-.91-.94-.6-1.67-1.46-2.2-2.56-.52-1.1-.79-2.4-.79-3.89s.26-2.81.79-3.91c.52-1.1,1.25-1.95,2.18-2.56.93-.6,2-.9,3.21-.9.78,0,1.5.12,2.16.37.65.25,1.23.59,1.73,1.02.5.43.91.93,1.23,1.5.32.56.54,1.17.65,1.8h-1.41c-.13-.48-.32-.92-.56-1.32s-.56-.77-.92-1.08-.79-.56-1.27-.74c-.47-.18-1-.26-1.59-.26-.92,0-1.75.24-2.49.72-.74.48-1.31,1.18-1.74,2.08-.42.91-.64,2-.64,3.29s.21,2.35.64,3.26c.42.91,1.01,1.61,1.75,2.09.74.48,1.6.73,2.56.73.89,0,1.66-.19,2.33-.58.66-.39,1.18-.94,1.55-1.65.37-.71.55-1.56.55-2.53l.42.11h-4.56v-1.21h5.48v1.18c0,1.21-.25,2.27-.74,3.16-.49.89-1.17,1.58-2.04,2.07s-1.86.74-2.99.74Z"/>
      <path class="st2" d="M441.08,35.46v-14.34h8.38v1.22h-7.01v5.29h6.57v1.22h-6.57v5.38h7.14v1.22h-8.51Z"/>
      <path class="st2" d="M462.36,35.66c-1.21,0-2.29-.3-3.23-.91-.94-.6-1.67-1.46-2.2-2.56-.53-1.1-.8-2.4-.8-3.89s.27-2.8.8-3.91c.53-1.1,1.27-1.96,2.2-2.56.94-.6,2.01-.9,3.23-.9s2.28.3,3.21.9c.94.6,1.67,1.46,2.2,2.56.53,1.1.79,2.41.79,3.91s-.26,2.8-.79,3.9-1.26,1.96-2.2,2.56c-.94.6-2.01.9-3.21.9ZM462.36,34.38c.93,0,1.76-.24,2.5-.72.73-.48,1.32-1.18,1.74-2.08s.64-2,.64-3.27-.21-2.37-.64-3.28c-.43-.91-1.01-1.61-1.74-2.09-.74-.48-1.57-.72-2.5-.72s-1.78.24-2.51.72c-.74.48-1.32,1.18-1.75,2.09-.43.91-.64,2.01-.64,3.28s.21,2.35.64,3.26c.43.91,1.01,1.61,1.75,2.09.74.48,1.58.73,2.51.73Z"/>
      <path class="st2" d="M477.03,21.12v14.34h-1.37v-14.34h1.37ZM479.9,35.46h-3.49v-1.22h3.41c1.23,0,2.25-.24,3.07-.72.82-.48,1.43-1.17,1.85-2.06.41-.9.62-1.97.62-3.21s-.2-2.29-.61-3.17c-.4-.88-1-1.56-1.78-2.03-.78-.47-1.75-.71-2.91-.71h-3.7v-1.22h3.78c1.37,0,2.55.29,3.52.86.97.57,1.72,1.39,2.24,2.46.52,1.06.78,2.34.78,3.82s-.26,2.8-.79,3.88c-.53,1.08-1.3,1.9-2.31,2.47-1.01.57-2.24.86-3.68.86Z"/>
      <path class="st2" d="M491.87,35.46l5.26-14.34h1.62l5.3,14.34h-1.44l-3.41-9.38c-.19-.52-.4-1.13-.63-1.82-.23-.7-.49-1.54-.78-2.52h.29c-.3.99-.56,1.84-.79,2.54-.23.71-.43,1.31-.61,1.8l-3.35,9.38h-1.45ZM494.31,31.2v-1.21h7.29v1.21h-7.29Z"/>
      <path class="st2" d="M507.9,22.34v-1.22h10.46v1.22h-4.53v13.12h-1.37v-13.12h-4.55Z"/>
      <path class="st2" d="M522.21,35.46l5.26-14.34h1.62l5.3,14.34h-1.44l-3.41-9.38c-.19-.52-.4-1.13-.63-1.82-.23-.7-.49-1.54-.78-2.52h.29c-.3.99-.56,1.84-.79,2.54-.23.71-.43,1.31-.61,1.8l-3.35,9.38h-1.45ZM524.66,31.2v-1.21h7.29v1.21h-7.29Z"/>
    </g>
  </g>
</svg>
