<svg xmlns="http://www.w3.org/2000/svg" width="485" height="50" viewBox="0 0 485 50">
  <metadata><?xpacket begin="﻿" id="W5M0MpCehiHzreSzNTczkc9d"?>
<x:xmpmeta xmlns:x="adobe:ns:meta/" x:xmptk="Adobe XMP Core 5.6-c138 79.159824, 2016/09/14-01:09:01        ">
   <rdf:RDF xmlns:rdf="http://www.w3.org/1999/02/22-rdf-syntax-ns#">
      <rdf:Description rdf:about=""/>
   </rdf:RDF>
</x:xmpmeta>
                                                                                                    
                                                                                                    
                                                                                                    
                                                                                                    
                                                                                                    
                                                                                                    
                                                                                                    
                                                                                                    
                                                                                                    
                                                                                                    
                                                                                                    
                                                                                                    
                                                                                                    
                                                                                                    
                                                                                                    
                                                                                                    
                                                                                                    
                                                                                                    
                                                                                                    
                                                                                                    
                           
<?xpacket end="w"?></metadata>
<defs>
    <style>
      .cls-1 {
        fill-rule: evenodd;
      }
    </style>
  </defs>
  <path id="GEODATA_UCB" data-name="GEODATA@UCB" class="cls-1" d="M327.987,34.607V29.913h-4.3v0.7h3.527V34.23a5.921,5.921,0,0,1-3.093.848c-2.81,0-4.658-2.017-4.658-5.335,0-3.487,2.056-5.391,4.62-5.391a6.473,6.473,0,0,1,3.319.9l0.246-.679a6.985,6.985,0,0,0-3.527-.943c-3.168,0-5.469,2.375-5.469,6.108,0,3.714,2.094,6.051,5.45,6.051A6.673,6.673,0,0,0,327.987,34.607Zm13.313,1V34.89h-5.959V30.064h4.978v-0.7h-4.978V24.541H341.3V23.824h-6.751V35.606H341.3Zm16.858-5.919a5.733,5.733,0,0,0-5.638-6.051c-3.262,0-5.676,2.432-5.676,6.089a5.75,5.75,0,0,0,5.638,6.07C355.745,35.794,358.158,33.344,358.158,29.687Zm-0.81.038c0,3.148-2.037,5.372-4.809,5.372s-4.884-2.262-4.884-5.41,2.036-5.354,4.808-5.354S357.348,26.576,357.348,29.724Zm16.141-.094c0-3.431-2.432-5.806-6.242-5.806H364.4V35.606h2.734C371.113,35.606,373.489,33.438,373.489,29.63Zm-0.811.075c0,3.582-2.281,5.184-5.506,5.184h-1.98V24.541h1.98C370.623,24.541,372.678,26.6,372.678,29.706Zm11.334-5.881h-0.981l-4.507,11.782h0.792l1.377-3.676h5.563l1.376,3.676h0.811Zm1.961,7.389h-5l2.526-6.692ZM401.4,24.559V23.824h-9.127v0.735h4.168V35.606h0.792V24.559H401.4Zm9.316-.735h-0.981l-4.507,11.782h0.792L407.4,31.93h5.563l1.376,3.676h0.811Zm1.961,7.389h-5l2.527-6.692Zm16.877,0.453,0.924-4.43-0.849.547a3.216,3.216,0,0,0-1.961-.735c-2.055,0-3.866,2.036-3.866,4.468,0,1.734,1.038,3.092,2.64,3.092a2.973,2.973,0,0,0,2.377-1.4,2.165,2.165,0,0,0,2.112,1.4c1.678,0,3.337-1.678,3.337-4.769,0-3.77-3.168-6.145-6.77-6.145a7.255,7.255,0,0,0-7.184,7.352,6.554,6.554,0,0,0,6.6,6.824,8.709,8.709,0,0,0,2.451-.377l-0.113-.528a9.035,9.035,0,0,1-2.3.4,6.052,6.052,0,0,1-6.035-6.334,6.766,6.766,0,0,1,6.581-6.843c3.169,0,6.167,2.224,6.167,5.655,0,2.752-1.4,4.166-2.7,4.166C429.854,34,429.231,33.193,429.552,31.666ZM428.628,32.7a2.658,2.658,0,0,1-2.018,1.244c-1.3,0-2.018-1.093-2.018-2.432,0-2.055,1.4-3.846,3-3.846a2.714,2.714,0,0,1,1.886.829Zm20.045-1.546V23.824H447.9v7.314c0,2.507-1.15,3.959-3.489,3.959-2.3,0-3.488-1.451-3.488-3.808V23.824H440.15v7.522c0,2.771,1.527,4.449,4.243,4.449C447.183,35.794,448.673,33.985,448.673,31.157Zm14.954-6.579a6.981,6.981,0,0,0-3.526-.943c-3.168,0-5.469,2.375-5.469,6.108,0,3.714,2.093,6.051,5.45,6.051a6.427,6.427,0,0,0,3.47-.943l-0.189-.735a5.763,5.763,0,0,1-3.262.961c-2.81,0-4.658-2.017-4.658-5.335,0-3.487,2.055-5.391,4.62-5.391a6.475,6.475,0,0,1,3.319.9Zm10.994,5.052a2.837,2.837,0,0,0,2.508-2.79c0-1.753-1.094-3.016-3.9-3.016h-3.432V35.606h3.621c2.923,0,4.092-1.376,4.092-3.224C477.506,30.969,476.525,29.875,474.621,29.63Zm1.716-2.733c0,1.64-1.415,2.451-3.263,2.451h-2.489V24.541h2.6C475.413,24.541,476.337,25.483,476.337,26.9Zm0.377,5.467c0,1.47-.868,2.526-3.281,2.526h-2.848V30.064h2.489C475.639,30.064,476.714,30.987,476.714,32.364Z"/>
  <path class="cls-1" d="M21.688,17.192L23.044,17.6v0.135l1.22,0.406v0.135l0.542,0.135,0.135,0.271,0.813,0.271,0.136,0.271h0.271L26.3,19.494h0.271L26.839,19.9H27.11l0.949,1.083L28.6,21.389V21.66l0.407,0.271,0.136,0.542,0.271,0.135v0.406H29.55v0.271h0.136V23.69h0.136V24.1h0.136v0.542h0.135v0.677h0.136l-0.136,3.52H29.957v0.541H29.821l-0.136.812H29.55L29.279,31H29.143l-0.136.542-0.271.135v0.271l-0.407.271V32.49l-0.271.135-0.678.812H27.11l-0.407.542H26.432L26.3,34.25l-0.813.271-0.136.271-3.66,1.218-2.711.271v0.135H14.368V36.28h-1.22V36.145h-1.22V36.01H10.573V35.874l-6.1.135c-0.256.022-.271,0.135-0.271,0.135a2.658,2.658,0,0,1-1.9-.271H2.169V35.062l0.271-.135c0.763-.728,3.179.2,3.931-0.541,0.3-.347.136-1.568,0.136-2.166V3.926a4.149,4.149,0,0,1-.271-1.218H6.1L5.964,2.166H5.829V1.9a7.159,7.159,0,0,0-.813-0.542H3.253L1.22,1.083A2.592,2.592,0,0,1,1.084.135,42.172,42.172,0,0,1,7.862,0H10.3V-0.136l4.88-.135c3.015,0,5.328-.026,7.455.812L23.45,0.677V0.812l0.542,0.135V1.083l0.813,0.271V1.489l0.407,0.135L25.348,1.9h0.271l0.813,0.948L27.11,3.384a7.56,7.56,0,0,1,1.355,4.467V9.476l-0.813,2.437-0.271.135-0.136.542-0.407.271v0.271l-1.084.948-0.542.677H24.941l-0.271.406H24.4l-0.136.271-0.407.135V15.7H23.586l-0.136.271-0.407.135v0.135H22.773V16.38H22.5l-0.136.271H22.095v0.135C21.72,17.022,21.853,16.659,21.688,17.192ZM122.809,35.739a36.152,36.152,0,0,1-5.693.135,37.131,37.131,0,0,1-5.829-.135V34.927l0.542-.135V34.656h1.085a6.914,6.914,0,0,0,2.44-.271,11.4,11.4,0,0,0,.135-3.114V3.249h-0.135V2.843h-0.136V2.707a1.461,1.461,0,0,1-.271-0.271h-0.271V2.3l-2.847-.135a1.8,1.8,0,0,0-.406-0.542l0.135-.541,4.744-.542,2.983-.812L119.42,0a4.426,4.426,0,0,1,.136,2.437,44.2,44.2,0,0,0-.136,6.5L119.285,25.45v0.542h-0.136v6.633h0.136v0.948h0.135q0.068,0.338.136,0.677a1.285,1.285,0,0,1,.271.271H120.1v0.135c0.846,0.319,1.967-.335,2.575.271,0.138,0.1.134,0.166,0.271,0.271ZM76.586-.136c0.086,1.565,0,4.1,0,6.092a14.3,14.3,0,0,1-.136,3.249q-0.135,8.866-.271,17.734a1.723,1.723,0,0,0,.678.135A1.062,1.062,0,0,1,77.4,26.8V26.669h0.271l0.135-.271h0.271l0.136-.271h0.271l0.271-.406h0.271l0.271-.406h0.271l0.135-.271,0.407-.135,0.407-.541h0.271l0.542-.677H81.6l0.678-.812H82.55l0.678-.812,0.407-.135,1.084-1.218c1.173-1.172,2.453-1.807,2.44-4.2a1.416,1.416,0,0,1-.271-0.271H86.617V16.109h-2.44a0.309,0.309,0,0,0-.271-0.135,2.119,2.119,0,0,1-.135-0.812h0.135V15.026l0.949-.135v0.135h1.627v0.135h0.813a22.963,22.963,0,0,1,3.118-.135,1.759,1.759,0,0,1,.949-0.135v0.135l0.407,0.135-0.542,1.083-0.407.271v0.271l-0.407.271v0.271l-0.949.812v0.271l-0.678.542L87.7,20.171H87.43l-0.949,1.083H86.21l-0.271.406-0.407.271v0.135H85.261l-0.271.406H84.855l-0.136.271H84.448l-0.407.542-0.407.135-0.542.677L82.55,24.5c-0.073.259,0.083,0.186,0.136,0.271a2.248,2.248,0,0,0,.542.948L83.5,25.856v0.271l0.678,0.542v0.271l0.678,0.541v0.271l0.678,0.541v0.271l0.407,0.271V28.97l0.271,0.135v0.271l0.813,0.677v0.271l0.542,0.406V31l0.542,0.406v0.271l0.542,0.406v0.271l0.813,0.677V33.3l0.271,0.135,0.407,0.542h0.271l0.407,0.541,0.542,0.135v0.135l1.762,0.135v0.135L93.8,35.2a1.715,1.715,0,0,1,.135.677,0.237,0.237,0,0,0-.135.135,23.3,23.3,0,0,1-2.44.135l-1.084-.135v0.135a10.851,10.851,0,0,1-3.118-.135L86.481,35.2H86.346V34.927l-0.407-.271V34.385l-0.407-.271V33.844l-0.542-.406V33.167l-0.678-.541V32.354L83.5,31.678l-0.136-.406L82.957,31V30.73l-0.542-.406V30.053l-0.542-.406-0.136-.406-0.271-.135V28.835l-0.407-.271V28.293l-0.407-.271V27.752l-0.542-.406c-0.3-.412-0.153-0.593-0.813-0.677a6.35,6.35,0,0,1-1.491.948l-0.135.271-0.542.135-0.136.271H76.722v0.135l-0.407.271V28.97H76.179a30.907,30.907,0,0,0,.271,5.415l0.678,0.135v0.135c1.018,0.324,2.721-.4,3.389.271h0.136v0.406a0.912,0.912,0,0,1,.135.135H80.653l-0.136.406H68.86a1.127,1.127,0,0,1-.271-0.812,1.13,1.13,0,0,1,.813-0.271V34.656h2.44a0.3,0.3,0,0,1,.271-0.135,8.456,8.456,0,0,0,.136-2.437,4.582,4.582,0,0,0,.135-2.031V11.371c0.02-1.611.441-4.25,0-5.821v-1.9c-0.1-.337-0.324-0.7-0.407-1.083A0.52,0.52,0,0,1,71.571,2.3H69.944L68.453,2.03a1.716,1.716,0,0,1-.136-0.677c0.154-.154.054,0,0.136-0.271A7.441,7.441,0,0,1,70.622.947c0.393-.335,1.567-0.093,2.169-0.271V0.541l1.355-.135A7.669,7.669,0,0,1,76.586-.136ZM212.272,1.083l3.253-.271V0.677H216.2V0.541h0.678V0.406h0.542V0.27H218.1V0.135l2.033-.271a2.586,2.586,0,0,1,.136.948h-0.136V1.624a14.638,14.638,0,0,0-.271,3.791q-0.067,4.2-.136,8.393a24.4,24.4,0,0,0,.136,3.791,2.129,2.129,0,0,0,.813.135,1.121,1.121,0,0,1,.543-0.271V17.328h0.271V17.192h0.271l0.271-.271H222.3c0.045-.09.09-0.181,0.136-0.271h0.271l0.271-.271h0.271V16.245h0.271V16.109h0.271V15.974l0.813-.271V15.568h0.407V15.433h0.271V15.3l1.22-.271V14.891h0.813V14.756h0.814v0.135h1.084v0.135h0.542v0.135h0.407V15.3h0.407v0.135l0.813,0.271v0.135l0.542,0.135L232.2,16.38h0.271l0.542,0.677,1.22,1.083v0.271l0.272,0.135v0.271l0.271,0.135,0.135,0.541,0.271,0.135c0.045,0.226.091,0.451,0.136,0.677h0.135q0.069,0.271.136,0.541h0.135q0.2,0.88.407,1.76h0.136v0.542H236.4v0.812h0.136v1.354a2.591,2.591,0,0,1,.135,1.218h-0.135v1.218l-0.678,2.437h-0.136q-0.135.406-.271,0.812h-0.135c-0.045.181-.091,0.361-0.136,0.542l-0.271.135v0.271l-0.271.135v0.271l-0.407.271V32.9l-0.813.677-0.678.812h-0.271l-0.271.406-0.542.135c-0.045.09-.09,0.181-0.136,0.271h-0.271v0.135h-0.271v0.135h-0.406V35.6H230.3v0.135h-0.406v0.135h-0.407V36.01H229.08v0.135H228.4V36.28a17.1,17.1,0,0,1-4.067.135V36.28h-0.813V36.145h-0.542V36.01h-0.542V35.874H221.9V35.739H221.49V35.6h-0.407a7.644,7.644,0,0,0-2.982-.948l-0.813,1.083c-0.413.9,0.167,1.748-1.22,1.76a13.528,13.528,0,0,1-.136-3.791,4.587,4.587,0,0,0,.136-2.031V11.507a53.2,53.2,0,0,0-.271-8.529l-0.407-.271V2.572h-0.271V2.437H213.9V2.3c-0.536-.152-1.279.173-1.627-0.135h-0.135V1.354C212.291,1.2,212.191,1.353,212.272,1.083Zm-12.2,30.73,0.135,0.541h-0.135q-0.069.338-.136,0.677H199.8V33.3l-0.272.135-0.406,1.218h-0.136v0.271h-0.135v0.406h-0.136a1.034,1.034,0,0,1-.271.677v0.135h-6.1a3.031,3.031,0,0,0-1.491-.135H187.06c-5,0-10.617.09-15.182,0a1.183,1.183,0,0,1-.271-0.948,1.488,1.488,0,0,1,1.084-.406c0.9-.74,3.148.8,3.254-1.083,0.316-.36.135-1.682,0.135-2.3V25.044q0.067-6.362.136-12.725c0-1.766.281-4.479-.136-5.957v-2.3h-0.135V3.113h-0.136V2.572h-0.135V2.3h-0.136V2.03l-0.407-.271V1.624h-2.846V1.489l-0.678-.135a1.733,1.733,0,0,1-.136-0.677c0.155-.154.054,0,0.136-0.271,0.273-.05.271-0.135,0.271-0.135h0.678V0.135a2.824,2.824,0,0,1,1.22.135h9.759l2.44-.135V0.27h1.356a2.567,2.567,0,0,1,.135.948l-0.406.135a4.05,4.05,0,0,1-2.169.271,16.788,16.788,0,0,0-3.389.406,2.6,2.6,0,0,1-.406.406V23.284c-0.283.311-.136,2.335-0.136,2.978q0.135,2.978.271,5.957h0.136v0.541a2.538,2.538,0,0,0,.949,1.489c0.509,0.514,3.9.271,5.015,0.271a26.137,26.137,0,0,0,7.726-.812l1.085-.135,2.575-1.083V32.354h0.271V32.219A3.584,3.584,0,0,1,200.073,31.813ZM11.793,1.76A33.282,33.282,0,0,0,11.657,6.9v9.341l0.407,0.135a4.186,4.186,0,0,0,1.9.135l4.609,0.135v0.135c0.473,0.132,1.018,0,1.355.135V16.786a7.275,7.275,0,0,0,3.389-4.2l0.136-2.031h0.136L23.45,8.393H23.315V7.852H23.179L23.044,6.9H22.908V6.633H22.773V6.227H22.637L22.5,5.686H22.366L22.23,5.144l-0.271-.135V4.738L21.688,4.6V4.332l-0.407-.271V3.79l-0.542-.406L20.2,2.707H19.926L19.79,2.437H19.519a5.7,5.7,0,0,0-3.931-1.218h-2.3V1.354H12.606V1.489H12.2V1.624ZM207.8,5.55a5.446,5.446,0,0,1,1.22.135,1.573,1.573,0,0,1,.271.542h0.136a3.65,3.65,0,0,1-.271,1.76h-0.136V8.258h-0.136V8.528h-0.135a1.016,1.016,0,0,1-.678.541,1.3,1.3,0,0,1-1.9-.541h-0.135V7.581h0.135V7.175h0.136q0.068-.271.136-0.541l0.677-.542,0.136-.271A1.349,1.349,0,0,0,207.8,5.55Zm-167.4,8.935H42.97V14.62l1.084,0.135v0.135l0.813,0.135v0.135L45.545,15.3v0.135l0.542,0.135V15.7l0.542,0.135v0.135l0.407,0.135,0.136,0.271h0.271l0.136,0.271h0.271l0.271,0.406h0.271l0.678,0.812,0.678,0.541v0.271l0.542,0.406v0.271a3.342,3.342,0,0,1,.949,1.76l-0.407.135v0.135l-0.949.135V21.66H49.2V21.8H48.663v0.135H47.985v0.135H47.307C45.923,22.5,44.13,22.6,42.7,23.014H41.614v0.135H40.53v0.135H39.31V23.42H37.819v0.135H36.328V23.69H36.057l-0.136.406a3.629,3.629,0,0,0-.136,1.76l0.407,2.437h0.136V28.7h0.136V28.97H36.6l0.136,0.677,0.271,0.135,0.136,0.541,0.271,0.135V30.73l0.542,0.406,0.813,0.948h0.271l0.136,0.271h0.271l0.136,0.271,0.542,0.135V32.9l0.813,0.271V33.3h0.407v0.135H41.75v0.135h0.542v0.135h0.542v0.135h0.813v0.135a9.659,9.659,0,0,0,3.118-.135h0.949l3.253-1.083a1.578,1.578,0,0,1,.271.542H51.1A4.958,4.958,0,0,1,49.34,34.52c-1.985,1.308-5.888,3.009-9.353,1.9L38.9,36.28a9.9,9.9,0,0,1-6.235-5.821V29.918H32.532V29.512H32.4V28.835H32.261V28.022H32.126a15.754,15.754,0,0,1,.136-3.926V23.284c0.937-3.12,1.818-5.216,4.2-6.9l0.271-.406h0.271l0.136-.271,2.169-.948A3.674,3.674,0,0,0,40.394,14.485Zm60.185,0h2.575V14.62l1.084,0.135v0.135l0.814,0.135v0.135l0.677,0.135v0.135l0.543,0.135V15.7h0.271l0.135,0.271,0.543,0.135v0.135l0.406,0.135,0.136,0.271h0.271l0.406,0.541h0.272l0.813,0.948,0.271,0.135v0.271l0.542,0.406v0.271l0.407,0.271a4.384,4.384,0,0,1,.678,1.625l-0.407.135a2.74,2.74,0,0,1-1.084.271V21.66h-0.543V21.8h-0.542v0.135h-0.678v0.135h-0.677c-1.713.534-3.909,0.571-5.694,1.083h-1.084v0.135h-1.22V23.42H98v0.135H96.512V23.69H96.241l-0.135.406a3.355,3.355,0,0,0-.136,1.625,7.833,7.833,0,0,0,.949,3.655l0.135,0.541,0.271,0.135v0.271L97.6,30.459V30.73l0.542,0.406,0.813,0.948h0.271l0.271,0.406,0.542,0.135v0.135h0.271V32.9l0.814,0.271V33.3l1.22,0.271v0.135l1.491,0.135a9.668,9.668,0,0,0,3.117.135V33.844h0.814V33.708h0.677V33.573h0.543a8.821,8.821,0,0,1,2.168-.812,1.7,1.7,0,0,1,.136.677l-0.542.271-0.136.271h-0.271l-0.135.271h-0.271c-0.046.09-.091,0.181-0.136,0.271l-0.542.135-0.136.271-0.542.135V35.2l-0.813.271V35.6h-0.407v0.135h-0.271v0.135h-0.407V36.01h-0.406v0.135h-0.407V36.28h-0.407v0.135l-1.22.135v0.135h-1.22a10.874,10.874,0,0,1-4.337-.677l-1.627-.541L96.919,35.2l-0.542-.135-0.271-.406H95.834l-0.542-.677a8.753,8.753,0,0,1-2.711-4.332V28.97H92.446V28.293H92.31V26.8H92.174q0.068-1.421.135-2.843h0.136V23.149l0.949-2.978H93.53V19.9l0.271-.135,0.271-.812,0.271-.135V18.546l2.033-2.166h0.271l0.271-.406H97.19l0.135-.271,2.169-.948A3.675,3.675,0,0,0,100.579,14.485Zm25.348,9.206a3.734,3.734,0,0,0-.272,1.9h0.136v1.354h0.136v0.677h0.135v0.542H126.2v0.406h0.135V28.97h0.136v0.271H126.6q0.136,0.406.271,0.812l0.271,0.135v0.271l0.407,0.271V31l0.271,0.135,0.542,0.677h0.271l0.407,0.541,0.542,0.135c0.046,0.09.091,0.18,0.136,0.271h0.271V32.9l0.542,0.135v0.135h0.407V33.3h0.271v0.135l0.949,0.135v0.135H132.7a11.458,11.458,0,0,0,3.931.271V33.844l1.627-.135V33.573h0.406V33.437h0.407V33.3h0.407V33.167h0.406a2.014,2.014,0,0,1,.949-0.406,1.572,1.572,0,0,1,.271.542h-0.135a3.73,3.73,0,0,1-1.491,1.083c-0.046.09-.091,0.181-0.136,0.271l-0.542.135v0.135h-0.271v0.135l-0.543.135a10.566,10.566,0,0,1-5.286,1.489h-1.9V36.551l-1.491-.135V36.28h-0.406V36.145H128.5V36.01H128.1V35.874h-0.406V35.739h-0.271V35.6l-0.814-.271-0.135-.271H126.2a10.411,10.411,0,0,1-1.491-1.354l-0.543-.406V33.031l-0.406-.271V32.49l-0.271-.135q-0.069-.271-0.136-0.541h-0.136q-0.135-.406-0.271-0.812h-0.135q-0.136-.609-0.271-1.218H122.4V29.241h-0.135V28.7h-0.136L122,24.5l0.813-3.52h0.135q0.069-.271.136-0.541h0.135V20.171h0.136V19.9h0.136V19.629l0.271-.271V19.088l0.271-.135V18.682l0.271-.135V18.275l0.542-.406V17.6l0.813-.677c0.046-.09.091-0.181,0.136-0.271h0.271l0.407-.541h0.271l0.135-.271h0.271c0.046-.09.091-0.181,0.136-0.271l1.22-.406V15.026h0.271V14.891l0.949-.135c3.209-1.063,6.6.872,8.4,2.166l1.084,1.218a10.445,10.445,0,0,1,1.356,1.489V19.9l0.271,0.135a2.017,2.017,0,0,1,.271,1.083l-0.406.135a9.759,9.759,0,0,1-2.169.677H137.99v0.135h-0.677c-1.724.537-3.9,0.569-5.693,1.083h-1.085v0.135H129.18V23.42h-1.491v0.135H126.2V23.69h-0.271Zm87.565,12.048c-0.288.052-.849,0.208-1.084,0.271a2,2,0,0,1-.949-0.135H204l-1.627.135V35.874H201.7a1.186,1.186,0,0,1-.271-0.948c0.826-.429,2.547-0.281,3.8-0.271,0.554-1.081.271-3.466,0.271-5.009V18.14l-0.543-1.625c-0.431-.614-2.4-0.4-3.253-0.541a2.114,2.114,0,0,1-.135-0.812H201.7V15.026h0.678V14.891h5.015V14.756h0.814V14.62c0.41-.118.754,0.008,1.084-0.135V14.62c0.293,0.192.273,0.32,0.271,0.812H209.7V16.38a18.582,18.582,0,0,0-.136,4.061l-0.135,11.778h0.135V33.3H209.7l0.135,0.812a2.88,2.88,0,0,1,.407.406h2.169v0.135h0.813A1.739,1.739,0,0,1,213.492,35.739Zm-153.443-18a3.1,3.1,0,0,0,1.355-.541l0.271-.406h0.271l0.136-.271h0.271l0.136-.271,0.407-.135V15.974h0.271V15.839l0.813-.271V15.433l0.813-.135V15.162h0.542V15.026h0.813v0.135h0.542V15.3h0.271v0.135h0.407v0.135H67.64l0.136,0.271h0.271l1.084,1.218a3.762,3.762,0,0,1-.542,2.166v0.406H68.453a2.072,2.072,0,0,1-.271.677H67.64a6.756,6.756,0,0,0-2.169-1.9H64.929a4.389,4.389,0,0,0-4.609,1.354,6.461,6.461,0,0,0-.271,2.843V28.7c0,1.508-.356,5.146.542,5.686,0.553,0.528,2.8.157,3.66,0.406H65.2v0.135h0.136v0.812a13.079,13.079,0,0,1-3.66.135c-0.447-.394-1.984-0.073-2.711-0.135-0.254-.022-0.271-0.135-0.271-0.135a3.866,3.866,0,0,0-1.491.135l-4.473.135a2.593,2.593,0,0,1-.136-0.948,0.238,0.238,0,0,0,.136-0.135l3.118-.135c0.569-1.109.271-3.569,0.271-5.144V17.6H55.982V16.922A2.97,2.97,0,0,1,55.3,16.38l-2.846-.135a3.058,3.058,0,0,1,0-1.218l1.627-.135a16.521,16.521,0,0,0,4.067.135,6.724,6.724,0,0,1,1.627-.271A7.2,7.2,0,0,1,60.049,17.734ZM272.592,33.979v0.406L271.237,35.6l-0.136.271H270.83l-0.271.406h-0.271v0.135a1.6,1.6,0,0,0-.407.271,3.869,3.869,0,0,1-1.9-.541l-0.407-.541h-0.271l-0.678-.812-0.271-.135V34.385l-0.407-.271V33.844l-0.406-.271c-0.32-.447-0.083-0.572-0.814-0.677a2.816,2.816,0,0,1-.949.677q-0.135.2-.271,0.406h-0.271l-0.271.406H262.7c-0.045.09-.09,0.181-0.136,0.271H262.29l-0.135.271-0.542.135c-0.046.09-.091,0.181-0.136,0.271h-0.271v0.135l-0.542.135v0.135h-0.407v0.135h-0.271V36.01l-0.813.135V36.28h-0.542a4.27,4.27,0,0,1-2.034.271V36.416l-1.22-.135V36.145l-0.813-.271-0.813-1.083V34.385h-0.136l-0.135-2.031h0.135V31.407h0.136V30.865h0.135V30.459h0.136V30.188h0.135V29.782l0.271-.135q0.069-.271.136-0.541l0.407-.271V28.564l0.542-.406,0.813-.948H256.6l0.136-.271,0.406-.135V26.669l0.814-.271V26.263h0.271V26.127l0.813-.271V25.721h0.407V25.586h0.271V25.45l0.813-.135V25.18h0.407V25.044h0.407V24.909h0.406V24.773h0.407V24.638h0.406V24.5l0.949-.135V24.232l0.949-.135,0.136-.271,0.271-.135V18.952q-0.2-.609-0.407-1.218h-0.135l-0.543-.677a1.271,1.271,0,0,1-.542-0.271,10.6,10.6,0,0,0-3.253,0h-0.813a17.462,17.462,0,0,1-1.627.677c0.047,1.617-.576,3.9-1.762,4.2V21.8h-0.949a1.879,1.879,0,0,1-.407-1.489h0.136q0.068-.406.136-0.812h0.135q0.067-.271.136-0.541h0.135V18.682l0.271-.135V18.275L255.784,18V17.734l0.949-.812,0.135-.271h0.271l0.272-.406h0.271l0.135-.271h0.271V15.839l0.814-.271V15.433l1.22-.271V15.026l1.762-.135V14.756a2.991,2.991,0,0,1,1.355.135h1.22v0.135H265v0.135l1.22,0.271,1.627,1.218v0.271l0.271,0.135q0.067,0.271.136,0.542h0.135v0.271h0.136a10.7,10.7,0,0,1,.135,3.249v7.175a10.155,10.155,0,0,0,.136,3.114h0.135q0.137,0.406.271,0.812l0.272,0.135A6.309,6.309,0,0,0,272.592,33.979ZM148.563,16.516l-0.135.541h-0.136a2.342,2.342,0,0,0,.136,1.218q0.135,0.677.271,1.354h0.136l0.135,0.541h0.136v0.406h0.135v0.271h0.136l0.135,0.541h0.136V21.8h0.135v0.271h0.136l0.135,0.541h0.136v0.406h0.136l0.135,0.541H150.6v0.406h0.135c0.045,0.18.091,0.361,0.136,0.541H151v0.406h0.136l0.135,0.541h0.136v0.406h0.136v0.271h0.135q0.067,0.338.136,0.677h0.135V27.21h0.136v0.271h0.135v0.406h0.136v0.271h0.135v0.406h0.136v0.271h0.136v0.406H152.9c0.09,0.271.181,0.541,0.271,0.812h0.136v0.271h0.135a1.15,1.15,0,0,1,.271.542h0.407V30.73h0.136V30.595h0.135V30.324h0.136V30.053h0.135V29.782H154.8V29.376h0.135V28.97h0.136V28.7h0.135V28.293h0.136q0.067-.406.136-0.812h0.135V27.075h0.136V26.669h0.135V26.263h0.136V25.856h0.135V25.45h0.136l0.135-.812h0.136l0.135-.812h0.136q0.135-.609.271-1.218h0.136V22.2h0.135V21.8h0.136V21.389h0.135V20.983h0.136V20.577h0.135q0.137-.677.272-1.354h0.135V18.682h0.136V16.651a1.265,1.265,0,0,1-.271-0.271h-0.272V16.245c-0.828-.313-2.2.333-2.846-0.271h-0.136V15.3c0.155-.154.054,0,0.136-0.271h0.542V14.891l3.66,0.135h1.9V14.891h2.44a2.61,2.61,0,0,1,.135.948,7.855,7.855,0,0,1-1.762.542l-0.407.677h-0.135v0.271l-0.271.271v0.271h-0.136V18.14l-0.271.135q-0.068.338-.136,0.677h-0.135v0.271h-0.136v0.271h-0.135q-0.137.406-.271,0.812h-0.136v0.406h-0.135q-0.069.271-.136,0.541h-0.136V21.66h-0.135q-0.067.271-.136,0.541H159v0.406h-0.136v0.271H158.73v0.406h-0.136l-0.135.541h-0.136v0.406h-0.135V24.5h-0.136q-0.067.338-.136,0.677h-0.135v0.406h-0.136v0.271H157.51v0.406h-0.136v0.271h-0.135v0.406c-2.187,4.838-4.051,10.052-6.507,14.621v0.271H150.6V42.1h-0.136v0.271h-0.135v0.271H150.19v0.271h-0.136q-0.135.406-.271,0.812h-0.135q-0.137.406-.271,0.812h-0.136l-0.135.541H148.97l-0.135.541H148.7v0.271h-0.136v0.271h-0.135v0.271h-0.136V46.7h-0.135v0.271h-0.136v0.271h-0.135v0.271H147.75v0.271h-0.135v0.271h-0.136v0.271h-0.136l-0.135.271h-0.271l-0.136.271h-0.542c-0.359.331-.93,0.107-1.491,0.271-0.714.209-2.892,1.034-3.66,0.271h-0.135V49.006l1.491-.541V48.329h0.271V48.193h0.271l0.135-.271,0.543-.135,0.406-.541h0.271l0.407-.541H144.9V46.434l0.542-.406V45.757l0.406-.271V45.215l0.543-.406V44.538l0.271-.135V44.132l0.406-.271c0.046-.135.091-0.271,0.136-0.406l0.271-.135V43.049l0.271-.135V42.643l0.407-.271V42.1l0.271-.135,0.135-.406H148.7V41.289l0.271-.135V40.883l0.271-.135V40.477l0.271-.135V40.071l0.271-.135q0.069-.271.136-0.541l0.271-.135q0.068-.271.136-0.541l0.271-.135V38.311l0.271-.271V37.769H151V37.5a1.8,1.8,0,0,0,.407-1.354h-0.136V35.739h-0.135V35.468H151l-0.135-.812h-0.136l-0.135-.677h-0.136l-0.135-.542H150.19V33.031h-0.136V32.761h-0.135q-0.068-.338-0.136-0.677h-0.135V31.678h-0.136l-0.135-.542h-0.136V30.73h-0.135q-0.069-.271-0.136-0.541h-0.135q-0.069-.338-0.136-0.677h-0.136V29.105h-0.135q-0.067-.271-0.136-0.541h-0.135V28.158h-0.136l-0.135-.542H147.75V27.21h-0.135q-0.069-.271-0.136-0.541h-0.136V26.263h-0.135q-0.067-.271-0.136-0.541h-0.135V25.315H146.8l-0.135-.542H146.53V24.367H146.4V24.1h-0.136V23.69h-0.135q-0.069-.271-0.136-0.541h-0.136V22.743h-0.135q-0.068-.271-0.136-0.541h-0.135V21.8H145.31l-0.135-.542h-0.136V20.848H144.9q-0.069-.271-0.136-0.541h-0.136V19.9H144.5q-0.068-.271-0.136-0.541h-0.135V18.952H144.09l-0.135-.542h-0.136V18.14h-0.135V17.869h-0.136V17.6l-0.271-.271V17.057l-0.271-.135-0.136-.406H142.6a2.684,2.684,0,0,0-1.762-.271,1.679,1.679,0,0,1,0-.948l0.407-.135a9.078,9.078,0,0,1,2.846-.135,19.517,19.517,0,0,0,3.118,0h1.9V14.891l1.762,0.135a1.745,1.745,0,0,1,.271,1.083H151v0.135A10.688,10.688,0,0,0,148.563,16.516Zm95.428,1.218a2.062,2.062,0,0,0,1.22-.406l0.271-.406h0.271l0.136-.271h0.271l0.135-.271h0.272l0.135-.271,0.542-.135,0.136-.271h0.406V15.568h0.272V15.433h0.406V15.3a4.65,4.65,0,0,1,2.305,0v0.135h0.406l1.491,1.083v0.271H252.8a1.644,1.644,0,0,0,.271.406,4.613,4.613,0,0,1-.678,2.3l-0.135.677h-0.136a0.459,0.459,0,0,1-.407.271,1.928,1.928,0,0,0-.542-0.406V19.765l-0.271-.135-0.271-.406h-0.271l-0.271-.406-0.542-.135V18.546h-0.271V18.411H248.6a5.768,5.768,0,0,0-3.389.406c-0.045.09-.09,0.18-0.136,0.271H244.8l-0.271.271v0.271l-0.271.135a6.174,6.174,0,0,0-.271,1.624h-0.135v6.9c0,1.7-.317,5.494.677,6.092V34.52h0.407v0.135h1.491l2.711,0.135a4.686,4.686,0,0,1,.136.948,11.57,11.57,0,0,1-3.254.135c-0.521-.459-1.939.077-2.711-0.135V35.6h-2.44v0.135l-4.2.135a2.61,2.61,0,0,1-.135-0.948h0.135V34.791c0.914-.04,2.024-0.132,3.118-0.135,0.569-1.109.271-3.569,0.271-5.144V17.6c-0.307-.341-0.06-0.63-0.542-0.948-0.606-.581-2.425.079-2.982-0.406H236.4V15.162a13.583,13.583,0,0,1,3.8-.135,1.9,1.9,0,0,0,1.22.135,9.812,9.812,0,0,1,2.44-.271,6.934,6.934,0,0,1,.135,2.031h-0.135Zm36.87,0H281.4a3.42,3.42,0,0,1,1.22-.812c0.045-.09.09-0.181,0.136-0.271h0.271l0.135-.271h0.271l0.136-.271,0.542-.135c0.045-.09.09-0.181,0.136-0.271l0.677-.135V15.433H285.2V15.3h0.543V15.162a4.878,4.878,0,0,1,1.9.135v0.135h0.271v0.135l0.814,0.271,0.271,0.406h0.271l0.271,0.271v0.271l0.271,0.135c0.045,0.316.091,0.632,0.136,0.948h-0.136l-0.135.948h-0.136v0.406H289.4v0.271h-0.136c-0.16.3-.272,0.653-0.407,0.948-0.272-.078-0.117.016-0.271-0.135a5.39,5.39,0,0,1-1.491-1.218l-0.135-.271-1.491-.541a3.3,3.3,0,0,0-1.492.135h-0.813v0.135h-0.542l-1.22.812c-0.76,1.041-.678,2.787-0.678,4.6,0,3.362-.274,7.366.271,10.288l0.407,0.135V34.52h0.407v0.135h1.355l2.711,0.135a1.123,1.123,0,0,1,.271.812c-0.154.154-.054,0-0.135,0.271l-8.269-.271v0.135l-4.2.135a2.567,2.567,0,0,1-.135-0.948h0.135V34.791c0.881-.079,2.044-0.134,3.118-0.135,0.568-1.109.271-3.569,0.271-5.144V17.734h-0.136V17.057c0-.012-0.084.025-0.135-0.271l-0.407-.135V16.516h-0.271V16.38c-0.882-.322-2.428.509-2.711-0.406h-0.136a1.537,1.537,0,0,1,.272-0.948h3.659a1.9,1.9,0,0,0,1.22.135,9.812,9.812,0,0,1,2.44-.271,5.807,5.807,0,0,1,.136,1.76A1.194,1.194,0,0,0,280.861,17.734Zm16.266,30.73-0.407.135v0.135h-0.406V48.87l-1.491.135c-0.557.169-2.337,0.9-3.118,0.677V49.547l-0.813-.135c-0.046-.135-0.091-0.271-0.136-0.406a17.85,17.85,0,0,0,3.389-1.76V47.11l0.542-.406V46.434l0.542-.406V45.757l0.542-.406V45.08l0.407-.271V44.538l0.407-.271V44l0.406-.271V43.455l0.271-.135V43.049l0.407-.271V42.508l0.271-.135c0.045-.135.091-0.271,0.136-0.406h0.135V41.7l0.407-.271V41.154l0.271-.135V40.748l0.271-.135c0.045-.18.091-0.361,0.136-0.541l0.271-.135,0.135-.406h0.136l0.135-.541,0.272-.135V38.582l0.271-.271V38.04h0.135V37.769h0.136V37.5a1.842,1.842,0,0,0,.406-1.489h-0.135V35.6h-0.136V35.333h-0.135V34.927h-0.136V34.656h-0.135q-0.069-.338-0.136-0.677h-0.135V33.573h-0.136V33.3h-0.136V32.9h-0.135V32.625H299.7V32.219h-0.135c-0.045-.18-0.091-0.361-0.136-0.541H299.3V31.271H299.16l-0.135-.541h-0.136q-0.067-.338-0.136-0.677h-0.135V29.647h-0.136l-0.135-.541h-0.136V28.7h-0.135c-0.045-.181-0.091-0.361-0.136-0.541h-0.135V27.752h-0.136l-0.135-.541H297.4V26.8h-0.136V26.533h-0.135V26.127h-0.136l-0.135-.541H296.72V25.18h-0.135c-0.045-.18-0.091-0.361-0.136-0.541h-0.135V24.232h-0.136q-0.067-.271-0.136-0.541h-0.135V23.284h-0.136l-0.135-.542H295.5V22.337h-0.135c-0.045-.181-0.091-0.361-0.136-0.541h-0.135V21.389h-0.136l-0.135-.541h-0.136V20.441h-0.136V20.171h-0.135V19.765H294.28l-0.135-.542h-0.136V18.817h-0.135V18.546h-0.136V18.275H293.6V18h-0.136V17.734h-0.136c-0.29-.535-0.285-1.042-0.948-1.218-0.784-.634-1.74.632-1.763-1.083l0.272-.135a3.594,3.594,0,0,1,2.168-.271c2.2,0.621,5.38-.3,7.727.135a2.609,2.609,0,0,1,.135.948l-0.406.135V16.38h-1.763a0.3,0.3,0,0,1-.271.135l-0.135.406c-0.377.394-.1,2.034,0.135,2.572h0.136v0.271h0.135v0.406h0.136q0.067,0.271.136,0.541h0.135v0.406H299.3l0.135,0.541h0.136v0.271H299.7v0.406h0.136l0.135,0.541h0.136v0.406h0.136v0.271h0.135q0.067,0.271.136,0.541h0.135V24.5h0.136v0.271h0.135V25.18h0.136l0.135,0.541h0.136v0.406h0.136V26.4H301.6q0.067,0.338.136,0.677h0.135v0.406h0.136v0.271h0.135v0.406h0.136v0.271h0.135v0.406h0.136v0.271h0.135v0.406h0.136v0.271l0.271,0.135c0.335,0.524.088,0.849,0.949,0.948,0.045-.135.09-0.271,0.136-0.406h0.135V30.053h0.136l0.135-.541h0.136V29.105h0.135c0.045-.271.091-0.541,0.136-0.812h0.135q0.069-.406.136-0.812H305.4V27.075h0.136V26.669h0.136V26.263H305.8V25.856h0.136V25.45h0.135V25.044h0.136l0.135-.812h0.136V23.961h0.135q0.2-.88.407-1.76h0.136V21.8h0.135V21.389h0.136V20.983h0.135V20.577H307.7l0.135-.812h0.136V19.223h0.135V18.817h0.136V16.651l-0.271-.135c-0.416-.409-2.411-0.284-3.118-0.406a1.718,1.718,0,0,1-.135-0.677c0.154-.154.054,0,0.135-0.271a13.08,13.08,0,0,1,3.66-.135,2.579,2.579,0,0,0,1.491.135,8.818,8.818,0,0,1,3.389-.135,2.131,2.131,0,0,1,.136.812,1.737,1.737,0,0,0-.272.271h-0.271v0.135h-0.949l-0.135.271-0.542.406v0.271l-0.271.135q-0.069.271-.136,0.541h-0.136V18.14h-0.135v0.271h-0.136v0.271h-0.135v0.271h-0.136q-0.135.406-.271,0.812h-0.135v0.406h-0.136v0.271H309.6v0.271h-0.136v0.271h-0.136v0.406h-0.135q-0.067.271-.136,0.541H308.92v0.406h-0.136v0.271h-0.135v0.406h-0.136l-0.135.541h-0.136v0.406h-0.136v0.271h-0.135q-0.067.338-.136,0.677H307.7v0.406h-0.136l-0.135.541h-0.136v0.406h-0.135v0.271h-0.136l-0.135.677h-0.136v0.406h-0.136v0.271H306.48v0.406h-0.136l-0.135.677h-0.136v0.271h-0.135v0.406H305.8l-0.135.542h-0.136v0.406H305.4v0.271H305.26v0.406h-0.136l-0.135.677h-0.136v0.271h-0.135v0.406h-0.136l-0.135.541h-0.136v0.406h-0.135q-0.069.271-.136,0.541H303.9V34.52h-0.135c-0.045.18-.091,0.361-0.136,0.541H303.5v0.406h-0.136l-0.135.541h-0.136v0.406h-0.135v0.271H302.82v0.271h-0.136v0.271h-0.135v0.406h-0.136V37.9h-0.135q-0.137.406-.271,0.812h-0.136v0.406h-0.135q-0.137.406-.271,0.812h-0.136v0.271h-0.136v0.271h-0.135v0.271h-0.136v0.271h-0.135v0.271h-0.136V41.56h-0.135v0.406H300.38l-0.271.812h-0.136v0.271h-0.135V43.32H299.7v0.271h-0.135v0.271h-0.136q-0.474,1.083-.949,2.166h-0.135V46.3h-0.136v0.271h-0.135V46.84H297.94V47.11h-0.135v0.271h-0.136l-0.135.541H297.4A1.148,1.148,0,0,0,297.127,48.464Zm-256.6-32.9V15.7H39.987v0.135l-0.813.271v0.135H38.9l-0.271.406-0.678.541v0.271l-0.407.271-0.136.542a7.777,7.777,0,0,0-1.355,4.061,3.649,3.649,0,0,0,1.22.135c0.383-.318,1.191.029,1.762-0.135,1.562-.45,3.5-0.5,5.015-0.948h0.813V21.254c0.561-.167,1.13.06,1.491-0.271h0.136V20.035a1.051,1.051,0,0,1-.271-0.541H46.087V19.223H45.952l-0.136-.406-0.271-.135V18.411l-1.084-.948C43.4,16.405,42.687,15.562,40.53,15.568Zm60.184,0V15.7l-0.949.135v0.135H99.494l-0.136.271H99.088l-0.271.406L98,17.328V17.6l-0.271.135L97.6,18.14H97.461l-0.136.541a7.62,7.62,0,0,0-1.084,3.655,3.65,3.65,0,0,0,1.22.135c0.383-.318,1.191.029,1.762-0.135,1.567-.451,3.484-0.493,5.015-0.948h0.814V21.254c0.561-.167,1.13.06,1.491-0.271h0.135V20.171h-0.135c-0.045-.226-0.091-0.451-0.136-0.677l-0.271-.135V19.088H106V18.817l-0.407-.271V18.275l-0.813-.677C103.7,16.519,102.909,15.563,100.714,15.568Zm25.213,6.769a13.052,13.052,0,0,0,4.879-.406l1.627-.135c1.217-.365,2.777-0.559,4.066-0.812a3.778,3.778,0,0,0-.677-2.031l-0.271-.135V18.546l-0.543-.406V17.869l-0.813-.677-0.135-.271h-0.272l-0.406-.542-0.542-.135c-0.046-.09-0.091-0.181-0.136-0.271h-0.271V15.839h-0.407V15.7l-1.626-.135V15.7h-0.543v0.135h-0.271v0.135l-0.542.135-0.271.406H128.5l-0.407.541H127.96v0.271l-0.407.271-0.135.541-0.272.135-0.406,1.218H126.6v0.271h-0.135v0.406A6.48,6.48,0,0,0,125.927,22.337Zm-113.456-4.6v0.135H12.064l-0.136.271H11.793v0.271H11.657V31.542h0.135v1.083h0.136v0.812h0.136L12.2,34.114l0.407,0.271V34.52l0.813,0.271v0.135h0.407v0.135L15.453,35.2v0.135a7.74,7.74,0,0,0,3.253-.271h0.542V34.927h0.407V34.791h0.271V34.656h0.407V34.52H20.6V34.385h0.271l0.136-.271h0.271l0.136-.271h0.271l0.271-.406,0.949-.812V32.354l0.271-.135V31.948l0.271-.135L23.721,31h0.136V30.73h0.136V30.324h0.136V29.918h0.136V29.241H24.4V28.429h0.136a11.6,11.6,0,0,0-.271-3.79H24.128V24.1H23.992V23.826H23.857V23.42H23.721V23.149H23.586V22.878l-0.271-.135L23.179,22.2l-0.271-.135V21.8L22.5,21.524V21.254l-0.271-.135-0.678-.812H21.281l-0.407-.541H20.6l-0.136-.271H20.2l-0.136-.271-0.542-.135V18.952l-0.813-.271V18.546H18.3V18.411H17.893V18.275H17.486V18.14H16.944V18H16.4V17.869Zm213.356,0c-0.335.282-.982-0.014-1.491,0.135V18l-1.355.135v0.135h-0.542v0.135h-0.407v0.135h-0.407v0.135h-0.406v0.135l-0.543.135v0.135a1.271,1.271,0,0,0-.813.541h-0.136v13h0.136V32.9H220l0.813,0.948,0.542,0.135c0.045,0.09.09,0.18,0.136,0.271h0.271v0.135h0.406V34.52h0.272v0.135l0.948,0.135a6.738,6.738,0,0,0,3.931.135H228V34.791l0.813-.135V34.52l0.814-.271V34.114h0.271V33.979l0.542-.135V33.708l0.407-.135,0.135-.271h0.271l0.136-.271,0.542-.406V32.354l0.271-.135c0.045-.18.091-0.361,0.136-0.541h0.135c0.045-.181.091-0.361,0.136-0.542h0.135a12.8,12.8,0,0,0,.543-6.227V24.232C232.265,21.231,229.776,17.745,225.827,17.734Zm38.9,7.581a4.532,4.532,0,0,0-2.44.406h-0.406v0.135h-0.271v0.135h-0.407v0.135h-0.271v0.135h-0.407V26.4h-0.271v0.135h-0.271c-0.045.09-.09,0.18-0.136,0.271l-0.542.135-0.135.271H258.9q-0.137.2-.271,0.406h-0.272v0.135l-0.406.271v0.271l-0.407.271-0.135.677h-0.136v0.406h-0.136a5.921,5.921,0,0,0,0,2.707c0.046,0.135.091,0.271,0.136,0.406h0.136c0.241,0.347-.147.259,0.406,0.406,0.691,0.815,3.463.7,4.338,0.271L262.7,33.3c0.045-.09.09-0.181,0.136-0.271H263.1l0.135-.271h0.271l0.543-.677,0.271-.135V31.678l0.271-.135L264.73,31h0.136V29.376A24.679,24.679,0,0,0,264.73,25.315ZM28.872,41.831h4.067v1.083H30.092v1.9h2.576v1.083H30.092v1.9H33.21a5.351,5.351,0,0,0-.136,1.083h-4.2V41.831Zm11.657,6.5a2.578,2.578,0,0,1,.407-1.083c0.953,0.446,1.541.884,2.711,0.406a1.947,1.947,0,0,0,.271-0.948c-0.154-.154-0.054,0-0.136-0.271-0.335-.144-0.658-0.386-0.949-0.541H42.563V45.757H42.292V45.621l-0.542-.135-0.813-.948a2.146,2.146,0,0,1,.136-1.489,1.368,1.368,0,0,1,.949-0.948c0.7-.741,2.545,0,3.118.271-0.078.272,0.016,0.117-.136,0.271a2.382,2.382,0,0,1-.271.677,4.555,4.555,0,0,0-2.169-.406,1.66,1.66,0,0,0-.407,1.218l0.813,0.677,1.356,0.406,0.813,0.948A1.812,1.812,0,0,1,45,47.652a1.368,1.368,0,0,1-.949.948c-0.258.268-.078,0-0.407,0.135V48.87H43.105v0.135C42.258,49.238,41.142,48.474,40.53,48.329Zm26.026-6.5h1.762a8.5,8.5,0,0,0,.949.406l0.542,0.677h0.136v0.271H70.08v0.271h0.135v0.406h0.136c0.618,1.754-.231,4.412-1.491,4.738v0.135H68.453c-1.027.425-1.352,0.123-2.44,0V48.6l-0.407-.135L65.2,47.923H65.064l-0.136-.541H64.793V47.11H64.658V46.7H64.522V45.892H64.387V44.809h0.136V44h0.136V43.591h0.136l0.136-.541h0.136V42.778l1.084-.812h0.407V41.831Zm5.422,0h4.066v1.083H73.2v1.9h2.576v1.083H73.2V48.87h-1.22V41.831Zm14.1,6.227a1.152,1.152,0,0,0-.542.271v0.135L84.99,48.6v0.135c-0.722.312-2.346,0.364-2.847-.135-1.477-.349-2.145-3.415-1.356-5.144L81.6,42.372h0.271V42.237a1.769,1.769,0,0,0,.407-0.271l2.169-.135a9.511,9.511,0,0,1,1.491.812,8.436,8.436,0,0,1-.542.812l-0.542-.135-0.136-.271a3.844,3.844,0,0,0-2.033,0l-0.407.541H82.144a1.206,1.206,0,0,1-.271.541l-0.136,1.624c0.117,0.431.316,1.045,0.407,1.489a2.046,2.046,0,0,0,.678.406,1.565,1.565,0,0,0,1.22.271V47.787h0.407V47.652h0.271V47.517H84.99a1.1,1.1,0,0,1,.542-0.406v0.135A1.251,1.251,0,0,1,86.075,48.058Zm6.913,0.812h-1.22V48.735H91.632c-0.056-.654-0.33-0.859-0.407-1.489H88.379L87.837,48.87H86.752a7.374,7.374,0,0,1,.813-2.3V46.163H87.7V45.757h0.136V45.351h0.136V44.944h0.136V44.674h0.135l0.136-.812a7.021,7.021,0,0,0,.678-1.9,4.573,4.573,0,0,0,1.491-.135V42.1h0.136l0.135,0.812h0.136V43.32H91.09v0.271h0.135V44h0.136V44.4H91.5l0.271,1.218H91.9v0.271h0.135V46.3h0.136l0.271,1.218h0.136v0.271h0.136A6.015,6.015,0,0,1,92.988,48.87Zm9.082-7.039H106a2.821,2.821,0,0,1,.135,1.083H103.29v1.9h2.575v0.948a9,9,0,0,1-2.575.135V48.87h-1.22V41.831Zm6.913,0c1.479-.049,2.977.122,3.253,1.218,1.028,0.866.669,3.887,0,4.874H112.1l-0.406.541h-0.271V48.6a1.084,1.084,0,0,0-.543.271l-1.491.135-1.22-.406-0.677-.812h-0.136l-0.135-.541h-0.136a6.115,6.115,0,0,1,.271-4.332l0.949-.812,0.678-.135V41.831ZM5.558,41.966h1.22v3.791l0.136,1.625L7.32,47.652a1.636,1.636,0,0,0,1.22.271c0.3-.339.52-0.13,0.678-0.677a3,3,0,0,0,.136-1.489V41.966h1.356c0.046,2.2.451,6.2-1.22,6.633a2.634,2.634,0,0,1-2.44.135,1.551,1.551,0,0,1-1.22-1.083,2.746,2.746,0,0,1-.271-1.76V41.966Zm6.778,0h1.22l0.136,0.406,0.271,0.135v0.271l0.271,0.135,0.136,0.541,0.271,0.135v0.271L14.911,44v0.271h0.135v0.271l0.271,0.135,0.136,0.541,0.271,0.135a2.714,2.714,0,0,1,.407.948h0.136V41.966h1.355v6.769a3.65,3.65,0,0,1-1.22.135L13.691,44.4H13.555V48.87h-1.22v-6.9Zm6.913,0h1.22v6.9h-1.22v-6.9Zm2.44,0h1.22a0.237,0.237,0,0,0,.136.135,6.707,6.707,0,0,0,.678,2.031c0.407,1.02.545,2.114,0.949,3.114h0.136a3.3,3.3,0,0,1,.407-1.354V45.486h0.136V45.08h0.136V44.674h0.136V44.268h0.136V43.861H25.89V43.455a5.63,5.63,0,0,0,.542-1.489h1.22l-2.3,6.9H23.992a0.237,0.237,0,0,0-.136-0.135,5.188,5.188,0,0,0-.542-1.624l-0.271-1.218H22.908V45.621H22.773L22.5,44.4A9.819,9.819,0,0,1,21.688,41.966Zm13.013,0h3.118V42.1L38.5,42.237c0.253,0.416.994,1.13,0.813,1.9H39.174v0.677H39.039a1.368,1.368,0,0,1-.949.948l1.627,3.114H38.361a13.939,13.939,0,0,0-1.491-2.707H35.921V48.87H34.7v-6.9Zm11.928,0h1.22v6.9h-1.22v-6.9Zm2.576,0h4.88l-0.136,1.083H52.187V48.87h-1.22V43.049H49.2V41.966Zm5.693,0h1.355c0.209,1.065.982,1.73,1.22,2.843a0.237,0.237,0,0,0,.136-0.135,3.362,3.362,0,0,0,.542-1.083h0.136V43.32a4.937,4.937,0,0,0,.678-1.354H60.32a2.791,2.791,0,0,1-.542.948l-0.136.541H59.507L59.371,44l-0.271.135V44.4l-0.271.271v0.271H58.693v0.271l-0.271.135v0.271H58.287v3.114a4.194,4.194,0,0,1-1.356.135V45.757H56.8V45.486H56.66V45.215H56.525V44.944l-0.271-.271V44.4l-0.271-.135V44H55.847V43.726l-0.271-.271V43.185L55.3,43.049V42.778H55.169Zm39.038,0h1.22v5.821h2.982A4.625,4.625,0,0,1,98,48.87H93.937v-6.9Zm5.287,0h1.356v6.769a4.2,4.2,0,0,1-1.356.135v-6.9Zm14.639,0h3.118V42.1l0.678,0.135,0.678,0.948c0.045,1.321-.077,2.322-1.085,2.572a3.6,3.6,0,0,0,.542.948q0.069,0.271.136,0.541h0.136l0.135,0.541,0.271,0.135v0.271h0.136l0.135,0.677h-1.22a13.987,13.987,0,0,0-1.491-2.707h-0.949V48.87h-1.22v-6.9Zm7.185,0,0.135,0.406h0.136v0.271h0.135v0.271l0.271,0.135V43.32L122,43.455v0.271h0.135V44l0.271,0.135c0.045,0.181.091,0.361,0.136,0.541l0.271,0.135V45.08l0.271,0.135,0.135,0.541,0.272,0.135,0.135,0.406h0.136V41.966h1.22v6.9h-1.085a1.256,1.256,0,0,0-.271-0.271V48.329l-0.271-.135q-0.067-.271-0.136-0.541l-0.271-.135V47.246l-0.271-.135-0.135-.406H122.4l-0.135-.541L122,46.027V45.757l-0.272-.135-0.135-.541-0.271-.135c-0.045-.135-0.091-0.271-0.136-0.406h-0.135v4.2a4.2,4.2,0,0,1-1.356.135V42.1A4.2,4.2,0,0,1,121.047,41.966Zm5.422,0h1.22v6.9h-1.22v-6.9Zm6.1,0q1.153,3.452,2.3,6.9h-1.22q-0.271-.812-0.542-1.624h-2.847q-0.272.812-.542,1.624h-1.085a2.937,2.937,0,0,1,.407-1.083q0.136-.609.271-1.218h0.136V46.3h0.135q0.069-.406.136-0.812h0.135q0.069-.406.136-0.812h0.136V44.4h0.135V44H130.4V43.591q0.339-.812.677-1.625h1.491Zm-65.742.948v0.135H66.555l-0.271.406H66.149c-0.353.526-.71,2.784-0.136,3.384a0.77,0.77,0,0,0,.407.542l0.271,0.406H67.1a1.875,1.875,0,0,0,1.356-.135,7.449,7.449,0,0,0,.678-1.218,6.533,6.533,0,0,0-.271-2.843l-0.813-.677h-1.22Zm42.428,0a2.211,2.211,0,0,0-.814.948,5.332,5.332,0,0,0-.271,2.708h0.136V46.84h0.135c0.24,0.449.118,0.671,0.678,0.812a1.437,1.437,0,0,0,1.085.271V47.787h0.406l0.542-.677a4.31,4.31,0,0,0,.407-2.708,8.846,8.846,0,0,1-.407-0.948,2.967,2.967,0,0,1-.677-0.541h-1.22Zm-73.333.135V45.08a4.052,4.052,0,0,0,1.762-.271,2.757,2.757,0,0,0,.271-1.354,0.91,0.91,0,0,1-.407-0.406H35.921Zm79.161,0V45.08a4.055,4.055,0,0,0,1.763-.271,2.758,2.758,0,0,0,.271-1.354,0.911,0.911,0,0,1-.407-0.406h-1.627ZM88.786,46.3h2.033a5.272,5.272,0,0,0-.271-1.083H90.412V44.944H90.277V44.538H90.141V44.132H90.006L89.87,43.32H89.735v0.135H89.6Zm41.885,0H132.7l-0.949-2.978c-0.154.154-.054,0-0.135,0.271h-0.136Z"/>
</svg>
