<svg xmlns="http://www.w3.org/2000/svg" width="225" height="36" viewBox="0 0 225 36">
  <metadata><?xpacket begin="﻿" id="W5M0MpCehiHzreSzNTczkc9d"?>
<x:xmpmeta xmlns:x="adobe:ns:meta/" x:xmptk="Adobe XMP Core 5.6-c138 79.159824, 2016/09/14-01:09:01        ">
   <rdf:RDF xmlns:rdf="http://www.w3.org/1999/02/22-rdf-syntax-ns#">
      <rdf:Description rdf:about=""/>
   </rdf:RDF>
</x:xmpmeta>
                                                                                                    
                                                                                                    
                                                                                                    
                                                                                                    
                                                                                                    
                                                                                                    
                                                                                                    
                                                                                                    
                                                                                                    
                                                                                                    
                                                                                                    
                                                                                                    
                                                                                                    
                                                                                                    
                                                                                                    
                                                                                                    
                                                                                                    
                                                                                                    
                                                                                                    
                                                                                                    
                           
<?xpacket end="w"?></metadata>
<defs>
    <style>
      .cls-1 {
        fill: #fff;
        fill-rule: evenodd;
      }
    </style>
  </defs>
  <path class="cls-1" fill="#ffffff" d="M13.292,12.538l0.915,0.274V12.9l0.824,0.274v0.091L15.4,13.361l0.092,0.183,0.549,0.183,0.091,0.183h0.183L16.4,14.092h0.183l0.183,0.274h0.183L17.595,15.1l0.366,0.274v0.183l0.275,0.183L18.327,16.1l0.183,0.091v0.274H18.6v0.183h0.091v0.274h0.092V17.2h0.091v0.366h0.092v0.457h0.091L18.968,20.4H18.876v0.366H18.785l-0.092.548H18.6l-0.183.548H18.327l-0.091.366-0.183.091V22.5l-0.275.183v0.183l-0.183.091-0.458.548H16.954l-0.275.366H16.5l-0.091.183-0.549.183-0.092.183-2.472.823-1.831.183v0.091H8.348V25.425H7.524V25.334H6.7V25.242H5.785V25.151l-4.12.091c-0.173.015-.183,0.091-0.183,0.091A1.8,1.8,0,0,1,.2,25.151H0.108V24.6l0.183-.091c0.516-.491,2.147.134,2.655-0.366a3.366,3.366,0,0,0,.092-1.462V3.581a2.8,2.8,0,0,1-.183-0.823H2.763L2.672,2.393H2.58V2.21a4.833,4.833,0,0,0-.549-0.366H0.841l-1.373-.183a1.75,1.75,0,0,1-.092-0.64A28.493,28.493,0,0,1,3.954.93H5.6V0.839l3.3-.091a13.658,13.658,0,0,1,5.035.548l0.549,0.091V1.479L14.848,1.57V1.661L15.4,1.844V1.936l0.275,0.091L15.764,2.21h0.183L16.5,2.85l0.458,0.366a5.1,5.1,0,0,1,.915,3.016v1.1L17.32,8.973l-0.183.091-0.092.366-0.275.183V9.8l-0.732.64-0.366.457H15.489l-0.183.274H15.123l-0.092.183-0.275.091v0.091H14.573l-0.092.183-0.275.091V11.9H14.024V11.99H13.841l-0.092.183H13.566v0.091C13.313,12.423,13.4,12.178,13.292,12.538Zm68.3,12.522a24.419,24.419,0,0,1-3.845.091,25.081,25.081,0,0,1-3.937-.091V24.511l0.366-.091V24.328h0.732a4.666,4.666,0,0,0,1.648-.183,7.677,7.677,0,0,0,.092-2.1V3.124H76.553V2.85H76.461V2.758a0.982,0.982,0,0,1-.183-0.183H76.1V2.484l-1.922-.091A1.215,1.215,0,0,0,73.9,2.027l0.092-.366,3.2-.366,2.014-.548L79.3,0.93a2.986,2.986,0,0,1,.091,1.645A29.846,29.846,0,0,0,79.3,6.963q-0.046,5.575-.092,11.151v0.366H79.116v4.479h0.092V23.6H79.3l0.091,0.457a0.867,0.867,0,0,1,.183.183h0.183v0.091c0.571,0.216,1.329-.226,1.74.183,0.093,0.071.09,0.112,0.183,0.183ZM50.37,0.839c0.058,1.057,0,2.766,0,4.113a9.655,9.655,0,0,1-.092,2.194q-0.092,5.986-.183,11.973a1.165,1.165,0,0,0,.458.091,0.716,0.716,0,0,1,.366-0.183V18.936H51.1l0.092-.183h0.183l0.091-.183h0.183l0.183-.274h0.183l0.183-.274h0.183l0.092-.183,0.275-.091,0.275-.366h0.183l0.366-.457h0.183l0.458-.548H54.4l0.458-.548,0.275-.091,0.732-.823c0.793-.791,1.657-1.22,1.648-2.833a0.957,0.957,0,0,1-.183-0.183H57.144V11.807H55.5a0.209,0.209,0,0,0-.183-0.091,1.43,1.43,0,0,1-.092-0.548h0.092V11.076l0.641-.091v0.091h1.1v0.091H57.6a15.534,15.534,0,0,1,2.106-.091,1.19,1.19,0,0,1,.641-0.091v0.091l0.275,0.091-0.366.731-0.275.183v0.183l-0.275.183v0.183l-0.641.548v0.183l-0.458.366-0.732.823H57.694l-0.641.731H56.87l-0.183.274-0.275.183v0.091H56.229l-0.183.274H55.954l-0.092.183H55.679l-0.275.366-0.275.091-0.366.457-0.366.274c-0.05.175,0.056,0.126,0.092,0.183a1.517,1.517,0,0,0,.366.64l0.183,0.091V18.57L55.5,18.936v0.183l0.458,0.366v0.183l0.458,0.366v0.183L56.687,20.4V20.49l0.183,0.091v0.183l0.549,0.457V21.4l0.366,0.274v0.183l0.366,0.274v0.183l0.366,0.274v0.183l0.549,0.457v0.183l0.183,0.091,0.275,0.366h0.183l0.275,0.366,0.366,0.091V24.42l1.19,0.091V24.6L62,24.694a1.16,1.16,0,0,1,.092.457,0.16,0.16,0,0,0-.092.091,15.7,15.7,0,0,1-1.648.091l-0.732-.091v0.091a7.326,7.326,0,0,1-2.106-.091l-0.458-.548H56.961V24.511l-0.275-.183V24.146l-0.275-.183V23.78l-0.366-.274V23.323l-0.458-.366V22.775l-0.549-.457-0.092-.274-0.275-.183V21.678L54.306,21.4V21.221l-0.366-.274-0.092-.274-0.183-.091V20.4l-0.275-.183V20.033l-0.275-.183V19.667l-0.366-.274c-0.2-.278-0.1-0.4-0.549-0.457a4.292,4.292,0,0,1-1.007.64l-0.092.183-0.366.091-0.092.183H50.461v0.091l-0.275.183V20.49H50.095a20.852,20.852,0,0,0,.183,3.656l0.458,0.091v0.091c0.688,0.219,1.837-.27,2.289.183h0.091v0.274a0.628,0.628,0,0,1,.092.091H53.116l-0.091.274H45.151a0.76,0.76,0,0,1-.183-0.548,0.764,0.764,0,0,1,.549-0.183V24.328h1.648a0.205,0.205,0,0,1,.183-0.091,5.709,5.709,0,0,0,.092-1.645,3.091,3.091,0,0,0,.092-1.371V8.608a16.6,16.6,0,0,0,0-3.93V3.4c-0.069-.228-0.219-0.472-0.275-0.731a0.351,0.351,0,0,1-.275-0.183h-1.1L44.877,2.3a1.158,1.158,0,0,1-.092-0.457c0.1-.1.036,0,0.092-0.183a5.027,5.027,0,0,1,1.465-.091,5.919,5.919,0,0,1,1.465-.183V1.3L48.722,1.2A5.182,5.182,0,0,1,50.37.839Zm91.642,0.823,2.2-.183V1.387h0.457V1.3h0.458V1.2h0.366V1.113h0.458V1.022l1.373-.183a1.748,1.748,0,0,1,.092.64h-0.092V2.027a9.9,9.9,0,0,0-.183,2.559q-0.045,2.833-.091,5.667a16.558,16.558,0,0,0,.091,2.559,1.44,1.44,0,0,0,.549.091,0.761,0.761,0,0,1,.367-0.183V12.629h0.183V12.538h0.183l0.183-.183h0.183l0.092-.183h0.183l0.183-.183h0.183V11.9h0.183V11.807h0.183V11.715l0.549-.183V11.441h0.275V11.35H150.8V11.258l0.824-.183V10.984h0.549V10.893h0.55v0.091h0.732v0.091h0.366v0.091H154.1v0.091h0.275V11.35l0.549,0.183v0.091l0.366,0.091,0.183,0.274h0.183l0.366,0.457,0.824,0.731v0.183l0.184,0.091v0.183l0.183,0.091c0.03,0.122.061,0.244,0.091,0.366l0.183,0.091c0.031,0.152.061,0.3,0.092,0.457h0.091c0.031,0.122.061,0.244,0.092,0.366h0.092q0.137,0.594.274,1.188h0.092V16.56h0.091v0.548H158.4v0.914a1.751,1.751,0,0,1,.091.823H158.4v0.823q-0.229.822-.458,1.645H157.85q-0.093.274-.184,0.548h-0.091c-0.031.122-.061,0.244-0.092,0.366l-0.183.091V22.5l-0.183.091v0.183l-0.275.183V23.14l-0.549.457-0.458.548h-0.183l-0.183.274-0.366.091-0.092.183h-0.183v0.091h-0.183v0.091h-0.274v0.091h-0.184V25.06h-0.274v0.091h-0.275v0.091h-0.274v0.091h-0.458v0.091a11.551,11.551,0,0,1-2.747.091V25.425H149.61V25.334h-0.366V25.242h-0.366V25.151h-0.367V25.06h-0.274V24.968h-0.275a5.166,5.166,0,0,0-2.014-.64l-0.549.731c-0.279.6,0.112,1.18-.824,1.188a9.106,9.106,0,0,1-.092-2.559,3.093,3.093,0,0,0,.092-1.371V8.7a35.931,35.931,0,0,0-.183-5.758l-0.275-.183V2.667h-0.183V2.575H143.11V2.484a3.5,3.5,0,0,1-1.1-.091H141.92V1.844C142.024,1.74,141.956,1.844,142.011,1.661Zm-8.239,20.748c0.03,0.122.061,0.244,0.091,0.366h-0.091c-0.031.152-.061,0.3-0.092,0.457h-0.091v0.183l-0.183.091q-0.138.411-.275,0.823h-0.092v0.183h-0.091v0.274h-0.092a0.7,0.7,0,0,1-.183.457v0.091h-4.12a2.049,2.049,0,0,0-1.007-.091h-2.563c-3.38,0-7.171.061-10.254,0a0.8,0.8,0,0,1-.183-0.64,1.006,1.006,0,0,1,.733-0.274c0.608-.5,2.126.542,2.2-0.731a3.627,3.627,0,0,0,.091-1.554v-4.2q0.047-4.3.092-8.592a18.865,18.865,0,0,0-.092-4.022V3.672h-0.091V3.032h-0.092V2.667h-0.091V2.484H117.2V2.3l-0.274-.183V2.027H115V1.936l-0.458-.091a1.17,1.17,0,0,1-.091-0.457c0.1-.1.036,0,0.091-0.183,0.184-.034.183-0.091,0.183-0.091h0.458V1.022a1.909,1.909,0,0,1,.824.091H122.6l1.648-.091V1.113h0.915a1.748,1.748,0,0,1,.092.64l-0.275.091a2.735,2.735,0,0,1-1.465.183,11.345,11.345,0,0,0-2.289.274,1.727,1.727,0,0,1-.274.274V16.651a6.712,6.712,0,0,0-.092,2.011l0.183,4.022h0.092v0.366a1.714,1.714,0,0,0,.641,1.005c0.344,0.347,2.632.183,3.387,0.183a17.657,17.657,0,0,0,5.218-.548l0.733-.091,1.739-.731V22.775h0.183V22.683A2.421,2.421,0,0,1,133.772,22.409ZM6.609,2.118a22.466,22.466,0,0,0-.092,3.473V11.9L6.792,11.99a2.827,2.827,0,0,0,1.282.091l3.113,0.091v0.091c0.32,0.089.688,0,.915,0.091V12.264A4.912,4.912,0,0,0,14.39,9.43l0.091-1.371h0.092L14.482,6.6H14.39V6.231H14.3l-0.091-.64H14.116V5.409H14.024V5.135H13.933l-0.091-.366H13.749L13.658,4.4l-0.183-.091V4.129l-0.183-.091V3.855l-0.275-.183V3.489l-0.366-.274-0.366-.457H12.1L12.01,2.575H11.827a3.853,3.853,0,0,0-2.655-.823H7.616V1.844H7.158V1.936H6.883V2.027ZM138.99,4.678a3.683,3.683,0,0,1,.824.091,1.051,1.051,0,0,1,.183.366h0.092a2.463,2.463,0,0,1-.183,1.188h-0.092V6.506h-0.091V6.688h-0.092a0.687,0.687,0,0,1-.458.366,0.879,0.879,0,0,1-1.281-.366H137.8V6.049h0.092V5.774h0.091c0.031-.122.061-0.244,0.092-0.366l0.457-.366,0.092-.183A0.91,0.91,0,0,0,138.99,4.678ZM25.926,10.71h1.739V10.8L28.4,10.893v0.091l0.549,0.091v0.091L29.4,11.258V11.35l0.366,0.091v0.091l0.366,0.091v0.091l0.275,0.091L30.5,11.99h0.183l0.092,0.183h0.183l0.183,0.274h0.183l0.458,0.548,0.458,0.366v0.183l0.366,0.274V14a2.255,2.255,0,0,1,.641,1.188l-0.275.091v0.091l-0.641.091v0.091H31.876v0.091H31.51v0.091H31.052v0.091H30.595c-0.935.291-2.146,0.36-3.113,0.64H26.75V16.56H26.017v0.091H25.193v0.091H24.186v0.091H23.179v0.091H23L22.9,17.2a2.45,2.45,0,0,0-.091,1.188l0.275,1.645h0.092v0.274h0.092V20.49h0.092l0.092,0.457,0.183,0.091L23.728,21.4,23.912,21.5v0.183l0.366,0.274,0.549,0.64H25.01L25.1,22.775h0.183l0.091,0.183,0.366,0.091V23.14l0.549,0.183v0.091h0.275v0.091h0.275V23.6h0.366v0.091h0.366V23.78h0.549v0.091a6.521,6.521,0,0,0,2.106-.091h0.641l2.2-.731a1.065,1.065,0,0,1,.183.366H33.158a3.349,3.349,0,0,1-1.19.823c-1.341.884-3.977,2.032-6.317,1.28l-0.732-.091a6.689,6.689,0,0,1-4.211-3.93V21.13H20.616V20.855H20.524V20.4H20.433V19.85H20.341a10.634,10.634,0,0,1,.092-2.651V16.651c0.633-2.106,1.228-3.522,2.838-4.661l0.183-.274h0.183l0.091-.183,1.465-.64A2.481,2.481,0,0,0,25.926,10.71Zm40.648,0h1.74V10.8l0.732,0.091v0.091L69.6,11.076v0.091l0.458,0.091V11.35l0.366,0.091v0.091H70.6l0.092,0.183,0.366,0.091V11.9l0.275,0.091,0.092,0.183h0.183l0.275,0.366h0.183l0.549,0.64L72.8,13.269v0.183l0.366,0.274v0.183l0.275,0.183a2.947,2.947,0,0,1,.458,1.1l-0.275.091a1.851,1.851,0,0,1-.732.183v0.091H72.525v0.091H72.159v0.091H71.7v0.091H71.243c-1.157.36-2.64,0.385-3.845,0.731H66.666v0.091H65.842v0.091H64.835v0.091H63.827v0.091H63.644l-0.092.274a2.264,2.264,0,0,0-.092,1.1,5.286,5.286,0,0,0,.641,2.468l0.092,0.366,0.183,0.091V21.4L64.56,21.5v0.183l0.366,0.274,0.549,0.64h0.183l0.183,0.274,0.366,0.091v0.091h0.183V23.14l0.549,0.183v0.091L67.764,23.6v0.091l1.007,0.091a6.532,6.532,0,0,0,2.106.091V23.78h0.549V23.689h0.458V23.6H72.25a5.971,5.971,0,0,1,1.465-.548,1.159,1.159,0,0,1,.092.457l-0.366.183-0.092.183H73.166l-0.091.183H72.891l-0.092.183-0.366.091-0.091.183-0.366.091v0.091l-0.549.183v0.091H71.151V25.06H70.968v0.091H70.694v0.091H70.419v0.091H70.144v0.091H69.87v0.091l-0.824.091V25.7H68.222a7.349,7.349,0,0,1-2.93-.457l-1.1-.366L64.1,24.694,63.736,24.6l-0.183-.274H63.37L63,23.871a5.909,5.909,0,0,1-1.831-2.925V20.49H61.081V20.033H60.989V19.027H60.9l0.092-1.919h0.092V16.56l0.641-2.011h0.091V14.366L62,14.275l0.183-.548,0.183-.091V13.452l1.373-1.462h0.183l0.183-.274h0.183l0.091-.183,1.465-.64A2.477,2.477,0,0,0,66.574,10.71Zm17.12,6.215a2.522,2.522,0,0,0-.183,1.28H83.6v0.914h0.091v0.457h0.092v0.366h0.092v0.274h0.092V20.49H84.06v0.183h0.092l0.183,0.548,0.183,0.091V21.5l0.275,0.183v0.183l0.183,0.091,0.366,0.457h0.183L85.8,22.775l0.366,0.091,0.091,0.183H86.44V23.14l0.366,0.091v0.091h0.275v0.091h0.183v0.091L87.905,23.6v0.091h0.366a7.74,7.74,0,0,0,2.655.183V23.78l1.1-.091V23.6H92.3V23.506h0.275V23.414h0.275V23.323h0.275a1.358,1.358,0,0,1,.641-0.274,1.065,1.065,0,0,1,.183.366H93.856a2.512,2.512,0,0,1-1.007.731l-0.091.183-0.366.091v0.091H92.208V24.6l-0.366.091A7.141,7.141,0,0,1,88.271,25.7H86.99V25.608l-1.007-.091V25.425H85.708V25.334H85.433V25.242H85.159V25.151H84.884V25.06H84.7V24.968l-0.549-.183L84.06,24.6H83.877a7.036,7.036,0,0,1-1.007-.914L82.5,23.414V23.232l-0.275-.183V22.866l-0.183-.091-0.091-.366H81.863l-0.183-.548H81.588l-0.183-.823H81.314V20.673H81.222V20.307H81.13l-0.091-2.833L81.588,15.1H81.68l0.092-.366h0.091V14.549h0.092V14.366h0.091V14.183L82.229,14V13.818l0.183-.091V13.543l0.183-.091V13.269l0.366-.274V12.812l0.549-.457,0.092-.183h0.183l0.275-.366h0.183l0.092-.183h0.183l0.092-.183,0.824-.274V11.076h0.183V10.984l0.641-.091c2.168-.718,4.46.589,5.676,1.462l0.732,0.823a7.074,7.074,0,0,1,.915,1.005v0.183l0.183,0.091a1.364,1.364,0,0,1,.183.731l-0.275.091a6.593,6.593,0,0,1-1.465.457H91.842v0.091H91.384c-1.164.363-2.636,0.384-3.845,0.731H86.807v0.091H85.891v0.091H84.884v0.091H83.877v0.091H83.694Zm59.141,8.134c-0.194.035-.573,0.141-0.732,0.183a1.35,1.35,0,0,1-.641-0.091h-5.035l-1.1.091V25.151H134.87a0.8,0.8,0,0,1-.183-0.64,6.993,6.993,0,0,1,2.564-.183c0.374-.73.183-2.34,0.183-3.382V13.178l-0.366-1.1c-0.292-.414-1.623-0.269-2.2-0.366a1.435,1.435,0,0,1-.091-0.548h0.091V11.076h0.458V10.984h3.388V10.893h0.549V10.8c0.277-.08.509,0.005,0.732-0.091V10.8c0.2,0.13.184,0.216,0.183,0.548h0.092v0.64a12.553,12.553,0,0,0-.092,2.742q-0.045,3.975-.091,7.952h0.091v0.731h0.092c0.03,0.183.061,0.366,0.091,0.548a1.936,1.936,0,0,1,.275.274H142.1v0.091h0.549A1.176,1.176,0,0,1,142.835,25.06ZM39.2,12.9a2.094,2.094,0,0,0,.916-0.366l0.183-.274h0.183l0.091-.183h0.183l0.092-.183,0.275-.091V11.715h0.183V11.624l0.549-.183V11.35l0.549-.091V11.167h0.366V11.076H43.32v0.091h0.366v0.091H43.87V11.35h0.275v0.091h0.183l0.092,0.183H44.6l0.732,0.823a2.539,2.539,0,0,1-.366,1.462v0.274H44.877a1.4,1.4,0,0,1-.183.457H44.327a4.564,4.564,0,0,0-1.465-1.28H42.5a2.965,2.965,0,0,0-3.113.914,4.36,4.36,0,0,0-.183,1.919v4.113c0,1.018-.24,3.475.366,3.839,0.373,0.356,1.89.106,2.472,0.274h0.641v0.091h0.092V25.06a8.832,8.832,0,0,1-2.472.091c-0.3-.266-1.34-0.049-1.831-0.091-0.172-.015-0.183-0.091-0.183-0.091a2.614,2.614,0,0,0-1.007.091l-3.021.091a1.749,1.749,0,0,1-.092-0.64,0.16,0.16,0,0,0,.092-0.091l2.106-.091c0.384-.749.183-2.409,0.183-3.473V12.812H36.454V12.355A2,2,0,0,1,36,11.99L34.074,11.9a2.063,2.063,0,0,1,0-.823l1.1-.091a11.157,11.157,0,0,0,2.747.091,4.546,4.546,0,0,1,1.1-.183A4.858,4.858,0,0,1,39.2,12.9ZM182.751,23.871v0.274l-0.915.823-0.092.183h-0.183l-0.183.274H181.2v0.091a1.066,1.066,0,0,0-.275.183,2.62,2.62,0,0,1-1.282-.366l-0.274-.366h-0.183l-0.458-.548-0.183-.091V24.146l-0.275-.183V23.78l-0.274-.183c-0.216-.3-0.056-0.386-0.55-0.457a1.9,1.9,0,0,1-.641.457l-0.183.274h-0.183l-0.183.274h-0.183l-0.092.183h-0.183l-0.091.183-0.366.091-0.092.183h-0.183v0.091l-0.366.091V25.06H174.42v0.091h-0.183v0.091l-0.549.091v0.091h-0.367a2.877,2.877,0,0,1-1.373.183V25.517l-0.824-.091V25.334l-0.549-.183-0.549-.731V24.146h-0.092q-0.045-.685-0.091-1.371h0.091v-0.64h0.092V21.769h0.091V21.5h0.092V21.312H170.3V21.038l0.183-.091c0.031-.122.061-0.244,0.092-0.366l0.275-.183V20.216l0.366-.274,0.549-.64h0.183l0.092-.183,0.274-.091V18.936l0.55-.183V18.662h0.183V18.57l0.549-.183V18.3h0.275V18.2h0.183V18.113l0.549-.091V17.931h0.275V17.839h0.274V17.748h0.275V17.656H175.7V17.565h0.274V17.474l0.641-.091V17.291l0.641-.091,0.092-.183,0.183-.091v-3.2l-0.275-.823h-0.091l-0.367-.457a0.857,0.857,0,0,1-.366-0.183,7.168,7.168,0,0,0-2.2,0h-0.549a11.689,11.689,0,0,1-1.1.457c0.032,1.092-.389,2.634-1.19,2.833v0.091h-0.641a1.268,1.268,0,0,1-.275-1.005h0.092c0.031-.183.061-0.366,0.092-0.548h0.091c0.031-.122.061-0.244,0.092-0.366h0.091V13.543l0.183-.091V13.269l0.275-.183V12.9l0.641-.548,0.091-.183h0.183L172.5,11.9h0.183l0.091-.183h0.183V11.624l0.55-.183V11.35l0.824-.183V11.076l1.19-.091V10.893a2.02,2.02,0,0,1,.915.091h0.824v0.091h0.366v0.091l0.824,0.183,1.1,0.823v0.183l0.183,0.091c0.031,0.122.061,0.244,0.092,0.366h0.091v0.183h0.092a7.2,7.2,0,0,1,.091,2.194v4.844a6.855,6.855,0,0,0,.092,2.1h0.091l0.183,0.548,0.184,0.091A4.261,4.261,0,0,0,182.751,23.871ZM98.983,12.081l-0.092.366H98.8a1.58,1.58,0,0,0,.091.823l0.183,0.914h0.092l0.091,0.366h0.092v0.274H99.44v0.183h0.092l0.092,0.366h0.092v0.274h0.091v0.183H99.9l0.091,0.366h0.091v0.274h0.092c0.03,0.122.061,0.244,0.091,0.366h0.092v0.274h0.092c0.03,0.122.061,0.244,0.091,0.366h0.092v0.274h0.091c0.031,0.122.061,0.244,0.092,0.366h0.091v0.274H101V18.57h0.091c0.031,0.152.061,0.3,0.092,0.457h0.091V19.3h0.092v0.183h0.092v0.274h0.091v0.183h0.092v0.274h0.091V20.4h0.092v0.274h0.091l0.183,0.548h0.092V21.4h0.092a0.791,0.791,0,0,1,.183.366h0.274V21.678h0.092V21.587h0.091V21.4h0.092V21.221H103.1V21.038h0.092V20.764h0.092V20.49h0.091V20.307h0.092V20.033h0.091c0.031-.183.061-0.366,0.092-0.548h0.091V19.21h0.092V18.936h0.091V18.662h0.092V18.388h0.092V18.113H104.2c0.031-.183.061-0.366,0.092-0.548h0.091c0.031-.183.061-0.366,0.092-0.548h0.091l0.183-.823h0.092V15.92h0.091V15.646h0.092V15.371h0.092V15.1h0.091V14.823H105.3l0.183-.914h0.091V13.543h0.092V12.172a0.84,0.84,0,0,1-.183-0.183H105.3V11.9c-0.56-.211-1.489.225-1.923-0.183h-0.091V11.258c0.1-.1.036,0,0.091-0.183h0.366V10.984l2.472,0.091H107.5V10.984h1.648a1.751,1.751,0,0,1,.091.64,5.294,5.294,0,0,1-1.19.366l-0.274.457H107.68v0.183l-0.183.183v0.183h-0.092v0.183l-0.183.091c-0.03.152-.061,0.3-0.091,0.457h-0.092v0.183h-0.091v0.183h-0.092l-0.183.548h-0.092v0.274H106.49c-0.031.122-.061,0.244-0.092,0.366h-0.091v0.274h-0.092c-0.03.122-.061,0.244-0.091,0.366h-0.092v0.274h-0.091v0.183h-0.092v0.274h-0.092c-0.03.122-.061,0.244-0.091,0.366h-0.092v0.274h-0.091v0.183h-0.092c-0.03.152-.061,0.3-0.091,0.457h-0.092V18.2h-0.091v0.183h-0.092v0.274h-0.092v0.183h-0.091v0.274c-1.477,3.266-2.736,6.787-4.394,9.871v0.183h-0.092v0.183h-0.092v0.183h-0.091v0.183h-0.092V29.9H99.99l-0.183.548H99.715L99.532,31H99.44l-0.091.366H99.257l-0.091.366H99.074v0.183H98.983V32.1H98.891V32.28H98.8v0.183H98.708v0.183H98.617v0.183H98.525v0.183H98.433v0.183H98.342v0.183H98.25V33.56H98.159l-0.091.183H97.884l-0.092.183H97.426a2.594,2.594,0,0,1-1.007.183c-0.482.141-1.954,0.7-2.472,0.183H93.856V34.017l1.007-.366V33.56h0.183V33.468h0.183l0.092-.183,0.366-.091,0.275-.366h0.183l0.275-.366h0.091V32.28l0.366-.274V31.823l0.275-.183V31.458l0.366-.274V31l0.183-.091V30.726l0.275-.183,0.092-.274,0.183-.091V30l0.183-.091V29.721l0.275-.183V29.355l0.183-.091,0.092-.274h0.092V28.807l0.183-.091V28.533l0.183-.091V28.259l0.183-.091V27.984l0.183-.091,0.092-.366,0.183-.091c0.031-.122.061-0.244,0.092-0.366l0.183-.091V26.8l0.183-.183V26.431h0.092V26.248a1.218,1.218,0,0,0,.274-0.914h-0.091V25.06h-0.092V24.877h-0.091c-0.031-.183-0.061-0.366-0.092-0.548h-0.091c-0.031-.152-0.062-0.3-0.092-0.457h-0.092c-0.03-.122-0.061-0.244-0.091-0.366h-0.092V23.232H99.99V23.049H99.9l-0.092-.457H99.715V22.318H99.624l-0.092-.366H99.44V21.678H99.349l-0.092-.366H99.166l-0.092-.457H98.983V20.581H98.891L98.8,20.216H98.708V19.941H98.617l-0.092-.366H98.433V19.3H98.342l-0.092-.366H98.159V18.662H98.067L97.976,18.3H97.884V18.022H97.793L97.7,17.656H97.609V17.382H97.518V17.2H97.426V16.925H97.335l-0.092-.366H97.152V16.285H97.06l-0.092-.366H96.877V15.646H96.786l-0.092-.366H96.6V15.006H96.511l-0.091-.366H96.328V14.366H96.236L96.145,14H96.053V13.726H95.962l-0.091-.366H95.778V13.178H95.687V12.995H95.6V12.812l-0.183-.183V12.447l-0.183-.091-0.091-.274H94.955a1.814,1.814,0,0,0-1.19-.183,1.135,1.135,0,0,1,0-.64l0.275-.091a6.137,6.137,0,0,1,1.922-.091,13.173,13.173,0,0,0,2.106,0h1.282V10.984l1.19,0.091a1.176,1.176,0,0,1,.183.731h-0.091V11.9A7.225,7.225,0,0,0,98.983,12.081ZM163.434,12.9a1.392,1.392,0,0,0,.824-0.274l0.183-.274h0.183l0.092-.183H164.9l0.091-.183h0.184l0.091-.183,0.366-.091,0.092-.183H166V11.441h0.184V11.35h0.274V11.258a3.144,3.144,0,0,1,1.557,0V11.35h0.274l1.007,0.731v0.183h0.092a1.109,1.109,0,0,0,.183.274,3.119,3.119,0,0,1-.458,1.554c-0.03.152-.061,0.3-0.091,0.457h-0.092a0.31,0.31,0,0,1-.275.183,1.291,1.291,0,0,0-.366-0.274V14.275l-0.183-.091-0.183-.274h-0.183l-0.183-.274-0.366-.091V13.452h-0.183V13.361h-0.458a3.9,3.9,0,0,0-2.289.274l-0.092.183h-0.183L163.8,14v0.183l-0.183.091a4.157,4.157,0,0,0-.183,1.1h-0.091v4.661c0,1.146-.214,3.709.457,4.113v0.091h0.275v0.091h1.007l1.831,0.091a3.169,3.169,0,0,1,.092.64,7.818,7.818,0,0,1-2.2.091c-0.352-.31-1.31.052-1.831-0.091V24.968h-1.648V25.06l-2.838.091a1.751,1.751,0,0,1-.091-0.64h0.091V24.42c0.617-.027,1.367-0.089,2.106-0.091,0.384-.749.183-2.409,0.183-3.473V12.812a1.647,1.647,0,0,0-.366-0.64c-0.41-.392-1.638.053-2.014-0.274h-0.092V11.167a9.182,9.182,0,0,1,2.564-.091,1.284,1.284,0,0,0,.824.091,6.62,6.62,0,0,1,1.648-.183,4.667,4.667,0,0,1,.091,1.371h-0.091C163.373,12.538,163.4,12.721,163.434,12.9Zm24.9,0H188.7a2.317,2.317,0,0,1,.824-0.548l0.091-.183H189.8l0.091-.183h0.183l0.092-.183,0.366-.091,0.091-.183,0.458-.091V11.35h0.183V11.258h0.367V11.167a3.3,3.3,0,0,1,1.281.091V11.35H193.1v0.091l0.55,0.183,0.183,0.274h0.183l0.183,0.183v0.183l0.183,0.091c0.031,0.213.061,0.427,0.092,0.64h-0.092q-0.045.32-.092,0.64H194.2v0.274H194.1v0.183h-0.091c-0.108.205-.184,0.441-0.275,0.64-0.184-.052-0.079.011-0.183-0.091a3.63,3.63,0,0,1-1.007-.823c-0.03-.061-0.061-0.122-0.092-0.183l-1.007-.366a2.228,2.228,0,0,0-1.007.091h-0.549v0.091h-0.366L188.7,14c-0.513.7-.458,1.882-0.458,3.108a42.869,42.869,0,0,0,.183,6.946l0.275,0.091v0.091h0.275v0.091h0.915l1.831,0.091a0.758,0.758,0,0,1,.183.548c-0.1.1-.036,0-0.091,0.183l-5.585-.183V25.06l-2.838.091a1.748,1.748,0,0,1-.092-0.64h0.092V24.42c0.595-.053,1.38-0.09,2.106-0.091,0.384-.749.183-2.409,0.183-3.473V12.9h-0.092V12.447c0-.008-0.057.017-0.091-0.183l-0.275-.091V12.081H185.04V11.99c-0.6-.217-1.64.344-1.831-0.274h-0.092a1.042,1.042,0,0,1,.183-0.64h2.472a1.286,1.286,0,0,0,.824.091,6.631,6.631,0,0,1,1.648-.183,3.912,3.912,0,0,1,.092,1.188A0.8,0.8,0,0,0,188.336,12.9Zm10.986,20.748-0.275.091v0.091h-0.275v0.091l-1.007.091a5.329,5.329,0,0,1-2.1.457V34.382l-0.55-.091c-0.03-.091-0.061-0.183-0.091-0.274a12.076,12.076,0,0,0,2.289-1.188V32.737l0.366-.274V32.28l0.366-.274V31.823l0.366-.274V31.366l0.275-.183V31l0.275-.183V30.635l0.274-.183V30.269l0.183-.091V30l0.275-.183V29.63l0.183-.091,0.092-.274h0.091V29.081l0.275-.183V28.716l0.183-.091V28.441l0.183-.091c0.031-.122.061-0.244,0.092-0.366l0.183-.091c0.03-.091.061-0.183,0.091-0.274h0.092c0.03-.122.061-0.244,0.091-0.366l0.183-.091V26.979l0.184-.183V26.613H201.7V26.431h0.092V26.248a1.241,1.241,0,0,0,.274-1.005h-0.091V24.968h-0.092V24.785h-0.091V24.511H201.7V24.328h-0.091c-0.031-.152-0.062-0.3-0.092-0.457h-0.092V23.6h-0.091V23.414h-0.092V23.14h-0.091V22.958h-0.092V22.683H200.97c-0.031-.122-0.061-0.244-0.092-0.366h-0.091V22.044H200.7c-0.031-.122-0.061-0.244-0.092-0.366h-0.091c-0.031-.152-0.061-0.3-0.092-0.457h-0.091V20.947h-0.092c-0.03-.122-0.061-0.244-0.091-0.366h-0.092V20.307h-0.091c-0.031-.122-0.061-0.244-0.092-0.366H199.78V19.667h-0.092c-0.031-.122-0.061-0.244-0.092-0.366h-0.091V19.027h-0.092V18.845h-0.091V18.57H199.23c-0.03-.122-0.061-0.244-0.091-0.366h-0.092V17.931h-0.091c-0.031-.122-0.061-0.244-0.092-0.366h-0.092V17.291h-0.091c-0.031-.122-0.061-0.244-0.092-0.366H198.5V16.651h-0.092c-0.03-.122-0.061-0.244-0.091-0.366h-0.092V16.011h-0.091c-0.031-.122-0.061-0.244-0.092-0.366h-0.091V15.371h-0.092c-0.031-.122-0.061-0.244-0.092-0.366h-0.091V14.732h-0.092V14.549h-0.091V14.275H197.4c-0.03-.122-0.061-0.244-0.091-0.366h-0.092V13.635h-0.091V13.452h-0.092V13.269h-0.092V13.086H196.85V12.9h-0.092a1.106,1.106,0,0,0-.64-0.823c-0.53-.428-1.175.427-1.191-0.731l0.183-.091a2.431,2.431,0,0,1,1.465-.183c1.484,0.42,3.634-.2,5.219.091a1.751,1.751,0,0,1,.091.64l-0.274.091V11.99H200.42a0.2,0.2,0,0,1-.183.091c-0.03.091-.061,0.183-0.091,0.274a2.533,2.533,0,0,0,.091,1.737h0.092v0.183h0.091v0.274h0.092c0.03,0.122.061,0.244,0.091,0.366H200.7v0.274h0.092c0.03,0.122.061,0.244,0.091,0.366h0.092v0.183h0.091v0.274h0.092c0.03,0.122.061,0.244,0.091,0.366h0.092v0.274h0.091v0.183h0.092c0.03,0.122.061,0.244,0.092,0.366H201.7v0.274h0.092v0.183h0.091v0.274h0.092c0.03,0.122.061,0.244,0.091,0.366h0.092V18.57h0.091v0.183h0.092c0.03,0.152.061,0.3,0.091,0.457h0.092v0.274h0.092v0.183h0.091v0.274H202.8v0.183h0.091V20.4h0.092v0.183h0.091v0.274h0.092v0.183l0.183,0.091c0.226,0.354.059,0.573,0.641,0.64,0.03-.091.061-0.183,0.091-0.274h0.092V21.221h0.091c0.031-.122.062-0.244,0.092-0.366h0.092V20.581h0.091c0.031-.183.061-0.366,0.092-0.548h0.091c0.031-.183.061-0.366,0.092-0.548h0.091V19.21H205V18.936h0.091V18.662h0.092V18.388h0.092V18.113h0.091V17.839h0.092c0.03-.183.061-0.366,0.091-0.548h0.092V17.108h0.091q0.138-.594.275-1.188H206.1V15.646h0.092V15.371h0.092V15.1h0.091V14.823h0.092c0.03-.183.061-0.366,0.091-0.548h0.092V13.909h0.091V13.635h0.092V12.172l-0.183-.091a6.928,6.928,0,0,0-2.106-.274,1.152,1.152,0,0,1-.091-0.457c0.1-.1.036,0,0.091-0.183a8.842,8.842,0,0,1,2.472-.091,1.743,1.743,0,0,0,1.007.091,5.959,5.959,0,0,1,2.289-.091,1.435,1.435,0,0,1,.091.548,1.154,1.154,0,0,0-.183.183h-0.183V11.9h-0.641l-0.091.183-0.366.274v0.183l-0.184.091c-0.03.122-.061,0.244-0.091,0.366h-0.092v0.183h-0.091v0.183h-0.092v0.183h-0.091v0.183H208.2l-0.183.548h-0.092v0.274h-0.091v0.183h-0.092v0.183h-0.091V15.1h-0.092v0.274H207.47c-0.031.122-.061,0.244-0.092,0.366h-0.091v0.274H207.2v0.183H207.1v0.274h-0.092c-0.031.122-.061,0.244-0.092,0.366h-0.091v0.274h-0.092v0.183h-0.091c-0.031.152-.061,0.3-0.092,0.457h-0.091v0.274h-0.092c-0.03.122-.061,0.244-0.091,0.366h-0.092v0.274H206.1v0.183h-0.091c-0.031.152-.061,0.3-0.092,0.457h-0.091v0.274H205.73v0.183h-0.091v0.274h-0.092c-0.03.152-.061,0.3-0.091,0.457h-0.092v0.183h-0.091v0.274h-0.092c-0.031.122-.061,0.244-0.092,0.366H205v0.274h-0.092v0.183h-0.091v0.274h-0.092c-0.03.152-.061,0.3-0.091,0.457H204.54v0.183h-0.091v0.274h-0.092c-0.03.122-.061,0.244-0.092,0.366h-0.091V23.6h-0.092c-0.03.122-.061,0.244-0.091,0.366H203.9v0.274h-0.091c-0.031.122-.061,0.244-0.092,0.366h-0.091v0.274h-0.092c-0.03.122-.061,0.244-0.091,0.366H203.35v0.274h-0.092V25.7h-0.091v0.183h-0.092v0.183h-0.091v0.274h-0.092v0.183H202.8l-0.183.548h-0.092v0.274h-0.092l-0.183.548H202.16v0.183h-0.092v0.183h-0.091v0.183h-0.092v0.183h-0.091v0.183H201.7V28.99h-0.091v0.274h-0.092l-0.183.548h-0.092V30h-0.091v0.183h-0.092v0.183H200.97v0.183h-0.092q-0.32.731-.641,1.462h-0.091v0.183h-0.092v0.183h-0.091v0.183h-0.092v0.183H199.78V32.92h-0.092c-0.031.122-.061,0.244-0.092,0.366h-0.091A0.772,0.772,0,0,0,199.322,33.651Zm-173.3-22.21v0.091H25.651v0.091l-0.549.183V11.9H24.919l-0.183.274-0.458.366v0.183L24,12.9l-0.092.366A5.25,5.25,0,0,0,23,16.011a2.465,2.465,0,0,0,.824.091,4.2,4.2,0,0,1,1.19-.091c1.055-.3,2.361-0.335,3.387-0.64h0.549V15.28a2.634,2.634,0,0,0,1.007-.183h0.092v-0.64a0.709,0.709,0,0,1-.183-0.366H29.771V13.909H29.679l-0.092-.274L29.4,13.543V13.361l-0.732-.64A3.147,3.147,0,0,0,26.017,11.441Zm40.648,0v0.091l-0.641.091v0.091H65.842L65.75,11.9H65.567l-0.183.274-0.549.457v0.183l-0.183.091-0.092.274H64.468l-0.092.366a5.143,5.143,0,0,0-.732,2.468,2.465,2.465,0,0,0,.824.091,4.2,4.2,0,0,1,1.19-.091c1.058-.3,2.353-0.333,3.387-0.64H69.6V15.28A2.634,2.634,0,0,0,70.6,15.1h0.092V14.549H70.6l-0.091-.457L70.328,14V13.818H70.236V13.635l-0.275-.183V13.269l-0.549-.457A3.335,3.335,0,0,0,66.666,11.441Zm17.028,4.57a8.821,8.821,0,0,0,3.3-.274l1.1-.091c0.822-.246,1.876-0.378,2.746-0.548a2.548,2.548,0,0,0-.458-1.371l-0.183-.091V13.452l-0.366-.274V12.995l-0.549-.457-0.092-.183H89l-0.275-.366L88.363,11.9l-0.092-.183H88.088V11.624H87.814V11.533l-1.1-.091v0.091H86.349v0.091H86.166v0.091l-0.366.091-0.183.274H85.433l-0.275.366H85.067v0.183l-0.275.183-0.091.366-0.183.091-0.275.823H84.152v0.183H84.06v0.274A4.39,4.39,0,0,0,83.694,16.011ZM7.066,12.9v0.091H6.792L6.7,13.178H6.609v0.183H6.517v8.866H6.609v0.731H6.7v0.548H6.792l0.092,0.457,0.275,0.183v0.091L7.707,24.42v0.091H7.982V24.6l1.1,0.091v0.091a5.228,5.228,0,0,0,2.2-.183h0.366V24.511h0.275V24.42H12.1V24.328h0.275V24.237h0.183V24.146h0.183l0.091-.183h0.183l0.092-.183h0.183l0.183-.274,0.641-.548V22.775l0.183-.091V22.5l0.183-.091,0.183-.548h0.092V21.678h0.091V21.4H14.94V21.13h0.091V20.673h0.092V20.124h0.091a7.829,7.829,0,0,0-.183-2.559H14.94V17.2H14.848V17.017H14.757V16.742H14.665V16.56H14.573V16.377l-0.183-.091L14.3,15.92l-0.183-.091V15.646l-0.275-.183V15.28l-0.183-.091L13.2,14.64H13.017l-0.275-.366H12.559l-0.092-.183H12.285l-0.091-.183-0.366-.091V13.726l-0.549-.183V13.452H11V13.361H10.728V13.269H10.454V13.178H10.087V13.086H9.721V12.995Zm144.1,0a3.415,3.415,0,0,1-1.007.091v0.091l-0.915.091v0.091h-0.366v0.091H148.6v0.091h-0.275v0.091h-0.274v0.091l-0.367.091v0.091a0.86,0.86,0,0,0-.549.366h-0.091v8.774h0.091V23.14h0.092l0.549,0.64,0.366,0.091,0.092,0.183h0.183v0.091h0.274v0.091h0.184v0.091l0.64,0.091a4.552,4.552,0,0,0,2.655.091h0.458V24.42l0.549-.091V24.237l0.55-.183V23.963h0.183V23.871l0.366-.091V23.689l0.275-.091,0.091-.183h0.183l0.092-.183,0.366-.274V22.775l0.183-.091c0.031-.122.061-0.244,0.092-0.366h0.091c0.031-.122.061-0.244,0.092-0.366h0.091a8.632,8.632,0,0,0,.367-4.2V17.291C155.515,15.265,153.834,12.911,151.166,12.9Zm26.275,5.118a3.061,3.061,0,0,0-1.648.274h-0.274v0.091h-0.183v0.091h-0.275V18.57h-0.183v0.091H174.6v0.091H174.42v0.091h-0.183l-0.092.183-0.366.091-0.091.183h-0.183l-0.184.274h-0.183v0.091l-0.274.183v0.183l-0.275.183c-0.03.152-.061,0.3-0.091,0.457h-0.092v0.274h-0.092a3.987,3.987,0,0,0,0,1.828c0.031,0.091.061,0.183,0.092,0.274H172.5c0.163,0.235-.1.175,0.274,0.274,0.467,0.55,2.339.471,2.93,0.183l0.366-.091,0.092-.183h0.183l0.091-.183h0.183l0.367-.457,0.183-.091V22.318l0.183-.091c0.03-.122.061-0.244,0.091-0.366h0.092v-1.1A16.643,16.643,0,0,0,177.441,18.022ZM18.144,29.173H20.89V29.9H18.968v1.28h1.739v0.731H18.968v1.28h2.106a3.623,3.623,0,0,0-.091.731H18.144V29.173Zm7.873,4.387a1.74,1.74,0,0,1,.275-0.731,1.908,1.908,0,0,0,1.831.274,1.314,1.314,0,0,0,.183-0.64c-0.1-.1-0.036,0-0.091-0.183-0.227-.1-0.444-0.261-0.641-0.366H27.39V31.823H27.207V31.732l-0.366-.091L26.292,31A1.448,1.448,0,0,1,26.383,30a0.924,0.924,0,0,1,.641-0.64c0.475-.5,1.719,0,2.106.183-0.053.184,0.011,0.079-.092,0.183a1.607,1.607,0,0,1-.183.457A3.078,3.078,0,0,0,27.39,29.9a1.12,1.12,0,0,0-.275.823l0.549,0.457,0.916,0.274L29.13,32.1a1.224,1.224,0,0,1-.092,1.005,0.924,0.924,0,0,1-.641.64c-0.174.181-.053,0-0.275,0.091v0.091H27.757v0.091A3.8,3.8,0,0,1,26.017,33.56Zm17.578-4.387h1.19a5.715,5.715,0,0,0,.641.274L45.792,29.9h0.092v0.183h0.091v0.183h0.092v0.274h0.092c0.417,1.184-.156,2.979-1.007,3.2v0.091H44.877a2.512,2.512,0,0,1-1.648,0V33.743l-0.275-.091-0.275-.366H42.588L42.5,32.92H42.4V32.737H42.313V32.463H42.222V31.915H42.13V31.183h0.091V30.635h0.092V30.361H42.4L42.5,30h0.092V29.812l0.732-.548h0.275V29.173Zm3.662,0H50V29.9H48.081v1.28H49.82v0.731H48.081v2.011H47.257V29.173Zm9.521,4.2a0.778,0.778,0,0,0-.366.183v0.091l-0.366.091v0.091a2.325,2.325,0,0,1-1.922-.091c-1-.235-1.449-2.305-0.916-3.473l0.549-.731H53.94V29.447a1.19,1.19,0,0,0,.275-0.183l1.465-.091a6.42,6.42,0,0,1,1.007.548,5.693,5.693,0,0,1-.366.548l-0.366-.091L55.863,30a2.6,2.6,0,0,0-1.373,0l-0.275.366H54.123a0.814,0.814,0,0,1-.183.366l-0.092,1.1c0.079,0.291.213,0.706,0.275,1.005a1.383,1.383,0,0,0,.458.274,1.057,1.057,0,0,0,.824.183V33.194h0.275V33.1h0.183V33.011h0.183a0.742,0.742,0,0,1,.366-0.274v0.091A0.844,0.844,0,0,1,56.778,33.377Zm4.669,0.548H60.623V33.834H60.532c-0.038-.442-0.223-0.58-0.275-1.005H58.334l-0.366,1.1H57.236a4.977,4.977,0,0,1,.549-1.554V32.1h0.092V31.823h0.092V31.549H58.06V31.275h0.092V31.092h0.092l0.092-.548a4.739,4.739,0,0,0,.458-1.28,3.087,3.087,0,0,0,1.007-.091v0.183h0.092L59.982,29.9h0.091v0.274h0.092v0.183h0.092v0.274h0.092v0.274H60.44l0.183,0.823h0.092v0.183h0.091v0.274H60.9l0.183,0.823h0.092v0.183h0.092A4.059,4.059,0,0,1,61.447,33.925Zm6.134-4.753h2.655a1.89,1.89,0,0,1,.092.731H68.4v1.28h1.74v0.64a6.087,6.087,0,0,1-1.74.091v2.011H67.581V29.173Zm4.669,0c1-.033,2.011.083,2.2,0.823,0.694,0.585.452,2.625,0,3.29H74.356l-0.275.366H73.9v0.091a0.728,0.728,0,0,0-.366.183l-1.007.091L71.7,33.743l-0.458-.548H71.151l-0.091-.366H70.968a4.127,4.127,0,0,1,.183-2.925l0.641-.548,0.458-.091V29.173ZM2.4,29.264H3.221v2.559l0.092,1.1L3.587,33.1a1.106,1.106,0,0,0,.824.183,0.854,0.854,0,0,0,.458-0.457,2.024,2.024,0,0,0,.092-1.005V29.264H5.876c0.031,1.483.3,4.187-.824,4.479a1.78,1.78,0,0,1-1.648.091A1.047,1.047,0,0,1,2.58,33.1,1.853,1.853,0,0,1,2.4,31.915V29.264Zm4.578,0H7.8L7.89,29.538,8.073,29.63v0.183L8.256,29.9l0.092,0.366,0.183,0.091v0.183l0.183,0.091v0.183H8.806V31l0.183,0.091L9.08,31.458l0.183,0.091a1.832,1.832,0,0,1,.275.64H9.63V29.264h0.916v4.57a2.468,2.468,0,0,1-.824.091L7.89,30.909H7.8v3.016H6.975V29.264Zm4.669,0h0.824v4.661H11.644V29.264Zm1.648,0h0.824a0.16,0.16,0,0,0,.092.091,4.524,4.524,0,0,0,.458,1.371c0.275,0.689.368,1.427,0.641,2.1H15.4a2.226,2.226,0,0,1,.275-0.914V31.64h0.091V31.366h0.092V31.092h0.091V30.818h0.092V30.544H16.13V30.269a3.8,3.8,0,0,0,.366-1.005H17.32l-1.556,4.661H14.848a0.16,0.16,0,0,0-.091-0.091,3.5,3.5,0,0,0-.366-1.1l-0.183-.823H14.116V31.732H14.024l-0.183-.823A6.628,6.628,0,0,1,13.292,29.264Zm8.789,0h2.106v0.091l0.458,0.091a1.848,1.848,0,0,1,.549,1.28H25.1v0.457H25.01a0.924,0.924,0,0,1-.641.64l1.1,2.1H24.552A9.413,9.413,0,0,0,23.545,32.1H22.9v1.828H22.081V29.264Zm8.056,0h0.824v4.661H30.137V29.264Zm1.739,0h3.3L35.081,30h-1.19v3.93H33.067V30h-1.19V29.264Zm3.845,0h0.916c0.141,0.719.663,1.168,0.824,1.919a0.16,0.16,0,0,0,.092-0.091,2.269,2.269,0,0,0,.366-0.731H38.01V30.178a3.332,3.332,0,0,0,.458-0.914h0.915a1.885,1.885,0,0,1-.366.64l-0.092.366H38.834l-0.092.366-0.183.091v0.183l-0.183.183v0.183H38.285v0.183l-0.183.091v0.183H38.01v2.1a2.837,2.837,0,0,1-.915.091v-2.1H37V31.64H36.912V31.458H36.82V31.275l-0.183-.183V30.909l-0.183-.091V30.635H36.362V30.452l-0.183-.183V30.087L36,30V29.812H35.9Zm26.367,0h0.824v3.93h2.014a3.127,3.127,0,0,1-.091.731H62.088V29.264Zm3.57,0h0.915v4.57a2.837,2.837,0,0,1-.915.091V29.264Zm9.887,0h2.106v0.091l0.458,0.091,0.458,0.64c0.031,0.892-.051,1.568-0.732,1.737a2.419,2.419,0,0,0,.366.64l0.091,0.366h0.092l0.091,0.366,0.183,0.091v0.183H78.75l0.091,0.457H78.018A9.444,9.444,0,0,0,77.011,32.1H76.37v1.828H75.546V29.264Zm4.852,0,0.092,0.274h0.092v0.183h0.091V29.9L80.856,30v0.183l0.183,0.091v0.183H81.13v0.183l0.183,0.091,0.092,0.366,0.183,0.091v0.183l0.183,0.091,0.091,0.366,0.183,0.091,0.092,0.274h0.091V29.264h0.824v4.661H82.321a0.856,0.856,0,0,0-.183-0.183V33.56l-0.183-.091L81.863,33.1l-0.183-.091V32.829L81.5,32.737l-0.091-.274H81.314L81.222,32.1l-0.183-.091V31.823l-0.183-.091-0.091-.366-0.183-.091L80.49,31H80.4v2.833a2.837,2.837,0,0,1-.915.091v-4.57A2.834,2.834,0,0,1,80.4,29.264Zm3.662,0h0.824v4.661H84.06V29.264Zm4.12,0,1.556,4.661H88.912l-0.366-1.1H86.623l-0.366,1.1H85.525a1.972,1.972,0,0,1,.275-0.731l0.183-.823h0.091V32.189h0.092l0.091-.548h0.092l0.091-.548h0.092V30.909h0.092V30.635h0.092V30.361l0.458-1.1H88.18Zm-44.4.64V30H43.595l-0.183.274H43.32a2.893,2.893,0,0,0-.092,2.285,0.52,0.52,0,0,0,.275.366l0.183,0.274h0.275a1.267,1.267,0,0,0,.916-0.091,5.035,5.035,0,0,0,.458-0.823,4.41,4.41,0,0,0-.183-1.919L44.6,29.9H43.778Zm28.655,0a1.492,1.492,0,0,0-.549.64,3.6,3.6,0,0,0-.183,1.828h0.092v0.183h0.091c0.162,0.3.08,0.453,0.458,0.548a0.971,0.971,0,0,0,.732.183V33.194h0.275l0.366-.457a2.915,2.915,0,0,0,.275-1.828,5.866,5.866,0,0,1-.275-0.64,2,2,0,0,1-.458-0.366H72.433ZM22.9,30v1.371a2.738,2.738,0,0,0,1.19-.183,1.861,1.861,0,0,0,.183-0.914A0.614,0.614,0,0,1,24,30H22.9ZM76.37,30v1.371a2.737,2.737,0,0,0,1.19-.183,1.86,1.86,0,0,0,.183-0.914A0.615,0.615,0,0,1,77.468,30h-1.1ZM58.609,32.189h1.373a3.561,3.561,0,0,0-.183-0.731H59.708V31.275H59.616V31H59.525V30.726H59.433l-0.092-.548H59.25v0.091H59.158Zm28.289,0h1.373l-0.641-2.011c-0.1.1-.037,0-0.092,0.183H87.447Z"/>
</svg>
