<?xml version="1.0" encoding="UTF-8"?>
<svg xmlns="http://www.w3.org/2000/svg" version="1.1" width="288" height="36" viewBox="0 0 288 36">
  <!-- Generator: Adobe Illustrator 29.7.1, SVG Export Plug-In . SVG Version: 2.1.1 Build 8)  -->
  <defs>
    <style>
      .st0 {
        fill: #fff;
        fill-rule: evenodd;
      }

      .st1 {
        isolation: isolate;
      }
    </style>
  </defs>
  <g id="New_UCB_Library_Logo_1" class="st1">
    <g id="New_UCB_Library_Logo_11" data-name="New_UCB_Library_Logo_1">
      <path class="st0" d="M71.7,16.02c-.35-.15-.7-.29-1.06-.44-.02-.01-.04-.02-.06-.03,2.41-.97,4.18-5.25,2.23-8.05-1.62-2.33-4.72-2.88-8.75-2.83-.34.02-.68.04-1.02.06-1.61.25-3.61.09-5.28.03-.7-.02-2.02-.28-2.36.22-.95,1.41,2.4,1.36,2.89,2.08.47.7.06,3.03.22,4.07v9.26c-.01,1.17-.02,2.34-.03,3.51-.02.65-.04,1.31-.06,1.96-.31,1.18-1.89.55-2.76,1.15-.36.25-.37,1.03,0,1.27.39.26,1.27.09,1.86.09,1.52,0,3.15-.23,4.62,0,5.51.85,10.04-.19,12.2-3.45,1.19-1.8,1.37-4.65.16-6.59-.64-1.02-1.69-1.77-2.79-2.33ZM62.54,8.66c.15-.94-.15-1.64.59-1.96.5-.21,1.22-.22,1.89-.22,3.34,0,5.37,2.34,4.47,5.94-.25,1.02-.78,1.65-1.15,2.46-.26.17-1.02.02-1.49-.06-1.31-.23-2.92-.13-4.38-.12.02-2.01.04-4.02.06-6.03ZM69.28,25.72c-1.15.84-3.26,1.3-5.15.84-.53-.13-1.03-.21-1.3-.59-.38-.52-.15-1.3-.28-2.11-.02-1.62-.04-3.23-.06-4.85.01-.83.02-1.66.03-2.49,3.18,0,6.23.24,7.63,2.02,1.73,2.19,1.06,5.77-.87,7.18ZM251.67,24.54c-.24-1.02-.31-3.73-.12-4.91v-1.49c.14-.91.14-2.24-.09-3.01-.63-2.07-2.38-2.83-5.12-2.8-.65.25-1.44.18-2.05.37-1.57.49-2.93,1.42-3.76,2.67-.43.65-.94,2.15-.09,2.8.92.7,2.29.05,2.48-.87.12-.58-.19-1.11,0-1.62.17-.45.58-.85.96-1.09.38-.23.86-.4,1.33-.53,2.07-.55,3.37.42,3.69,2.05-.01,1.06-.02,2.11-.03,3.17-.62.17-1.24.33-1.86.5-2.45.74-5.1,1.52-6.33,3.48-.46.73-.7,2.04-.37,3.11.62,2.02,3.26,2.97,5.62,1.96.85-.36,1.56-.95,2.23-1.49.35-.37.7-.75,1.06-1.12.3,1.25,1.05,2.79,2.2,3.17.64.21,2.33-1,2.33-1.62-.92-.97-1.7-1.11-2.08-2.73ZM242.91,25.13c-.55-2.43,2.89-3.65,4.53-4.16.47-.12.93-.25,1.4-.37.01.47.02.93.03,1.4.04.87.08,1.74.12,2.61-.94,1.28-5.38,3.61-6.08.53ZM81.1,12.67c-2.42,1.43-3.57,3.69-4.1,7.05-.16,1,.04,2.17.22,2.92.82,3.52,2.82,5.44,6.58,6.03,2.61.41,4.67-1.04,5.93-2.05.37-.3,1.34-1.02,1.06-1.71-.16-.42-.68-.44-1.06-.22-1.12.66-2.63,1.66-4.59,1.31-2.91-.52-4.71-2.83-4.66-6.28,1.02-.17,2.05-.33,3.07-.5,1.66-.36,3.3-.57,4.87-.96.72-.18,2.09-.2,2.45-.75.35-.53-.35-2-.56-2.36-1.55-2.66-5.62-4.61-9.22-2.49ZM87.18,16.58c-.44.3-1.08.35-1.68.5-1.55.39-3.24.79-4.9.99.05-1.77,1-3.47,2.17-4.16.35-.21.75-.2,1.18-.37,1.64-.02,3.71,1.43,3.23,3.05ZM221,12.42c-.93-.22-2.18-.12-2.95.19-.95.37-1.89,1.03-2.48,1.77-.19.23-.37.46-.56.68v-7.68c.13-.88.17-2.51-.03-3.23-.15-.11-.24-.16-.53-.16-1.12.67-3.25.56-4.62.96-.11.16-.24.47-.09.71.37.74,2.07.3,2.45,1.06.28.56.09,3.54.09,4.44v10.78c-.04,1.72-.08,3.44-.12,5.16-.07.47-.17,1.34.12,1.55.68.65,1.88-1.28,2.08-1.68h.06c.71.54,1.4,1.1,2.36,1.4,4.75,1.49,8.18-2.32,9.06-5.75.25-.97.48-2.41.28-3.6-.59-3.46-1.87-5.84-5.12-6.62ZM217.09,26.84c-.97-.34-1.42-.97-2.11-1.55v-8.58c.24-.73,1.73-1.76,2.48-2.05.36-.08.72-.17,1.09-.25,7.47-.06,5.88,15.03-1.46,12.43ZM206.51,9.37c2.11-.59,1.92-3.96-.9-3.88-.77.35-1.31.59-1.55,1.46-.44,1.59.98,2.83,2.45,2.42ZM25.8,4.77c-.64.02-1.28.04-1.92.06-1.23.18-3.19.12-4.34-.06-.75-.11-1.63-.04-1.77.5-.41,1.6,2.84.71,3.13,1.96.02,2.21.04,4.41.06,6.62.01,1.04.02,2.07.03,3.11,0,4.64-.75,7.54-4.16,8.73-.71.25-1.83.53-2.86.37-.58-.09-1.16-.19-1.74-.28-4.78-1.45-4.16-6.62-4.16-12.74.02-1.55.04-3.11.06-4.66.06-.43-.09-.96.06-1.31.45-1.03,2.86-.19,3.01-1.49.1-.89-1.1-.94-1.99-.81-2.44.37-5.16-.01-7.67,0-.33.18-.56.23-.56.75,0,1.4,2.62.52,3.01,1.62.02.92.04,1.84.06,2.77.01,1.93.02,3.85.03,5.78,0,1.83-.18,3.92.12,5.56.63,3.35,2.09,5.6,4.87,6.77.92.39,1.96.56,3.1.75.4.01.81.02,1.21.03,1.04.16,2.4-.09,3.26-.34,1.38-.41,2.52-1.01,3.51-1.8,3.5-2.79,3.07-7.99,3.07-14.23.01-1.68.02-3.36.03-5.03.26-1.34,2.08-.53,2.86-1.31.41-.41.17-1.18-.34-1.31ZM101.74,11.64c-1.68.31-2.68,1.8-3.51,2.98-.19.29-.37.58-.56.87v-3.76c-.06-.07-.12-.15-.19-.22-.1-.01-.21-.02-.31-.03-1.03.5-2.51.55-3.72.78-.74.14-1.54-.02-1.92.47-.34,1.39,1.41.95,2.14,1.46.49.34.26,1.42.37,2.14v6.46c-.03,1.17-.06,2.34-.09,3.51-.33,1.09-2.84,0-2.27,1.86.49.34,1.33.2,2.11.19,1.49-.02,3.11-.19,4.56.03.74.11,1.88.12,2.08-.37.58-1.44-2.37-.85-2.7-1.68-.26-.65-.12-2.93-.12-3.82v-5.1c.24-.65,2.13-2.48,2.86-2.7,1.52-.46,2.31,1.5,3.1,1.21.24-.09,1.59-2.53,1.46-2.98-.17-.58-2.23-1.5-3.29-1.31ZM46.71,21.83c-.23.57-.46,1.14-.68,1.71-.91,1.54-2.3,2.56-4.25,3.05-5.02,1.26-8.54-2.11-9.84-5.38-2.32-5.82.19-12.41,4.53-14.23,1.01-.42,2.59-.91,4.19-.65,2.44.4,3.98,1.04,5.06,2.77.31.5.74,2.25,1.71,1.86.58-.23.7-3.72.28-4.35-.35-.52-1.1-.76-1.71-1.03-1.87-.81-4-1.26-6.77-1.21-.37.03-.74.06-1.12.09-.89.16-1.75.28-2.54.53-2.89.9-5.3,2.64-6.77,4.97-.69,1.1-1.23,2.32-1.61,3.73-.3,1.08-.55,2.67-.34,4.04.15.97.13,1.79.37,2.61,1.16,3.89,3.69,6.62,7.51,7.83,1.28.4,2.62.41,4.19.65.53-.03,1.06-.06,1.58-.09,2.29-.37,3.99-.82,5.62-1.77.68-.4,1.61-.74,1.89-1.52.17-.48.21-2.9.03-3.39-.18-.5-.98-.7-1.33-.22ZM284.69,12.92c-.19-.41-.88-.37-1.49-.31-.7.03-1.41.06-2.11.09-.48-.08-2.13-.24-2.48-.06-.23.11-.39.56-.22.87.35.73,1.98.25,2.2,1.12.17.66-.72,2.28-.93,2.8-.75,1.83-1.45,3.66-2.2,5.44-.32.76-.64,1.51-.96,2.27-.01.02-.02.04-.03.06-.27-.66-.54-1.33-.81-1.99-.65-1.78-1.3-3.56-1.96-5.34-.33-.95-.66-1.91-.99-2.86-.29-1.5,2.77-.58,2.23-2.02-.07-.1-.14-.21-.22-.31-.76-.19-2.11-.1-2.98.03-1.24-.04-2.48-.08-3.72-.12-.25.11-.37.14-.56.28-.28,1.21.89.91,1.55,1.34.47.3.74,1.01.96,1.55,1.69,4.21,3.37,8.41,5.06,12.62-.15,1.28-2.21,4.1-3.17,4.66-.61.36-1.66.3-2.3.68-.5.3-.93,1.18-.5,1.86.33.51,1.27.8,2.14.56,1.27-.35,2.15-1.46,2.82-2.42,1.4-1.99,2.32-4.38,3.35-6.74,1.32-3.05,2.6-6.13,3.91-9.23.4-.93,1.01-2.93,1.74-3.48.41-.31,2.19-.35,1.64-1.34ZM263.74,12.39c-1.45.36-2.46,1.69-3.23,2.77-.2.29-.39.58-.59.87v.06c-.36-.93.36-2.9-.06-3.7-.09-.2-.25-.23-.56-.22-1.23.67-3.39.36-4.66.99-.59,1.57,2.02.8,2.42,1.77.29.71-.01,2.07.09,2.95v6.4c-.11.74.19,1.81-.16,2.33-.29.44-1.53.49-2.05.68-.1.15-.28.41-.16.68.22.56,1.26.36,1.96.34,1.44-.05,3.14-.19,4.56.03.66.1,1.24-.02,1.52-.31v-.5c-.4-.92-2.62-.12-2.92-1.18-.02-2.11-.04-4.23-.06-6.34v-2.39c.2-.54,1.9-2.21,2.42-2.52.8-.48,1.79-.26,2.42.22.19.14.6.76,1.06.56.2-.09,1.12-1.96,1.18-2.3.17-.92-2.2-1.46-3.2-1.21ZM200.27,22.11c-.49.34-.76,3.26-1.27,3.95-.47.64-1.35.4-2.33.56-.78.02-1.55.04-2.33.06-.83.14-3.24.15-4-.03-.36-.09-.77-.27-.96-.53-.59-.79-.37-2.82-.37-4.13v-10.32c.12-1.03-.25-3.79.12-4.44.48-.84,2.74-.23,2.95-1.24.17-.79-.79-.9-1.52-.78-2.2.36-4.7-.01-6.95,0-.22.12-.34.18-.5.34-.05.22-.08.44.03.62.4.81,2.59.13,2.95,1.18.02,1.9.04,3.79.06,5.69-.01,4.34-.02,8.68-.03,13.02-.26,1.3-3.54.45-3.04,1.9.24.7,3.2.31,4.16.31h9.71c.79.01,1.57.02,2.36.03.52.09,1.12.22,1.64.06.25-.35.13-.72.22-1.31.07-1.47.14-2.94.22-4.41-.05-.26-.18-.39-.31-.56-.23-.06-.61-.11-.81.03ZM120.92,26.81c-.25-.18-.5-.35-.74-.53-1.13-1.13-1.95-2.59-2.89-3.92-.72-1.08-1.45-2.15-2.17-3.23.51-.46,1.01-.91,1.52-1.37,1.19-.96,2.31-2.1,3.26-3.29.27-.34,1.41-1.33,1.06-1.99-.19-.41-.87-.4-1.46-.31-1.29.2-4.32-.34-4.97.34-.32,1.54,1.81.77,2.11,1.8.22.76-.83,1.79-1.15,2.11-1.59,1.61-3.34,3.09-5.34,4.29.01-4.07.02-8.14.03-12.21,0-1.14.29-4.22-.06-4.97-.14-.05-.31-.07-.53-.06-1.21.63-4.81.45-5.59,1.24v.53c.36.84,2.13.34,2.45,1.21.02.55.04,1.1.06,1.65.02,1.44.04,2.88.06,4.32-.02,4.56-.04,9.12-.06,13.67-.22,1.19-2.89.47-2.48,1.86.18.6,1.08.45,1.83.44,1.53-.02,3.26-.24,4.78,0,.61.1,1.68.11,1.92-.22,1.01-1.33-1.99-1.19-2.3-1.74-.23-.41-.09-2.97-.09-3.7.69-.46,1.39-.91,2.08-1.37.02-.02.04-.04.06-.06,1.17,1.72,2.34,3.44,3.51,5.16.44.62.84,1.73,1.71,1.9.77.15,4.59.05,4.81-.25.79-1.08-.9-1.09-1.43-1.31ZM207.44,26.28v-10.47c0-.86.25-3.26-.19-3.6-.12-.01-.25-.02-.37-.03-.88.45-2.21.53-3.26.71-.56.1-1.31-.03-1.52.4-.52,1.08,1.82,1.03,2.3,1.37.44.31.21,1.37.31,2.02v6.93c-.02.92-.04,1.84-.06,2.77-.28,1.09-2.81.22-2.23,1.8.41.24,1.36.25,2.02.16,1.6-.24,3.85.34,5.21-.09.12-.16.28-.46.12-.71-.41-.82-2.12-.16-2.33-1.24ZM148.57,12.79c-2.51,1.57-3.36,3.71-3.91,7.27-.13.85.07,1.83.22,2.49.81,3.57,2.79,5.52,6.58,6.12,2.47.39,4.91-1.01,5.99-2.08.47-.47,1.27-.96.93-1.86-.14-.08-.35-.25-.62-.19-.34.2-.68.39-1.02.59-.67.39-1.46.67-2.33.84-3.89.76-6.3-2.73-6.24-6.25.96-.16,1.92-.31,2.89-.47,1.67-.36,3.32-.57,4.9-.96.65-.16,2.27-.31,2.58-.75.39-.57-.35-2.07-.59-2.49-1.62-2.75-5.85-4.47-9.37-2.27ZM154.84,16.55c-.21.36-1.07.38-1.52.5-1.58.4-3.33.58-4.97,1.03h-.09c.26-1.88.94-3.44,2.3-4.23.32-.18.71-.16,1.09-.31,1.52-.03,2.43.7,2.95,1.68.14.26.57.96.25,1.34ZM174.92,12.2c-.81.02-1.61.04-2.42.06-.69-.1-1.67-.16-2.27.03-1.1,1.55,2.31.94,1.89,3.01-.21,1.01-.58,1.96-.93,2.86-.63,1.63-1.13,3.22-1.8,4.79-.32.75-.64,1.49-.96,2.24l-.06.03c-.41-1.05-.83-2.09-1.24-3.14-.53-1.47-1.06-2.94-1.58-4.41-.24-.61-1.1-2.45-.81-3.2.34-.85,1.68-.68,2.2-1.34.23-.9-.58-1.12-1.55-.96-2.04.32-4.3-.02-6.39,0-.2.12-.33.16-.47.34-.28,1.15.87.95,1.46,1.4.47.36.73,1.26.96,1.83,1.81,4.56,3.62,9.12,5.43,13.67.04.35-.55.96-.71,1.21-.57.85-1.21,1.67-2.2,2.08-.96.4-2.06.35-2.64,1.12-.84,1.11-.06,2.45,1.09,2.67,2.23.43,3.69-2.19,4.44-3.39,2.79-4.46,4.78-9.87,6.83-15.01.5-1.25.84-2.86,1.61-3.88.39-.51,1.1-.45,1.61-.84.22-.16.38-.7.12-.96-.23-.38-1.07-.24-1.61-.22ZM236.24,12.39c-1.44.36-2.47,1.69-3.23,2.77-.2.29-.39.58-.59.87v.06c-.36-.94.36-2.9-.06-3.7-.09-.2-.25-.23-.56-.22-.85.46-2.2.53-3.23.71-.53.1-1.17-.03-1.43.34-.92,1.03,2.05,1.13,2.36,1.58.34.51.07,2.28.19,3.05-.01,2.16-.02,4.33-.03,6.49-.11.7.15,1.56-.09,2.14-.29.71-2.85.38-2.23,1.55.24.48,1.3.31,1.96.28,1.42-.07,3.13-.18,4.53.03.66.1,1.24-.02,1.52-.31.04-.17.05-.43-.03-.56-.43-.86-2.59-.07-2.89-1.12-.02-2.11-.04-4.23-.06-6.34v-2.39c.2-.54,1.9-2.21,2.42-2.52.81-.48,1.79-.25,2.42.22.19.14.6.76,1.06.56.2-.09,1.11-1.94,1.18-2.27.21-.95-2.2-1.5-3.2-1.24ZM126.41,12.33c-2.52,1.09-4.03,3.41-4.66,6.4-.94,4.48,1.51,8.18,4.31,9.38,3.46,1.49,7.9-.2,9.28-2.52.27-.45.05-1.2-.62-1.06-.38.22-.77.44-1.15.65-1.07.63-3,1.14-4.59.65-2.37-.72-3.92-3.01-3.88-6.12.91-.15,1.82-.29,2.73-.44,1.78-.37,3.53-.61,5.21-1.03.72-.18,2.08-.2,2.45-.75.3-.44-.05-1.27-.22-1.68-1.17-2.81-4.95-5.21-8.88-3.51ZM131.84,16.49c-.2.43-1.06.42-1.55.56-1.56.42-3.37.89-5.06,1.03.12-1.79.97-3.44,2.17-4.16.35-.21.75-.2,1.18-.37,1.55-.03,2.37.69,2.95,1.65.16.26.54.89.31,1.31ZM141.87,26.09c-.01-1.51-.02-3.02-.03-4.54v-12.49c.01-1.79.02-3.58.03-5.38-.06-.06-.12-.12-.19-.19-.13-.01-.27-.02-.4-.03-.96.49-2.77.56-3.94.78-.66.12-1.55-.03-1.71.59-.28,1.15,2,.84,2.42,1.46.34.5.19,3.06.19,3.92v10.63c-.02,1.78-.04,3.56-.06,5.34-.23,1.02-1.92.38-2.42,1.09-.29.42-.05,1.01.34,1.12.54-.01,1.08-.02,1.61-.03,1.22-.19,3.5-.15,4.69.03.58.09,1.67.11,1.92-.19.11-.13.17-.37.12-.56-.26-1.22-2.35-.29-2.58-1.55Z"/>
    </g>
  </g>
</svg>
